STARTFONT 2.1
FONT HAN-GB2312
SIZE 10 72 72
FONTBOUNDINGBOX 10 10 0 0
STARTPROPERTIES 1
BITCOUNT 8
ENDPROPERTIES
CHARS 7677
STARTCHAR  00A4
ENCODING  164
SWIDTH  1000 0
DWIDTH  9 0
BBX  7 7 1 0
BITMAP
8060C0C0C060A0
30C0100010C060
C02000000020C0
E00000000000E0
A02000000030A0
30E0200020E030
8040A0C0A04080
ENDCHAR
STARTCHAR  00A7
ENCODING  167
SWIDTH  1000 0
DWIDTH  9 0
BBX  5 9 2 -1
BITMAP
80C0C0C060
E0000000E0
A0E0601030
C06080E060
E0100010E0
60E0A060C0
600040A0A0
E0000010E0
60C0C0C060
ENDCHAR
STARTCHAR  00A8
ENCODING  168
SWIDTH  1000 0
DWIDTH  10 0
BBX  4 1 3 8
BITMAP
40606040
ENDCHAR
STARTCHAR  00B0
ENCODING  176
SWIDTH  1000 0
DWIDTH  10 0
BBX  4 3 0 5
BITMAP
00A0C010
20804060
00A0C010
ENDCHAR
STARTCHAR  00B1
ENCODING  177
SWIDTH  1000 0
DWIDTH  11 0
BBX  7 6 2 1
BITMAP
000000E0000000
000000E0000000
A0C0C0F0C0C0A0
000000E0000000
000000E0000000
A0C0C0C0C0C0A0
ENDCHAR
STARTCHAR  00B7
ENCODING  183
SWIDTH  1000 0
DWIDTH  10 0
BBX  2 1 4 3
BITMAP
6060
ENDCHAR
STARTCHAR  00D7
ENCODING  215
SWIDTH  1000 0
DWIDTH  10 0
BBX  6 6 2 1
BITMAP
000000000000
606000008040
006080806000
0000C0C00000
00A04040A000
604000004060
ENDCHAR
STARTCHAR  00E0
ENCODING  224
SWIDTH  1000 0
DWIDTH  10 0
BBX  6 8 2 0
BITMAP
000060400000
000020C00000
000000000000
40A0A0A0A0C0
E020000010E0
E000000000E0
E010000000E0
60E0C0C0C0E0
ENDCHAR
STARTCHAR  00E1
ENCODING  225
SWIDTH  1000 0
DWIDTH  10 0
BBX  6 8 2 0
BITMAP
000000600000
000080A00000
000000000000
40A0A0A0A0C0
E020000010E0
E000000000E0
E010000000E0
60E0C0C0C0E0
ENDCHAR
STARTCHAR  00E8
ENCODING  232
SWIDTH  1000 0
DWIDTH  10 0
BBX  6 7 2 0
BITMAP
0000A0600000
000000000000
60C0C0C0A010
E00000006080
F0C0C0C0E080
E00000004060
80E0C0C0E020
ENDCHAR
STARTCHAR  00E9
ENCODING  233
SWIDTH  1000 0
DWIDTH  10 0
BBX  6 7 2 0
BITMAP
0000A0600000
000000000000
60C0C0C0A010
E00000006080
F0C0C0C0E080
E00000004060
80E0C0C0E020
ENDCHAR
STARTCHAR  00EA
ENCODING  234
SWIDTH  1000 0
DWIDTH  10 0
BBX  6 7 2 0
BITMAP
0040C0A01000
000000000000
60C0C0C0A010
E00000006080
F0C0C0C0E080
E00000004060
80E0C0C0E020
ENDCHAR
STARTCHAR  00EC
ENCODING  236
SWIDTH  1000 0
DWIDTH  9 0
BBX  3 7 3 0
BITMAP
108010
000000
00E000
00E000
00E000
00E000
00E000
ENDCHAR
STARTCHAR  00ED
ENCODING  237
SWIDTH  1000 0
DWIDTH  9 0
BBX  3 7 3 0
BITMAP
108010
000000
00E000
00E000
00E000
00E000
00E000
ENDCHAR
STARTCHAR  00F2
ENCODING  242
SWIDTH  1000 0
DWIDTH  10 0
BBX  6 7 2 0
BITMAP
000060A00000
000000000000
40C0C0C0C040
E020000020E0
E000000000E0
E010000010E0
60C0C0C0C060
ENDCHAR
STARTCHAR  00F3
ENCODING  243
SWIDTH  1000 0
DWIDTH  10 0
BBX  6 7 2 0
BITMAP
000060A00000
000000000000
40C0C0C0C040
E020000020E0
E000000000E0
E010000010E0
60C0C0C0C060
ENDCHAR
STARTCHAR  00F7
ENCODING  247
SWIDTH  1000 0
DWIDTH  10 0
BBX  8 5 1 1
BITMAP
0000006060000000
0000000000000000
40C0C0C0C0C0C040
0000000000000000
0000006060000000
ENDCHAR
STARTCHAR  00F9
ENCODING  249
SWIDTH  1000 0
DWIDTH  9 0
BBX  6 7 2 0
BITMAP
001080100000
600000006000
E0000000E000
E0000000E000
E0000000E000
E0000010E000
60E0C0C0C080
ENDCHAR
STARTCHAR  00FA
ENCODING  250
SWIDTH  1000 0
DWIDTH  9 0
BBX  6 7 2 0
BITMAP
001080100000
600000006000
E0000000E000
E0000000E000
E0000000E000
E0000010E000
60E0C0C0C080
ENDCHAR
STARTCHAR  00FC
ENCODING  252
SWIDTH  1000 0
DWIDTH  9 0
BBX  6 7 2 0
BITMAP
008020800000
400000004000
E0000000E000
E0000000E000
E0000000E000
E0000010E000
60E0C0C0C080
ENDCHAR
STARTCHAR  0101
ENCODING  257
SWIDTH  1000 0
DWIDTH  10 0
BBX  6 7 2 0
BITMAP
0060C0C08000
000000000000
40C0C0C0C0C0
E020000010E0
E000000000E0
E010000000E0
60E0C0C0C0E0
ENDCHAR
STARTCHAR  0113
ENCODING  275
SWIDTH  1000 0
DWIDTH  10 0
BBX  6 7 2 0
BITMAP
0080C0C03000
000000000000
60C0C0C0A010
E00000006080
F0C0C0C0E080
E00000004060
80E0C0C0E020
ENDCHAR
STARTCHAR  011B
ENCODING  283
SWIDTH  1000 0
DWIDTH  10 0
BBX  6 7 2 0
BITMAP
0040C0A01000
000000000000
60C0C0C0A010
E00000006080
F0C0C0C0E080
E00000004060
80E0C0C0E020
ENDCHAR
STARTCHAR  012B
ENCODING  299
SWIDTH  1000 0
DWIDTH  9 0
BBX  4 7 3 0
BITMAP
C0C0C000
00000000
00E00000
00E00000
00E00000
00E00000
00E00000
ENDCHAR
STARTCHAR  0144
ENCODING  324
SWIDTH  1000 0
DWIDTH  10 0
BBX  6 7 2 0
BITMAP
000060A00000
000000000000
E0C0A0A0E080
E010000000E0
E000000000E0
E000000000E0
E000000000E0
ENDCHAR
STARTCHAR  0148
ENCODING  328
SWIDTH  1000 0
DWIDTH  10 0
BBX  6 7 2 0
BITMAP
0030C0C04000
000000000000
E0C0A0A0E080
E010000000E0
E000000000E0
E000000000E0
E000000000E0
ENDCHAR
STARTCHAR  014D
ENCODING  333
SWIDTH  1000 0
DWIDTH  10 0
BBX  6 7 2 0
BITMAP
0080C0C08000
000000000000
40C0C0C0C040
E020000020E0
E000000000E0
E010000010E0
60C0C0C0C060
ENDCHAR
STARTCHAR  016B
ENCODING  363
SWIDTH  1000 0
DWIDTH  9 0
BBX  6 7 2 0
BITMAP
00A0C0A00000
400000004000
E0000000E000
E0000000E000
E0000000E000
E0000010E000
60E0C0C0C080
ENDCHAR
STARTCHAR  01CE
ENCODING  462
SWIDTH  1000 0
DWIDTH  10 0
BBX  6 7 2 0
BITMAP
0030E0A06000
000040400000
40A0A0A0A0C0
E020000010E0
E000000000E0
E010000000E0
60E0C0C0C0E0
ENDCHAR
STARTCHAR  01D0
ENCODING  464
SWIDTH  1000 0
DWIDTH  9 0
BBX  5 7 2 0
BITMAP
0080A08000
0000000000
0000E00000
0000E00000
0000E00000
0000E00000
0000E00000
ENDCHAR
STARTCHAR  01D2
ENCODING  466
SWIDTH  1000 0
DWIDTH  10 0
BBX  6 7 2 0
BITMAP
0030C0C03000
000000000000
40C0C0C0C040
E020000020E0
E000000000E0
E010000010E0
60C0C0C0C060
ENDCHAR
STARTCHAR  01D4
ENCODING  468
SWIDTH  1000 0
DWIDTH  9 0
BBX  6 7 2 0
BITMAP
0060C0600000
000000000000
E0000000E000
E0000000E000
E0000000E000
E0000000E000
80C0A0C0C080
ENDCHAR
STARTCHAR  01D6
ENCODING  470
SWIDTH  1000 0
DWIDTH  9 0
BBX  6 9 2 0
BITMAP
00A0C0A00000
000000000000
008020800000
400000004000
E0000000E000
E0000000E000
E0000000E000
E0000010E000
60E0C0C0C080
ENDCHAR
STARTCHAR  01D8
ENCODING  472
SWIDTH  1000 0
DWIDTH  9 0
BBX  6 9 2 0
BITMAP
0000A0300000
001080000000
00C030A00000
300000003000
E0000000E000
E0000000E000
E0000000E000
E0000010E000
60E0C0C0C080
ENDCHAR
STARTCHAR  01DA
ENCODING  474
SWIDTH  1000 0
DWIDTH  9 0
BBX  6 9 2 0
BITMAP
00A080800000
001080100000
00C030A00000
300000003000
E0000000E000
E0000000E000
E0000000E000
E0000010E000
60E0C0C0C080
ENDCHAR
STARTCHAR  01DC
ENCODING  476
SWIDTH  1000 0
DWIDTH  9 0
BBX  6 9 2 0
BITMAP
0010E0000000
000040200000
00C030A00000
300000003000
E0000000E000
E0000000E000
E0000000E000
E0000010E000
60E0C0C0C080
ENDCHAR
STARTCHAR  0251
ENCODING  593
SWIDTH  1000 0
DWIDTH  10 0
BBX  6 5 2 0
BITMAP
40C0C0C0C0C0
E020000010E0
E000000000E0
E010000000E0
60E0C0C0C0E0
ENDCHAR
STARTCHAR  0261
ENCODING  609
SWIDTH  1000 0
DWIDTH  10 0
BBX  6 7 2 -2
BITMAP
40C0C0C0C0C0
E020000010E0
E000000000E0
E000000000E0
60C0C0C0C0E0
C000000000E0
A0E0C0C0E080
ENDCHAR
STARTCHAR  02C7
ENCODING  711
SWIDTH  1000 0
DWIDTH  10 0
BBX  4 2 3 7
BITMAP
30404030
00C0C000
ENDCHAR
STARTCHAR  02C9
ENCODING  713
SWIDTH  1000 0
DWIDTH  10 0
BBX  4 1 3 8
BITMAP
60C0C060
ENDCHAR
STARTCHAR  0391
ENCODING  913
SWIDTH  1000 0
DWIDTH  10 0
BBX  8 7 1 0
BITMAP
0000A0C0C0A00000
0000E00000E01000
0040800000806000
00A020000020A000
10E0C0C0C0C0E010
6080000000008060
A0400000000040A0
ENDCHAR
STARTCHAR  0392
ENCODING  914
SWIDTH  1000 0
DWIDTH  10 0
BBX  7 7 2 0
BITMAP
E0C0C0C0C0A010
E0000000008080
E0000000008080
E0C0C0C0C0F020
E00000000060A0
E00000000040A0
E0C0C0C0C0E040
ENDCHAR
STARTCHAR  0393
ENCODING  915
SWIDTH  1000 0
DWIDTH  10 0
BBX  6 7 3 0
BITMAP
E0C0C0C0C040
E00000000000
E00000000000
E00000000000
E00000000000
E00000000000
E00000000000
ENDCHAR
STARTCHAR  0394
ENCODING  916
SWIDTH  1000 0
DWIDTH  10 0
BBX  8 7 1 0
BITMAP
000000C0A0000000
000040C0C0400000
0000E03040E00000
0060A00000A06000
10E020000020E010
8080000000008080
F0C0A0A0A0A0C0F0
ENDCHAR
STARTCHAR  0395
ENCODING  917
SWIDTH  1000 0
DWIDTH  10 0
BBX  6 7 2 0
BITMAP
E0C0C0C0C0C0
E00000000000
E00000000000
E0C0C0C0C060
E00000000000
E00000000000
E0C0C0C0C0C0
ENDCHAR
STARTCHAR  0396
ENCODING  918
SWIDTH  1000 0
DWIDTH  10 0
BBX  7 7 2 0
BITMAP
A0C0C0C0C0E060
0000000030E020
00000030C02000
000030C0100000
0030C010000000
40C01000000000
F0E0C0C0C0C0A0
ENDCHAR
STARTCHAR  0397
ENCODING  919
SWIDTH  1000 0
DWIDTH  11 0
BBX  7 7 2 0
BITMAP
E00000000000E0
E00000000000E0
E00000000000E0
E0C0C0C0C0C0E0
E00000000000E0
E00000000000E0
E00000000000E0
ENDCHAR
STARTCHAR  0398
ENCODING  920
SWIDTH  1000 0
DWIDTH  9 0
BBX  7 7 1 0
BITMAP
40C0C0C0C0C040
E03000000030E0
E00000000000E0
E030C0C0C020E0
E00000000000E0
E02000000020E0
40C0C0C0C0E040
ENDCHAR
STARTCHAR  0399
ENCODING  921
SWIDTH  1000 0
DWIDTH  10 0
BBX  1 7 5 0
BITMAP
E0
E0
E0
E0
E0
E0
E0
ENDCHAR
STARTCHAR  039A
ENCODING  922
SWIDTH  1000 0
DWIDTH  10 0
BBX  7 7 2 0
BITMAP
E000000000A060
E000000060A000
E0000040E01000
E0C0C0FF400000
E0000030E01000
E000000060A000
E000000000A080
ENDCHAR
STARTCHAR  039B
ENCODING  923
SWIDTH  1000 0
DWIDTH  10 0
BBX  8 7 1 0
BITMAP
0000A0C0C0A00000
0000E00000E01000
0040A00000A06000
00A040000040A000
10E000000000E010
60A000000000A060
A0400000000040A0
ENDCHAR
STARTCHAR  039C
ENCODING  924
SWIDTH  1000 0
DWIDTH  10 0
BBX  8 7 1 0
BITMAP
E0A000000000A0E0
E0A030000030A0E0
E010C00000C010E0
E0006080606000E0
E00000C0C00000E0
E0000010100000E0
E0000000000000E0
ENDCHAR
STARTCHAR  039D
ENCODING  925
SWIDTH  1000 0
DWIDTH  9 0
BBX  7 7 1 0
BITMAP
E0A000000000E0
E08060000000E0
E000A0300000E0
E00010C01000E0
E0000030C000E0
E00000006080E0
E000000000A0E0
ENDCHAR
STARTCHAR  039E
ENCODING  926
SWIDTH  1000 0
DWIDTH  9 0
BBX  7 7 1 0
BITMAP
E0C0C0C0C0C0E0
E00000000000E0
60000000000060
00A0C0C0C0A000
30000000000030
E00000000000E0
E0C0C0C0C0C0A0
ENDCHAR
STARTCHAR  039F
ENCODING  927
SWIDTH  1000 0
DWIDTH  9 0
BBX  7 7 1 0
BITMAP
30C0C0C0C0C030
C04000000030E0
E00000000000E0
E00000000000E0
E00000000000E0
E02000000020E0
60E0C0C0C0E040
ENDCHAR
STARTCHAR  03A0
ENCODING  928
SWIDTH  1000 0
DWIDTH  11 0
BBX  9 7 1 0
BITMAP
30C0E0C0C0C0E0C030
0000E0000000E00000
0000E0000000E00000
0000E0000000E00000
0000E0000000E00000
0000E0000000E00000
0000E0000000E00000
ENDCHAR
STARTCHAR  03A1
ENCODING  929
SWIDTH  1000 0
DWIDTH  10 0
BBX  6 7 2 0
BITMAP
E0C0C0C0C060
E000000010E0
E000000010E0
E0C0C0C0C060
E00000000000
E00000000000
E00000000000
ENDCHAR
STARTCHAR  03A3
ENCODING  931
SWIDTH  1000 0
DWIDTH  10 0
BBX  7 7 2 0
BITMAP
E0E0C0C0C0C060
40C03000000000
0020C060000000
000000E0800000
0010A080000000
30C04000000000
F0E0C0C0C0C060
ENDCHAR
STARTCHAR  03A4
ENCODING  932
SWIDTH  1000 0
DWIDTH  9 0
BBX  7 7 1 0
BITMAP
C0C0C0E0C0C0C0
000000E0000000
000000E0000000
000000E0000000
000000E0000000
000000E0000000
000000E0000000
ENDCHAR
STARTCHAR  03A5
ENCODING  933
SWIDTH  1000 0
DWIDTH  9 0
BBX  7 7 1 0
BITMAP
80C0C060C0E080
E00010F01000E0
400000E0000040
000000E0000000
000000E0000000
000000E0000000
000000E0000000
ENDCHAR
STARTCHAR  03A6
ENCODING  934
SWIDTH  1000 0
DWIDTH  9 0
BBX  7 7 1 0
BITMAP
40C0C0F0C0C040
E02000E00030E0
E00000E00000E0
E00000E00000E0
E03000E00020E0
30C0C0F0C0C040
000000E0000000
ENDCHAR
STARTCHAR  03A7
ENCODING  935
SWIDTH  1000 0
DWIDTH  10 0
BBX  8 7 1 0
BITMAP
20E020000010E030
0040C01010C04000
000060A0C0600000
000000C0C0000000
000080A0A0800000
0060A00000C06000
40C010000010C040
ENDCHAR
STARTCHAR  03A8
ENCODING  936
SWIDTH  1000 0
DWIDTH  10 0
BBX  9 7 1 0
BITMAP
60C00000E00000C060
00E00000E00000E000
00E00000E00000E000
00E00000E00000E000
00E01000E00010E000
0060C0C0F0C0C06000
00000000E000000000
ENDCHAR
STARTCHAR  03A9
ENCODING  937
SWIDTH  1000 0
DWIDTH  11 0
BBX  7 7 2 0
BITMAP
30A0C0C0C0C040
E02000000010E0
E00000000000E0
E01000000010E0
60E0E000E0E060
0000E000E00000
C0C0E000E0C0C0
ENDCHAR
STARTCHAR  03B1
ENCODING  945
SWIDTH  1000 0
DWIDTH  10 0
BBX  7 5 2 0
BITMAP
60C0C0A0108040
E0100080A0E000
E0000010F04000
E0000040F08000
60C0A0C020E080
ENDCHAR
STARTCHAR  03B2
ENCODING  946
SWIDTH  1000 0
DWIDTH  11 0
BBX  6 9 3 -2
BITMAP
60E0C0C04000
E0100040C000
E0000030E000
E040C0E08000
E0000000E010
E0000000E010
E080C0E0A000
E00000000000
E00000000000
ENDCHAR
STARTCHAR  03B3
ENCODING  947
SWIDTH  1000 0
DWIDTH  9 0
BBX  7 7 1 -2
BITMAP
C0A0100010A0C0
0080A000A06000
0000A0A0A00000
000000E0000000
000000E0000000
000000E0000000
000000E0000000
ENDCHAR
STARTCHAR  03B4
ENCODING  948
SWIDTH  1000 0
DWIDTH  10 0
BBX  6 7 2 0
BITMAP
30C0C0E06000
80600000E000
20C0A0202000
40C060A0A000
E0100000C030
E0000000A030
80E0C0E0E010
ENDCHAR
STARTCHAR  03B5
ENCODING  949
SWIDTH  1000 0
DWIDTH  10 0
BBX  5 5 2 0
BITMAP
80C0C0C080
E0000000E0
80E0C0A000
E0000000A0
A0C0A0A0A0
ENDCHAR
STARTCHAR  03B6
ENCODING  950
SWIDTH  1000 0
DWIDTH  10 0
BBX  5 9 3 -2
BITMAP
A040000000
A0E0C0C060
E010000000
E000000000
E000000000
80C0C0C030
0000008080
00000060A0
40C0C0E030
ENDCHAR
STARTCHAR  03B7
ENCODING  951
SWIDTH  1000 0
DWIDTH  11 0
BBX  6 7 2 -2
BITMAP
C0A0C0C0C060
00E0100010E0
00E0000000E0
00E0000000E0
00E0000000E0
0000000000E0
0000000000E0
ENDCHAR
STARTCHAR  03B8
ENCODING  952
SWIDTH  1000 0
DWIDTH  9 0
BBX  5 7 2 0
BITMAP
60C0C0E060
E0100010E0
E0000000E0
E0C0C0C0E0
E0000000E0
E0000000E0
60E0C0E080
ENDCHAR
STARTCHAR  03B9
ENCODING  953
SWIDTH  1000 0
DWIDTH  10 0
BBX  5 5 4 0
BITMAP
E000000000
E000000000
E000000000
E000000000
80E0C0C000
ENDCHAR
STARTCHAR  03BA
ENCODING  954
SWIDTH  1000 0
DWIDTH  10 0
BBX  6 5 3 0
BITMAP
E0000060A000
E00040C00000
E0C0F0200000
E00040C00000
E0000060A000
ENDCHAR
STARTCHAR  03BB
ENCODING  955
SWIDTH  1000 0
DWIDTH  10 0
BBX  8 7 1 0
BITMAP
0060C0A000000000
000000A060000000
000000A0E0000000
000030C0C0400000
0000C04040C00000
0040C00000E03000
00E030000040E060
ENDCHAR
STARTCHAR  03BC
ENCODING  956
SWIDTH  1000 0
DWIDTH  10 0
BBX  6 7 3 -2
BITMAP
E0000000E000
E0000000E000
E0000000E000
E0000000E000
E0C0C0E0C0A0
E00000000000
E00000000000
ENDCHAR
STARTCHAR  03BD
ENCODING  957
SWIDTH  1000 0
DWIDTH  10 0
BBX  7 6 1 0
BITMAP
20E040000010C0
0030C000006080
0000E00000A030
0000A04010E000
00006080608000
000020F0E03000
ENDCHAR
STARTCHAR  03BE
ENCODING  958
SWIDTH  1000 0
DWIDTH  10 0
BBX  6 9 2 -2
BITMAP
30A000000000
20E0C0C0C040
608000000000
20E0C0C0C060
608000000000
20E0C0C0C030
0000000040A0
0000000040A0
00A0C0C0E040
ENDCHAR
STARTCHAR  03BF
ENCODING  959
SWIDTH  1000 0
DWIDTH  9 0
BBX  5 5 2 0
BITMAP
40C0C0C040
E0100010E0
E0000000E0
E0100010E0
60E0C0E060
ENDCHAR
STARTCHAR  03C0
ENCODING  960
SWIDTH  1000 0
DWIDTH  10 0
BBX  8 5 1 0
BITMAP
00C0E0C0C0E0C030
0000E00000E00000
0000E00000E00000
0000E00000E00000
00E0A00000A0E030
ENDCHAR
STARTCHAR  03C1
ENCODING  961
SWIDTH  1000 0
DWIDTH  10 0
BBX  5 7 3 -2
BITMAP
60E0C0C060
E0100010E0
E0000000E0
E0000000E0
E060C0C080
E000000000
E000000000
ENDCHAR
STARTCHAR  03C3
ENCODING  963
SWIDTH  1000 0
DWIDTH  10 0
BBX  6 5 2 0
BITMAP
40C0C0C0C060
E020C0C0A000
E0000000A040
E0000000A040
60E0C0C0C010
ENDCHAR
STARTCHAR  03C4
ENCODING  964
SWIDTH  1000 0
DWIDTH  10 0
BBX  6 5 2 0
BITMAP
30C0E0C0C060
0000E0000000
0000E0000000
0000E0000000
000080E0C040
ENDCHAR
STARTCHAR  03C5
ENCODING  965
SWIDTH  1000 0
DWIDTH  11 0
BBX  6 5 2 0
BITMAP
80A0000000C0
00E0000000E0
00E0000000E0
00E0000000E0
0080E0C0E080
ENDCHAR
STARTCHAR  03C6
ENCODING  966
SWIDTH  1000 0
DWIDTH  11 0
BBX  7 7 2 -2
BITMAP
80C04080C0C080
E00000E00000E0
E00000E00000E0
E00000E00000E0
60E0C0F0C0E080
000000E0000000
000000E0000000
ENDCHAR
STARTCHAR  03C7
ENCODING  967
SWIDTH  1000 0
DWIDTH  10 0
BBX  8 7 1 -2
BITMAP
20C080000040A000
0000C04010E02000
000030E0C0400000
000000C0C0000000
000060C0E0300000
0030E01040C00000
10E020000080C040
ENDCHAR
STARTCHAR  03C8
ENCODING  968
SWIDTH  1000 0
DWIDTH  11 0
BBX  9 7 1 -2
BITMAP
60C00000E00000C060
00E00000E00000E000
00E00000E00000E000
00E00000E00000E000
0080E0C0F0C0E08000
00000000E000000000
00000000E000000000
ENDCHAR
STARTCHAR  03C9
ENCODING  969
SWIDTH  1000 0
DWIDTH  9 0
BBX  7 5 1 0
BITMAP
60C0800080C060
E01000600010E0
E00000E00000E0
E00000E00000E0
80E0E080C0E0A0
ENDCHAR
STARTCHAR  0401
ENCODING  1025
SWIDTH  1000 0
DWIDTH  10 0
BBX  6 9 2 0
BITMAP
004060604000
000000000000
E0C0C0C0C0C0
E00000000000
E00000000000
E0C0C0C0C060
E00000000000
E00000000000
E0C0C0C0C0C0
ENDCHAR
STARTCHAR  0410
ENCODING  1040
SWIDTH  1000 0
DWIDTH  10 0
BBX  8 7 1 0
BITMAP
0000A0C0C0A00000
0000E00000E01000
0040800000806000
00A020000020A000
10E0C0C0C0C0E010
6080000000008060
A0400000000040A0
ENDCHAR
STARTCHAR  0411
ENCODING  1041
SWIDTH  1000 0
DWIDTH  9 0
BBX  6 7 2 0
BITMAP
E0C0C0C0A000
E00000000000
E00000000000
E0C0C0C08000
E0000000A010
E0000000A010
E0C0C0C0A000
ENDCHAR
STARTCHAR  0412
ENCODING  1042
SWIDTH  1000 0
DWIDTH  10 0
BBX  7 7 2 0
BITMAP
E0C0C0C0C0A010
E0000000008080
E0000000008080
E0C0C0C0C0F020
E00000000060A0
E00000000040A0
E0C0C0C0C0E040
ENDCHAR
STARTCHAR  0413
ENCODING  1043
SWIDTH  1000 0
DWIDTH  10 0
BBX  6 7 3 0
BITMAP
E0C0C0C0C040
E00000000000
E00000000000
E00000000000
E00000000000
E00000000000
E00000000000
ENDCHAR
STARTCHAR  0414
ENCODING  1044
SWIDTH  1000 0
DWIDTH  10 0
BBX  8 9 1 -2
BITMAP
00000030E0C0E000
000000A06000E000
000010E00000E000
000080800000E000
0000E0100000E000
0040A0000000E000
60E0E0C0C0C0F060
60600000000010A0
1010000000000010
ENDCHAR
STARTCHAR  0415
ENCODING  1045
SWIDTH  1000 0
DWIDTH  10 0
BBX  6 7 2 0
BITMAP
E0C0C0C0C0C0
E00000000000
E00000000000
E0C0C0C0C060
E00000000000
E00000000000
E0C0C0C0C0C0
ENDCHAR
STARTCHAR  0416
ENCODING  1046
SWIDTH  1000 0
DWIDTH  10 0
BBX  9 7 0 0
BITMAP
80C01000C00010C060
00806000E000608000
0020C000E000C02000
0000E0C0F0C0E00000
0030C000E000C02000
00806000E000608000
80E01000E00010E080
ENDCHAR
STARTCHAR  0417
ENCODING  1047
SWIDTH  1000 0
DWIDTH  10 0
BBX  7 7 2 0
BITMAP
40C0C0C0C03000
E020000040C000
6000000040A000
0010C0C0F06000
6000000010E000
E000000000E000
80E0C0C0E08000
ENDCHAR
STARTCHAR  0418
ENCODING  1048
SWIDTH  1000 0
DWIDTH  10 0
BBX  6 7 2 0
BITMAP
E000000060F0
E0000020C0E0
E00000C030E0
E000806000E0
E030C00000E0
E0C0200000E0
F060000000E0
ENDCHAR
STARTCHAR  0419
ENCODING  1049
SWIDTH  1000 0
DWIDTH  10 0
BBX  6 8 2 0
BITMAP
0080C0C08000
E000000060F0
E0000020C0E0
E00000C030E0
E000806000E0
E030C00000E0
E0C0200000E0
F060000000E0
ENDCHAR
STARTCHAR  041A
ENCODING  1050
SWIDTH  1000 0
DWIDTH  10 0
BBX  7 7 2 0
BITMAP
C000000080E020
E0000030E01000
E00000E0300000
E0C0E0A0000000
E00010E0200000
E0000040C00000
E0000000A0E030
ENDCHAR
STARTCHAR  041B
ENCODING  1051
SWIDTH  1000 0
DWIDTH  10 0
BBX  8 7 1 0
BITMAP
000000A080000000
000010E0E0100000
0000806080600000
0000E01010E00000
0040A00000A04000
00C040000020C000
80C000000000C030
ENDCHAR
STARTCHAR  041C
ENCODING  1052
SWIDTH  1000 0
DWIDTH  10 0
BBX  8 7 1 0
BITMAP
E0A000000000A0E0
E0A030000030A0E0
E010C00000C010E0
E0006080606000E0
E00000C0C00000E0
E0000010100000E0
E0000000000000E0
ENDCHAR
STARTCHAR  041D
ENCODING  1053
SWIDTH  1000 0
DWIDTH  11 0
BBX  7 7 2 0
BITMAP
E00000000000E0
E00000000000E0
E00000000000E0
E0C0C0C0C0C0E0
E00000000000E0
E00000000000E0
E00000000000E0
ENDCHAR
STARTCHAR  041E
ENCODING  1054
SWIDTH  1000 0
DWIDTH  9 0
BBX  7 7 1 0
BITMAP
30C0C0C0C0C030
C04000000030E0
E00000000000E0
E00000000000E0
E00000000000E0
E02000000020E0
60E0C0C0C0E040
ENDCHAR
STARTCHAR  041F
ENCODING  1055
SWIDTH  1000 0
DWIDTH  10 0
BBX  6 7 2 0
BITMAP
E0C0C0C0C0E0
E000000000E0
E000000000E0
E000000000E0
E000000000E0
E000000000E0
E000000000E0
ENDCHAR
STARTCHAR  0420
ENCODING  1056
SWIDTH  1000 0
DWIDTH  10 0
BBX  6 7 2 0
BITMAP
E0C0C0C0C060
E000000010E0
E000000010E0
E0C0C0C0C060
E00000000000
E00000000000
E00000000000
ENDCHAR
STARTCHAR  0421
ENCODING  1057
SWIDTH  1000 0
DWIDTH  11 0
BBX  7 7 2 0
BITMAP
20A0C0C0C0C030
C04000000030E0
E00000000000C0
E0000000000000
E00000000000C0
C03000000020E0
30C0C0C0C0C040
ENDCHAR
STARTCHAR  0422
ENCODING  1058
SWIDTH  1000 0
DWIDTH  9 0
BBX  7 7 1 0
BITMAP
C0C0C0E0C0C0C0
000000E0000000
000000E0000000
000000E0000000
000000E0000000
000000E0000000
000000E0000000
ENDCHAR
STARTCHAR  0423
ENCODING  1059
SWIDTH  1000 0
DWIDTH  10 0
BBX  8 7 1 0
BITMAP
00E010000010E000
0060800000806000
0000E01020E00000
00006080A0600000
000000E0E0000000
000000A060000000
00A0C0A000000000
ENDCHAR
STARTCHAR  0424
ENCODING  1060
SWIDTH  1000 0
DWIDTH  10 0
BBX  7 7 1 0
BITMAP
30C0C0F0C0C030
C04000E00030C0
E00000E00000E0
E00000E00000E0
C03000E00040E0
30C0C0F0C0C030
000000E0000000
ENDCHAR
STARTCHAR  0425
ENCODING  1061
SWIDTH  1000 0
DWIDTH  10 0
BBX  8 7 1 0
BITMAP
20E020000010E030
0040C01010C04000
000060A0C0600000
000000C0C0000000
000080A0A0800000
0060A00000C06000
40C010000010C040
ENDCHAR
STARTCHAR  0426
ENCODING  1062
SWIDTH  1000 0
DWIDTH  10 0
BBX  7 8 2 -1
BITMAP
E000000000E000
E000000000E000
E000000000E000
E000000000E000
E000000000E000
E000000000E000
E0C0C0C0C0F030
000000000060A0
ENDCHAR
STARTCHAR  0427
ENCODING  1063
SWIDTH  1000 0
DWIDTH  10 0
BBX  6 7 2 0
BITMAP
E000000000E0
E000000000E0
E000000000E0
E010000000E0
40C0C0C0C0E0
0000000000E0
0000000000E0
ENDCHAR
STARTCHAR  0428
ENCODING  1064
SWIDTH  1000 0
DWIDTH  9 0
BBX  7 7 1 0
BITMAP
E00000E00000E0
E00000E00000E0
E00000E00000E0
E00000E00000E0
E00000E00000E0
E00000E00000E0
E0C0C0F0C0C0E0
ENDCHAR
STARTCHAR  0429
ENCODING  1065
SWIDTH  1000 0
DWIDTH  10 0
BBX  9 8 1 -1
BITMAP
E00000E00000E00000
E00000E00000E00000
E00000E00000E00000
E00000E00000E00000
E00000E00000E00000
E00000E00000E00000
E0C0C0F0C0C0F06000
00000000000040FF10
ENDCHAR
STARTCHAR  042A
ENCODING  1066
SWIDTH  1000 0
DWIDTH  10 0
BBX  8 7 1 0
BITMAP
60C0E00000000000
0000E00000000000
0000E00000000000
0000E0C0C0C08000
0000E0000000A010
0000E0000000A010
0000E0C0C0C0A000
ENDCHAR
STARTCHAR  042B
ENCODING  1067
SWIDTH  1000 0
DWIDTH  11 0
BBX  7 7 2 0
BITMAP
E00000000000E0
E00000000000E0
E00000000000E0
E0C0C0E08000E0
E0000020FF20E0
E0000010FF30E0
E0C0C0E0A000E0
ENDCHAR
STARTCHAR  042C
ENCODING  1068
SWIDTH  1000 0
DWIDTH  9 0
BBX  6 7 2 0
BITMAP
E00000000000
E00000000000
E00000000000
E0C0C0C08000
E0000000A010
E0000000A010
E0C0C0C0A000
ENDCHAR
STARTCHAR  042D
ENCODING  1069
SWIDTH  1000 0
DWIDTH  10 0
BBX  7 7 1 0
BITMAP
0060C0C0C0C040
00E010000020E0
108000000000E0
000020C0C0C0E0
106000000000E0
10E000000010E0
0080C0C0C0E060
ENDCHAR
STARTCHAR  042E
ENCODING  1070
SWIDTH  1000 0
DWIDTH  10 0
BBX  8 7 1 0
BITMAP
C00030C0C0C0C040
E000E020000020E0
E000E000000000E0
E0C0E000000000E0
E000E000000000E0
E000E010000010E0
E00060E0C0C0C040
ENDCHAR
STARTCHAR  042F
ENCODING  1071
SWIDTH  1000 0
DWIDTH  10 0
BBX  7 7 1 0
BITMAP
10A0C0C0C0C0E0
60A000000000E0
60A000000000E0
10C0C0E0C0C0E0
000060A00000E0
0000E0200000E0
80E080000000E0
ENDCHAR
STARTCHAR  0430
ENCODING  1072
SWIDTH  1000 0
DWIDTH  10 0
BBX  7 5 1 0
BITMAP
10C0C0C0E06000
3060000010E000
10A0A0A0A0E000
6080000000E000
10E0C0C0C0E060
ENDCHAR
STARTCHAR  0431
ENCODING  1073
SWIDTH  1000 0
DWIDTH  10 0
BBX  5 8 2 0
BITMAP
0000000040
60E0C0C080
E010000000
E0C0C0E060
E0100010E0
E0000000E0
E0100010E0
60C0C0E060
ENDCHAR
STARTCHAR  0432
ENCODING  1074
SWIDTH  1000 0
DWIDTH  10 0
BBX  6 5 2 0
BITMAP
E0C0C0C08000
E0000000E000
E0C0C0E0C000
E0000000E010
E0C0C0C0C000
ENDCHAR
STARTCHAR  0433
ENCODING  1075
SWIDTH  1000 0
DWIDTH  10 0
BBX  5 5 3 0
BITMAP
E0C0C0C0A0
E000000000
E000000000
E000000000
E000000000
ENDCHAR
STARTCHAR  0434
ENCODING  1076
SWIDTH  1000 0
DWIDTH  10 0
BBX  7 7 1 -2
BITMAP
000000C0C0E000
000060A000E000
0000E02000E000
0060A00000E000
60F0E0C0C0F060
606000000040A0
10100000000010
ENDCHAR
STARTCHAR  0435
ENCODING  1077
SWIDTH  1000 0
DWIDTH  10 0
BBX  6 5 2 0
BITMAP
60C0C0C0A010
E00000006080
F0C0C0C0E080
E00000004060
80E0C0C0E020
ENDCHAR
STARTCHAR  0436
ENCODING  1078
SWIDTH  1000 0
DWIDTH  10 0
BBX  9 5 0 0
BITMAP
30C03000C00030E040
0030E000E000E03000
0000C0E0F0E0C00000
0030E000E000E03000
40E04000E00040E040
ENDCHAR
STARTCHAR  0437
ENCODING  1079
SWIDTH  1000 0
DWIDTH  10 0
BBX  6 5 2 0
BITMAP
20C0C0C0C020
608000008060
201060A0E030
806000006080
40E0C0C0E040
ENDCHAR
STARTCHAR  0438
ENCODING  1080
SWIDTH  1000 0
DWIDTH  9 0
BBX  5 5 2 0
BITMAP
E0000060F0
E00030A0E0
E010C010E0
E0A03000E0
F0600000E0
ENDCHAR
STARTCHAR  0439
ENCODING  1081
SWIDTH  1000 0
DWIDTH  9 0
BBX  5 8 2 0
BITMAP
0040003000
00A0C0A000
0000000000
E0000060F0
E00030A0E0
E010C010E0
E0A03000E0
F0600000E0
ENDCHAR
STARTCHAR  043A
ENCODING  1082
SWIDTH  1000 0
DWIDTH  10 0
BBX  6 5 3 0
BITMAP
C0000080C010
E00060A00000
E0C0F0100000
E00060A00000
E00000A0E020
ENDCHAR
STARTCHAR  043B
ENCODING  1083
SWIDTH  1000 0
DWIDTH  10 0
BBX  7 5 1 0
BITMAP
000000A0A00000
000020E0C02000
0000A06040A000
0010E00000E020
30E060000060A0
ENDCHAR
STARTCHAR  043C
ENCODING  1084
SWIDTH  1000 0
DWIDTH  11 0
BBX  7 5 2 0
BITMAP
F080000000A0F0
E0C0300040A0E0
E020E010E010E0
E00060E06000E0
E00000200000E0
ENDCHAR
STARTCHAR  043D
ENCODING  1085
SWIDTH  1000 0
DWIDTH  9 0
BBX  5 5 2 0
BITMAP
E0000000E0
E0000000E0
E0C0C0C0E0
E0000000E0
E0000000E0
ENDCHAR
STARTCHAR  043E
ENCODING  1086
SWIDTH  1000 0
DWIDTH  10 0
BBX  6 5 2 0
BITMAP
40C0C0C0C040
E020000020E0
E000000000E0
E010000010E0
60C0C0C0C060
ENDCHAR
STARTCHAR  043F
ENCODING  1087
SWIDTH  1000 0
DWIDTH  9 0
BBX  5 5 2 0
BITMAP
E0C0C0C0E0
E0000000E0
E0000000E0
E0000000E0
E0000000E0
ENDCHAR
STARTCHAR  0440
ENCODING  1088
SWIDTH  1000 0
DWIDTH  10 0
BBX  6 7 2 -2
BITMAP
E0C0C0C0E040
E000000010E0
E000000000E0
E000000010E0
E0C0C0C0C060
E00000000000
E00000000000
ENDCHAR
STARTCHAR  0441
ENCODING  1089
SWIDTH  1000 0
DWIDTH  10 0
BBX  6 5 2 0
BITMAP
40C0C0C0C020
E02000006080
E00000001030
E01000004080
60E0C0C0C020
ENDCHAR
STARTCHAR  0442
ENCODING  1090
SWIDTH  1000 0
DWIDTH  9 0
BBX  7 5 1 0
BITMAP
20C0C0E0C0C020
000000E0000000
000000E0000000
000000E0000000
000000E0000000
ENDCHAR
STARTCHAR  0443
ENCODING  1091
SWIDTH  1000 0
DWIDTH  10 0
BBX  6 7 2 -2
BITMAP
A040000040A0
30C00000C030
00C04030C000
0030C0A04000
0000C0C00000
0000A0400000
60C0A0000000
ENDCHAR
STARTCHAR  0444
ENCODING  1092
SWIDTH  1000 0
DWIDTH  11 0
BBX  7 9 2 -2
BITMAP
000000E0000000
000000E0000000
40C0C0F0C0C040
E01000E00020E0
E00000E00000E0
E01000E00010E0
60E0C0F0C0E060
000000E0000000
000000E0000000
ENDCHAR
STARTCHAR  0445
ENCODING  1093
SWIDTH  1000 0
DWIDTH  10 0
BBX  8 5 1 0
BITMAP
0060A00000C06000
000060A0A0600000
000000E0E0000000
0000A08060A00000
00A080000080A000
ENDCHAR
STARTCHAR  0446
ENCODING  1094
SWIDTH  1000 0
DWIDTH  10 0
BBX  6 6 2 -1
BITMAP
E0000000E000
E0000000E000
E0000000E000
E0000000E000
E0C0C0C0F040
0000000030A0
ENDCHAR
STARTCHAR  0447
ENCODING  1095
SWIDTH  1000 0
DWIDTH  11 0
BBX  5 5 3 0
BITMAP
E0000000E0
E0000000E0
80C0C0C0E0
00000000E0
00000000E0
ENDCHAR
STARTCHAR  0448
ENCODING  1096
SWIDTH  1000 0
DWIDTH  11 0
BBX  7 6 2 0
BITMAP
60000060000060
E00000E00000E0
E00000E00000E0
E00000E00000E0
E00000E00000E0
E0C0C0F0C0C0E0
ENDCHAR
STARTCHAR  0449
ENCODING  1097
SWIDTH  1000 0
DWIDTH  10 0
BBX  8 7 1 -1
BITMAP
6000006000006000
E00000E00000E000
E00000E00000E000
E00000E00000E000
E00000E00000E000
E0C0C0F0C0C0F000
0000000000006010
ENDCHAR
STARTCHAR  044A
ENCODING  1098
SWIDTH  1000 0
DWIDTH  10 0
BBX  7 5 1 0
BITMAP
20C0E000000000
0000E0C0C0E060
0000E0000020E0
0000E0000010E0
0000E0C0C0E060
ENDCHAR
STARTCHAR  044B
ENCODING  1099
SWIDTH  1000 0
DWIDTH  11 0
BBX  7 5 2 0
BITMAP
E00000000000E0
E0C0C0C02000E0
E00000608000E0
E00000608000E0
E0C0C0E03000E0
ENDCHAR
STARTCHAR  044C
ENCODING  1100
SWIDTH  1000 0
DWIDTH  10 0
BBX  5 5 3 0
BITMAP
E000000000
E0C0C0C060
E0000010E0
E0000000E0
E0A0A0C080
ENDCHAR
STARTCHAR  044D
ENCODING  1101
SWIDTH  1000 0
DWIDTH  10 0
BBX  6 5 2 0
BITMAP
60C0C0C06000
C0200000E000
40008080E000
E0100000E000
60E0C0E08000
ENDCHAR
STARTCHAR  044E
ENCODING  1102
SWIDTH  1000 0
DWIDTH  9 0
BBX  7 5 1 0
BITMAP
C00040E0C0C060
E000C0200010E0
E0C0F0100000E0
E000C0200000E0
E00060E0C0E080
ENDCHAR
STARTCHAR  044F
ENCODING  1103
SWIDTH  1000 0
DWIDTH  10 0
BBX  6 5 1 0
BITMAP
0080E0C0C0E0
00E0000000E0
0060E0E0C0E0
0000A04000E0
30C0A00000E0
ENDCHAR
STARTCHAR  0451
ENCODING  1105
SWIDTH  1000 0
DWIDTH  10 0
BBX  6 7 2 0
BITMAP
006040A01000
000000000000
60C0C0C0A010
E00000006080
F0C0C0C0E080
E00000004060
80E0C0C0E020
ENDCHAR
STARTCHAR  2014
ENCODING  8212
SWIDTH  1000 0
DWIDTH  10 0
BBX  12 1 -1 3
BITMAP
10C0C0C0C0C0C0C0C0C0C010
ENDCHAR
STARTCHAR  2016
ENCODING  8214
SWIDTH  1000 0
DWIDTH  10 0
BBX  2 9 4 -1
BITMAP
E0E0
E0E0
E0E0
E0E0
E0E0
E0E0
E0E0
E0E0
E0E0
ENDCHAR
STARTCHAR  2018
ENCODING  8216
SWIDTH  1000 0
DWIDTH  10 0
BBX  2 3 7 6
BITMAP
4000
6000
A000
ENDCHAR
STARTCHAR  2019
ENCODING  8217
SWIDTH  1000 0
DWIDTH  10 0
BBX  2 3 1 5
BITMAP
00A0
0060
0020
ENDCHAR
STARTCHAR  201C
ENCODING  8220
SWIDTH  1000 0
DWIDTH  10 0
BBX  4 3 6 6
BITMAP
60204000
80006000
A000A000
ENDCHAR
STARTCHAR  201D
ENCODING  8221
SWIDTH  1000 0
DWIDTH  10 0
BBX  4 3 0 5
BITMAP
00A000A0
00600080
00201020
ENDCHAR
STARTCHAR  2026
ENCODING  8230
SWIDTH  1000 0
DWIDTH  10 0
BBX  8 1 1 3
BITMAP
A0200060600020A0
ENDCHAR
STARTCHAR  2030
ENCODING  8240
SWIDTH  1000 0
DWIDTH  10 0
BBX  8 8 1 0
BITMAP
A0A0002010000000
E0E0003000000000
E0E0102000000000
A0A0300000000000
000030A08080A080
002010E0E0E000E0
003000E0E0E000E0
102000C0C0A0E0A0
ENDCHAR
STARTCHAR  2032
ENCODING  8242
SWIDTH  1000 0
DWIDTH  10 0
BBX  2 3 2 5
BITMAP
1080
8030
4000
ENDCHAR
STARTCHAR  2033
ENCODING  8243
SWIDTH  1000 0
DWIDTH  10 0
BBX  4 4 1 5
BITMAP
00000000
00A02040
6030A030
20104000
ENDCHAR
STARTCHAR  203B
ENCODING  8251
SWIDTH  1000 0
DWIDTH  10 0
BBX  8 8 1 -1
BITMAP
6030006060003060
0080400000408000
0000804040800000
804000C0C0004080
0000806040800000
0080600000408000
6060006060004060
0000000000000000
ENDCHAR
STARTCHAR  2103
ENCODING  8451
SWIDTH  1000 0
DWIDTH  10 0
BBX  9 8 1 0
BITMAP
A0C080000000000000
A0C0A0A0E0E0A04000
0000A060000030E000
0000E0100000008000
0000E0000000000000
0000E000000000A000
0000C040000020E000
000030C0E0E0E04000
ENDCHAR
STARTCHAR  2116
ENCODING  8470
SWIDTH  1000 0
DWIDTH  10 0
BBX  9 9 1 -1
BITMAP
300000300000000000
E02000E00000000000
E08000E00000000000
E0C010E060E0E06000
E06060E0C01010C000
E000C0E0E00000E000
E00080F0C01010C000
E00010E060E0E060FF
000000000000000000
ENDCHAR
STARTCHAR  2160
ENCODING  8544
SWIDTH  1000 0
DWIDTH  9 0
BBX  1 7 4 0
BITMAP
E0
E0
E0
E0
E0
E0
E0
ENDCHAR
STARTCHAR  2161
ENCODING  8545
SWIDTH  1000 0
DWIDTH  11 0
BBX  5 7 3 0
BITMAP
E0000000E0
E0000000E0
E0000000E0
E0000000E0
E0000000E0
E0000000E0
E0000000E0
ENDCHAR
STARTCHAR  2162
ENCODING  8546
SWIDTH  1000 0
DWIDTH  9 0
BBX  7 7 1 0
BITMAP
E00000E00000E0
E00000E00000E0
E00000E00000E0
E00000E00000E0
E00000E00000E0
E00000E00000E0
E00000E00000E0
ENDCHAR
STARTCHAR  2163
ENCODING  8547
SWIDTH  1000 0
DWIDTH  10 0
BBX  8 7 1 0
BITMAP
E020C000000040A0
E000E0100000A040
E00080600000E010
E00040A00030C000
E00000E000806000
E00000A040C02000
E0000060E0E00000
ENDCHAR
STARTCHAR  2164
ENCODING  8548
SWIDTH  1000 0
DWIDTH  10 0
BBX  8 7 1 0
BITMAP
20C000000000C020
00C010000010E000
0080600000608000
0030C00000C03000
0000E01010E00000
0000806060800000
000040E0E0400000
ENDCHAR
STARTCHAR  2165
ENCODING  8549
SWIDTH  1000 0
DWIDTH  10 0
BBX  8 7 1 0
BITMAP
A040000000C020E0
40A0000010E000E0
10E00000608000E0
00C03000A04000E0
00608000E00000E0
0020C040A00000E0
0000E0E0600000E0
ENDCHAR
STARTCHAR  2166
ENCODING  8550
SWIDTH  1000 0
DWIDTH  10 0
BBX  9 7 0 0
BITMAP
10C000008060E000E0
00E00000A030E000E0
00A03000E000E000E0
00806010C000E000E0
0040A040A000E000E0
0010E0806000E000E0
0000E0E03000E000E0
ENDCHAR
STARTCHAR  2167
ENCODING  8551
SWIDTH  1000 0
DWIDTH  11 0
BBX  10 7 0 0
BITMAP
30A00030A0E000E000E0
00C0006080E000E000E0
00E0008040E000E000E0
00C010A020E000E000E0
00A040E000E000E000E0
006060E000E000E000E0
0040E0C000E000E000E0
ENDCHAR
STARTCHAR  2168
ENCODING  8552
SWIDTH  1000 0
DWIDTH  10 0
BBX  8 7 1 0
BITMAP
E010E0300000A060
E00030E01060A000
E0000060A0E01000
E0000000F0600000
E0000080A0E01000
E00040C00040C000
E010E0200000A080
ENDCHAR
STARTCHAR  2169
ENCODING  8553
SWIDTH  1000 0
DWIDTH  10 0
BBX  8 7 1 0
BITMAP
00A060000060A000
0010E02020E01000
000030E0E0300000
000000C0C0000000
000060C0C0600000
0020E01010E02000
00C040000030C000
ENDCHAR
STARTCHAR  216A
ENCODING  8554
SWIDTH  1000 0
DWIDTH  10 0
BBX  8 7 1 0
BITMAP
30E0000010E020E0
00808000C04000E0
0000C0A0A00000E0
000040FF200000E0
0000E080A00000E0
00808000A06000E0
40C0000010E020E0
ENDCHAR
STARTCHAR  216B
ENCODING  8555
SWIDTH  1000 0
DWIDTH  10 0
BBX  9 7 0 0
BITMAP
00C02000C030E000E0
0040A040A000E000E0
0000C0E02000E000E0
000060E00000E000E0
0000E0C04000E000E0
00608030C000E000E0
00E01000A040E000E0
ENDCHAR
STARTCHAR  2170
ENCODING  8560
SWIDTH  1000 0
DWIDTH  9 0
BBX  1 8 4 0
BITMAP
A0
00
E0
E0
E0
E0
E0
E0
ENDCHAR
STARTCHAR  2171
ENCODING  8561
SWIDTH  1000 0
DWIDTH  9 0
BBX  3 8 3 0
BITMAP
A000A0
000000
E000E0
E000E0
E000E0
E000E0
E000E0
E000E0
ENDCHAR
STARTCHAR  2172
ENCODING  8562
SWIDTH  1000 0
DWIDTH  9 0
BBX  5 8 2 0
BITMAP
A000A000A0
0000000000
E000E000E0
E000E000E0
E000E000E0
E000E000E0
E000E000E0
E000E000E0
ENDCHAR
STARTCHAR  2173
ENCODING  8563
SWIDTH  1000 0
DWIDTH  10 0
BBX  7 8 2 0
BITMAP
A0000000000000
00000000000000
E0A0600000C060
E060C00010E000
E000E01060A000
E000A040A04000
E00040A0E00000
E00000E0800000
ENDCHAR
STARTCHAR  2174
ENCODING  8564
SWIDTH  1000 0
DWIDTH  10 0
BBX  8 6 1 0
BITMAP
10F060000040F000
0080A00000A08000
0020F01010F02000
0000C06060A00000
000040C0C0300000
000000E0C0000000
ENDCHAR
STARTCHAR  2175
ENCODING  8565
SWIDTH  1000 0
DWIDTH  10 0
BBX  7 8 1 0
BITMAP
000000000000A0
00000000000000
80A0000060A0E0
20F00000C040E0
00E03010E000E0
006080608000E0
0010E0A02000E0
0000A0C00000E0
ENDCHAR
STARTCHAR  2176
ENCODING  8566
SWIDTH  1000 0
DWIDTH  10 0
BBX  8 8 1 0
BITMAP
000000000000A0A0
0000000000000000
40C0000060A0E0E0
00F01000C040E0E0
00A06010E000E0E0
0040A0608000E0E0
0000E0A03000E0E0
0000A0C00000E0E0
ENDCHAR
STARTCHAR  2177
ENCODING  8567
SWIDTH  1000 0
DWIDTH  10 0
BBX  8 8 1 0
BITMAP
0000000000A0A0A0
0000000000000000
E0300040A0E0E0E0
8080008060E0E0E0
30C000E010E0E0E0
00E020A000E0E0E0
0080A06000E0E0E0
0040F01000E0E0E0
ENDCHAR
STARTCHAR  2178
ENCODING  8568
SWIDTH  1000 0
DWIDTH  9 0
BBX  7 8 1 0
BITMAP
A0000000000000
00000000000000
E040F01000E060
E000A0A080A000
E00010E0E01000
E00010E0F02000
E000A08080C000
E060E01000E060
ENDCHAR
STARTCHAR  2179
ENCODING  8569
SWIDTH  1000 0
DWIDTH  10 0
BBX  8 6 1 0
BITMAP
00A0E01000C0A000
0010E0A080E01000
000020F0F0200000
000030F0F0300000
0010E06080E01000
00C0A00000C0C000
ENDCHAR
STARTCHAR  2190
ENCODING  8592
SWIDTH  1000 0
DWIDTH  10 0
BBX  11 3 0 2
BITMAP
0060300000000000000000
80FFE0C0C0C0C0C0C0C000
0030200000000000000000
ENDCHAR
STARTCHAR  2191
ENCODING  8593
SWIDTH  1000 0
DWIDTH  10 0
BBX  3 11 4 -2
BITMAP
006000
40F020
40E030
00C000
00C000
00C000
00C000
00C000
00C000
00C000
002000
ENDCHAR
STARTCHAR  2192
ENCODING  8594
SWIDTH  1000 0
DWIDTH  10 0
BBX  11 3 -1 2
BITMAP
0000000000000000306000
10C0C0C0C0C0C0C0E0FF80
0000000000000000203000
ENDCHAR
STARTCHAR  2193
ENCODING  8595
SWIDTH  1000 0
DWIDTH  10 0
BBX  3 11 4 -2
BITMAP
00A000
00C000
00C000
00C000
00C000
00C000
00C000
10C010
80FF40
10A000
000000
ENDCHAR
STARTCHAR  2208
ENCODING  8712
SWIDTH  1000 0
DWIDTH  10 0
BBX  8 7 1 0
BITMAP
0060C0C0C0C0C060
6080000000000000
C000000000000000
F0C0C0C0C0C0C060
C010000000000000
40C0300000000000
0030A0C0C0C0C060
ENDCHAR
STARTCHAR  220F
ENCODING  8719
SWIDTH  1000 0
DWIDTH  10 0
BBX  8 8 1 0
BITMAP
E0E0E0E0E0E0E060
00E0000000E00000
00E0000000E00000
00E0000000E00000
00E0000000E00000
00E0000000E00000
00E0000000E00000
00C0000000C00000
ENDCHAR
STARTCHAR  2211
ENCODING  8721
SWIDTH  1000 0
DWIDTH  10 0
BBX  7 8 2 0
BITMAP
E0E0E0E0E0E060
80C01000000000
0060E020000000
000040E0300000
000020E0600000
0030E030000000
40E02000000000
F0E0E0E0E0E060
ENDCHAR
STARTCHAR  221A
ENCODING  8730
SWIDTH  1000 0
DWIDTH  10 0
BBX  9 8 0 -1
BITMAP
00000010E0C0C0C0A0
000000604000000000
000000A01000000000
000000A00000000000
000030800000000000
00A080300000000000
0020C0000000000000
000000000000000000
ENDCHAR
STARTCHAR  221D
ENCODING  8733
SWIDTH  1000 0
DWIDTH  10 0
BBX  9 4 1 2
BITMAP
000000000000000000
80C0C0601080C0C080
E01030E0C0A0200010
40C080200030A0C060
ENDCHAR
STARTCHAR  221E
ENCODING  8734
SWIDTH  1000 0
DWIDTH  10 0
BBX  10 4 0 2
BITMAP
00000000000000000000
0080E0C0601080C0E060
00E01040E0E0A02020C0
0060C080200040A0A030
ENDCHAR
STARTCHAR  2220
ENCODING  8736
SWIDTH  1000 0
DWIDTH  10 0
BBX  8 7 1 1
BITMAP
0000000000000000
000000000030C000
0000000030E02000
00000020C0200000
000020C020000000
0020C02000000000
20E0E0E0E0E0A000
ENDCHAR
STARTCHAR  2225
ENCODING  8741
SWIDTH  1000 0
DWIDTH  10 0
BBX  6 11 2 -2
BITMAP
000000401020
000000602040
000010606000
000060106000
000060403000
002060600000
006010600000
006060200000
304060000000
401060000000
001000000000
ENDCHAR
STARTCHAR  2227
ENCODING  8743
SWIDTH  1000 0
DWIDTH  10 0
BBX  8 8 1 0
BITMAP
0000001010000000
0000008060000000
000000A0A0000000
0000606060400000
0000A00010A00000
0040800000803000
00A010000010A000
1080000000008010
ENDCHAR
STARTCHAR  2228
ENCODING  8744
SWIDTH  1000 0
DWIDTH  10 0
BBX  8 8 1 0
BITMAP
1040000000006010
00A000000010A000
0060600000604000
0000A00000A00000
0000803040600000
000010A0A0000000
000000A080000000
0000003010000000
ENDCHAR
STARTCHAR  2229
ENCODING  8745
SWIDTH  1000 0
DWIDTH  10 0
BBX  7 8 2 0
BITMAP
0030A0C0802000
40C0300040E020
C01000000040A0
E00000000000C0
C00000000000C0
C00000000000C0
C00000000000C0
A00000000000A0
ENDCHAR
STARTCHAR  222A
ENCODING  8746
SWIDTH  1000 0
DWIDTH  10 0
BBX  7 8 2 0
BITMAP
80000000000080
E00000000000C0
E00000000000C0
E00000000000C0
C00000000000C0
C00000000030A0
60A0100020C030
0040C0C0C03000
ENDCHAR
STARTCHAR  222B
ENCODING  8747
SWIDTH  1000 0
DWIDTH  10 0
BBX  6 8 2 0
BITMAP
00000080A000
000000C02000
000020A00000
000040800000
000060600000
0000A0300000
0000C0100000
00E0A0000000
ENDCHAR
STARTCHAR  222E
ENCODING  8750
SWIDTH  1000 0
DWIDTH  10 0
BBX  6 8 2 0
BITMAP
00000080C020
000000C02000
000080C00000
00A0A0C0A000
00A08080A000
0020E0A02000
0000C0100000
20E0A0000000
ENDCHAR
STARTCHAR  2234
ENCODING  8756
SWIDTH  1000 0
DWIDTH  10 0
BBX  7 7 2 0
BITMAP
000060E0000000
00002060000000
00000000000000
00000000000000
00000000000000
E060000000E060
60200000006020
ENDCHAR
STARTCHAR  2235
ENCODING  8757
SWIDTH  1000 0
DWIDTH  10 0
BBX  7 7 2 0
BITMAP
E060000000E060
60200000006020
00000000000000
00000000000000
00000000000000
000060E0000000
00002060000000
ENDCHAR
STARTCHAR  2236
ENCODING  8758
SWIDTH  1000 0
DWIDTH  10 0
BBX  1 6 5 1
BITMAP
FF
00
00
00
00
FF
ENDCHAR
STARTCHAR  2237
ENCODING  8759
SWIDTH  1000 0
DWIDTH  10 0
BBX  6 6 2 1
BITMAP
E060000060E0
602000002060
000000000000
000000000000
602000002060
E060000060E0
ENDCHAR
STARTCHAR  223D
ENCODING  8765
SWIDTH  1000 0
DWIDTH  10 0
BBX  10 2 0 3
BITMAP
0060000020A0C0C04000
0080E0E0C04000208000
ENDCHAR
STARTCHAR  2248
ENCODING  8776
SWIDTH  1000 0
DWIDTH  10 0
BBX  10 4 0 2
BITMAP
0030A0C0801000004000
00C0301060C0C0C08000
0060C0C0A0400020A000
006000002080C0A04000
ENDCHAR
STARTCHAR  224C
ENCODING  8780
SWIDTH  1000 0
DWIDTH  10 0
BBX  8 4 1 2
BITMAP
00A0C0C0C0C0C060
0000000000000000
00C0C0C0C0C0C0A0
00C0C0C0C0C0C0A0
ENDCHAR
STARTCHAR  2260
ENCODING  8800
SWIDTH  1000 0
DWIDTH  10 0
BBX  7 7 2 0
BITMAP
00000000800000
00000020800000
C0C0C0E0C0C0A0
000000A0000000
C0C0E0E0C0C0A0
0000A010000000
00008000000000
ENDCHAR
STARTCHAR  2261
ENCODING  8801
SWIDTH  1000 0
DWIDTH  10 0
BBX  7 4 2 2
BITMAP
C0C0C0C0C0C0A0
00000000000000
C0C0C0C0C0C0A0
C0C0C0C0C0C0A0
ENDCHAR
STARTCHAR  2264
ENCODING  8804
SWIDTH  1000 0
DWIDTH  10 0
BBX  9 7 0 1
BITMAP
000000000000000000
00000000003080A030
00004080A080300000
0040A0A06010000000
000000004080A08010
000000000000003020
00C0C0C0C0C0C0C040
ENDCHAR
STARTCHAR  2265
ENCODING  8805
SWIDTH  1000 0
DWIDTH  10 0
BBX  8 6 1 1
BITMAP
A040100000000000
1060A0A060200000
0000001080F08010
2060A0A060100000
8040000000000000
C0C0C0C0C0C0C040
ENDCHAR
STARTCHAR  226E
ENCODING  8814
SWIDTH  1000 0
DWIDTH  10 0
BBX  8 7 1 0
BITMAP
0000000000403000
0000000000A08060
00004080A0C03000
20C0E06060400000
00001060E0A06010
00000010A0004060
0000003030000000
ENDCHAR
STARTCHAR  226F
ENCODING  8815
SWIDTH  1000 0
DWIDTH  10 0
BBX  8 7 1 0
BITMAP
0000000080000000
4080404060000000
002060E0A0601000
000010A040C0E040
1040A0C080200000
4060C00000000000
0000600000000000
ENDCHAR
STARTCHAR  2299
ENCODING  8857
SWIDTH  1000 0
DWIDTH  10 0
BBX  8 8 1 0
BITMAP
001060C0C0600000
10C060101060C010
8060000000006080
C00000C0A00000C0
C00000E0C00000C0
A0300000000030A0
20C020000020C020
0020A0C0C0A02000
ENDCHAR
STARTCHAR  22A5
ENCODING  8869
SWIDTH  1000 0
DWIDTH  10 0
BBX  8 8 1 0
BITMAP
0000000030000000
00000000E0000000
00000000E0000000
00000000E0000000
00000000E0000000
00000000E0000000
00000000E0000000
30C0C0C0C0C0C030
ENDCHAR
STARTCHAR  2312
ENCODING  8978
SWIDTH  1000 0
DWIDTH  10 0
BBX  8 5 1 3
BITMAP
000060C0C0600000
10C060101060C000
8060000000006080
C0000000000000C0
3000000000000030
ENDCHAR
STARTCHAR  2460
ENCODING  9312
SWIDTH  1000 0
DWIDTH  9 0
BBX  9 9 0 -1
BITMAP
000060C0C0C0600000
00A080E0E01080A000
60800000E000008060
C0100000E0000010C0
E0000000E0000000E0
E0100000E0000010C0
60800000E000008060
00A08010401080A000
000060C0C0C0600000
ENDCHAR
STARTCHAR  2461
ENCODING  9313
SWIDTH  1000 0
DWIDTH  9 0
BBX  9 9 0 -1
BITMAP
000060C0C0C0600000
00A0F0E0C0E0C0A000
6080E0000020A08060
C01040001060A010C0
E00080C0A0801000E0
E010C00000000010C0
6080E0C0C0C0A08060
00A08010001080A000
000060C0C0C0600000
ENDCHAR
STARTCHAR  2462
ENCODING  9314
SWIDTH  1000 0
DWIDTH  9 0
BBX  9 9 0 -1
BITMAP
000060C0C0C0600000
00A0F0E0C0E0E0A000
6080E0100000808060
C01060000000A010C0
E0000060C0E08000E0
E010A0000000A010C0
608080C0A0A0808060
00A08010001080A000
000060C0C0C0600000
ENDCHAR
STARTCHAR  2463
ENCODING  9315
SWIDTH  1000 0
DWIDTH  9 0
BBX  9 9 0 -1
BITMAP
000060C0C0C0600000
00A08020E0F080A000
608000A040E0008060
C01040A000E00010C0
E010C01000E00000E0
E060E0C0C0F0A010C0
6080000000E0008060
00A08010004080A000
000060C0C0C0600000
ENDCHAR
STARTCHAR  2464
ENCODING  9316
SWIDTH  1000 0
DWIDTH  9 0
BBX  9 9 0 -1
BITMAP
000060C0C0C0600000
00A08010001080A000
6080E0C0C0C0808060
C010E0C0C0C04010C0
E000A0200020C000E0
E01060000000C010C0
6080E0100020C08060
00A0E0E0C0E0C0A000
000060C0C0C0600000
ENDCHAR
STARTCHAR  2465
ENCODING  9317
SWIDTH  1000 0
DWIDTH  9 0
BBX  9 9 0 -1
BITMAP
000060C0C0C0600000
00A0F0E0C0E0FFA000
6080E0000000808060
C010E0C0C0E08010C0
E000E0100010F010E0
E010E0100010F020C0
608040C0C0E0608060
00A08010001080A000
000060C0C0C0600000
ENDCHAR
STARTCHAR  2466
ENCODING  9318
SWIDTH  1000 0
DWIDTH  9 0
BBX  9 9 0 -1
BITMAP
000060C0C0C0600000
00A08010001080A000
608080C0C0C0A08060
C010000000608010C0
E000000000E01000E0
E010000060800010C0
60800000E010008060
00A08030401080A000
000060C0C0C0600000
ENDCHAR
STARTCHAR  2467
ENCODING  9319
SWIDTH  1000 0
DWIDTH  9 0
BBX  9 9 0 -1
BITMAP
000060C0C0C0600000
00A0F0FFC0C0E0A000
6080E0600000308060
C010E06000003010C0
E00080F0C0C06000E0
E010F04000004010C0
608080E0C0A0608060
00A08010001080A000
000060C0C0C0600000
ENDCHAR
STARTCHAR  2468
ENCODING  9320
SWIDTH  1000 0
DWIDTH  9 0
BBX  9 10 0 -1
BITMAP
000040C0C0C0400000
0080A0100010A08000
40A080E0C0E060A040
A030F0000010E030A0
E010F0100010E000E0
E00080E0C0C0E000E0
C030A0000010E030A0
40C060E0C0C060C040
0080A0100010A08000
000060C0C0C0600000
ENDCHAR
STARTCHAR  2469
ENCODING  9321
SWIDTH  1000 0
DWIDTH  9 0
BBX  9 9 0 -1
BITMAP
000060A0C0C0600000
0080E000A0E0FFFF00
6030E000E00000FF60
C000E000E00000F0C0
E000E000E00000E0E0
E020E000E00000F0C0
60A0C00080E0C0F060
00A0A010001080A000
000060C0C0C0600000
ENDCHAR
STARTCHAR  2474
ENCODING  9332
SWIDTH  1000 0
DWIDTH  9 0
BBX  9 9 0 -1
BITMAP
00A00000000020A000
408000C0E00000A030
A0300000E0000030A0
E0000000E0000000E0
E0000000E0000000E0
E0000000E0000000E0
A0300000E0000030A0
40800000A000008040
00A01000000010A000
ENDCHAR
STARTCHAR  2475
ENCODING  9333
SWIDTH  1000 0
DWIDTH  9 0
BBX  9 9 0 -1
BITMAP
00A01000000010A000
408060E0C0E0408030
A030E0100010C030A0
E00040001060C000E0
E00060C0C0802000E0
E000C00000000000E0
A030C0C0C0C0A030A0
408000000000008040
00A01000000010A000
ENDCHAR
STARTCHAR  2476
ENCODING  9334
SWIDTH  1000 0
DWIDTH  9 0
BBX  9 9 0 -1
BITMAP
00A01000000010A000
408080E0C0C0808030
A030E0100000A030A0
E00000000000A000E0
E0000060C0E08000E0
E000A0000000A010E0
A03080C0A0A08030A0
408000000000008040
00A01000000010A000
ENDCHAR
STARTCHAR  2477
ENCODING  9335
SWIDTH  1000 0
DWIDTH  9 0
BBX  9 10 0 -1
BITMAP
002010000000102000
00A00000000000A000
60600020E0E0006060
C01000C030E00010C0
E000608000E00000E0
E010E01000E00000E0
C060C0C0C0F0A010C0
6060000000E0006060
10A00000001000A010
002010000000102000
ENDCHAR
STARTCHAR  2478
ENCODING  9336
SWIDTH  1000 0
DWIDTH  9 0
BBX  9 9 0 -1
BITMAP
00A00000000010A000
408000000000008030
A030E0C0C0C0A030A0
E000E0C0C0C04000E0
E000F0300020E000E0
E00000000000E000E0
A030E0100010C030A0
408060C0C0C0408040
00A01000000010A000
ENDCHAR
STARTCHAR  2479
ENCODING  9337
SWIDTH  1000 0
DWIDTH  9 0
BBX  9 9 0 -1
BITMAP
00A01000000010A000
408060E0C0E0808030
A030E0000000C030A0
E000E0C0C0E08000E0
E000E0100000E020E0
E000E0100010E020E0
A03040C0C0E08030A0
408000000000008040
00A01000000010A000
ENDCHAR
STARTCHAR  247A
ENCODING  9338
SWIDTH  1000 0
DWIDTH  9 0
BBX  9 9 0 -1
BITMAP
00A01000000010A000
408000000000008030
A030A0C0C0C0C030A0
E00000000060A000E0
E000000000E02000E0
E000000040A00000E0
A0300000C0300030A0
40800030A000008040
00A01000000010A000
ENDCHAR
STARTCHAR  247B
ENCODING  9339
SWIDTH  1000 0
DWIDTH  9 0
BBX  9 9 0 -1
BITMAP
00A01000000010A000
408060F0C0C0608030
A030F06000004030A0
E000E06000004000E0
E00080F0C0C08000E0
E010FF4000004010E0
A03080E0C0A08030A0
408000000000008040
00A01000000010A000
ENDCHAR
STARTCHAR  247C
ENCODING  9340
SWIDTH  1000 0
DWIDTH  9 0
BBX  9 9 0 0
BITMAP
00A01000000010A000
408000000000008030
A03080E0C0E06030A0
E020E0000010E000E0
E010E0000010E000E0
E00080C0C0C0E000E0
A030C0000010E030A0
408080E0C0C0408040
00A01000000010A000
ENDCHAR
STARTCHAR  247D
ENCODING  9341
SWIDTH  1000 0
DWIDTH  9 0
BBX  9 9 0 -1
BITMAP
00A010000000008020
40C0E000A0E0E0E080
A030E000E00000E0C0
E000E000E00000E0E0
E000E000E00000E0E0
E000E000E00000E0E0
A030C00080E0C080C0
408000000000003080
00A010000000006030
ENDCHAR
STARTCHAR  247E
ENCODING  9342
SWIDTH  1000 0
DWIDTH  9 0
BBX  9 9 0 -1
BITMAP
00A030000000008000
30A0A0E00080E06040
A04000E00000E020A0
E00000E00000E000E0
E00000E00000E000E0
E00000E00000E000E0
A04000E00000E020A0
30A000A00000A06060
00A030000000008000
ENDCHAR
STARTCHAR  247F
ENCODING  9343
SWIDTH  1000 0
DWIDTH  9 0
BBX  9 10 0 -1
BITMAP
001000000000101000
00A00000000010A000
60A0E080E0C0A08060
C020E0E00000C030C0
E000E0400030E010E0
E000E060E0A03000E0
C010E0E010000010C0
6060C0C0C0C0C06060
10A00000000010C000
002010000000102000
ENDCHAR
STARTCHAR  2480
ENCODING  9344
SWIDTH  1000 0
DWIDTH  9 0
BBX  9 9 0 -1
BITMAP
00A01000000020A000
40C0E060E0C0A0A030
A030E0E01000E040A0
E000E0600000E010E0
E000E00080C0C000E0
E000E0A00000C020E0
A030C080C0C0A030A0
408000000000008040
00A01000000020A000
ENDCHAR
STARTCHAR  2481
ENCODING  9345
SWIDTH  1000 0
DWIDTH  9 0
BBX  9 10 0 -1
BITMAP
002010000000002000
00A00000000000A000
60A0E00000C0E06060
C010E0006080E010C0
E000E000C010E000E0
E000E0608000E000E0
C010E0A0C0C0F060C0
6060E0000000E04080
10A01000000010A010
002010000000002000
ENDCHAR
STARTCHAR  2482
ENCODING  9346
SWIDTH  1000 0
DWIDTH  9 0
BBX  9 10 0 -1
BITMAP
002010000000002000
00A000000000006040
60A0C0E0C0C0C0C080
A020E0E000000000C0
E000E0E0C0C0E080E0
E000E060100000E0E0
E010E0E0100010E0E0
A040C060C0C0C060C0
30A000000000004080
008010000000006010
ENDCHAR
STARTCHAR  2483
ENCODING  9347
SWIDTH  1000 0
DWIDTH  9 0
BBX  9 9 0 -1
BITMAP
00A010000000008020
40C0E060E0C0E0A080
A020E0E0000000E0C0
E000E0E0A0C0C060E0
E000E0E0100010E0E0
C010E0E0200010E0E0
8060C040C0C0C080A0
10A000000000006040
002010000000002000
ENDCHAR
STARTCHAR  2484
ENCODING  9348
SWIDTH  1000 0
DWIDTH  9 0
BBX  9 10 0 -1
BITMAP
001000000000101000
00A00000000010A000
60A0C060A0A0C0A040
C020E0000000E020A0
E000E0000040A000E0
E000E00000A03000E0
E010E00010E00010C0
8040E0006080006080
10A02000101000A010
003000000000103000
ENDCHAR
STARTCHAR  2485
ENCODING  9349
SWIDTH  1000 0
DWIDTH  9 0
BBX  9 9 0 -1
BITMAP
00A01000000010A000
40C0E020E0E0A08030
A030E080E0000060A0
E000E060E0001020E0
E000E030FFE0C010E0
E000E080E0000030E0
A030C030C0C0A040A0
408000000000008040
00A01000000010A000
ENDCHAR
STARTCHAR  2486
ENCODING  9350
SWIDTH  1000 0
DWIDTH  9 0
BBX  9 9 0 -1
BITMAP
00A010000000008020
40C0E060E0C0E0A080
A030E0E0000010E0C0
E000E0E0100000E0E0
E000E040C0A0A0E0E0
E000E0C0000010E0E0
A030C060C0C0E060C0
408000000000003080
00A010000000006030
ENDCHAR
STARTCHAR  2487
ENCODING  9351
SWIDTH  1000 0
DWIDTH  9 0
BBX  9 9 0 -1
BITMAP
30800000000000A010
80A0E0E080A0E0FF60
C0E01000E0E000FFA0
E0E00020C0E000E0E0
E030808010E000E0E0
E0E0100000E000E0E0
C0E0C0C0C0A0E0A0C0
804000000000006080
20800000000000A020
ENDCHAR
STARTCHAR  2488
ENCODING  9352
SWIDTH  1000 0
DWIDTH  9 0
BBX  6 7 2 0
BITMAP
60C0E0000000
0000E0000000
0000E0000000
0000E0000000
0000E0000000
0000E0000000
0000E0006060
ENDCHAR
STARTCHAR  2489
ENCODING  9353
SWIDTH  1000 0
DWIDTH  10 0
BBX  8 7 2 0
BITMAP
30C0C0C0E0600000
E020000020F00000
E000000000F00000
20003080A0600000
60A0602000000000
E000000000000000
E0C0C0C0C0C04080
ENDCHAR
STARTCHAR  248A
ENCODING  9354
SWIDTH  1000 0
DWIDTH  10 0
BBX  8 7 2 0
BITMAP
40C0C0C0C0400000
E020000020E00000
6000000010E00000
0040C0C0E0600000
4000000010E00000
E000000000E00000
60C0A0A0C0806060
ENDCHAR
STARTCHAR  248B
ENCODING  9355
SWIDTH  1000 0
DWIDTH  10 0
BBX  9 7 1 0
BITMAP
00000030E0E0000000
000010E020E0000000
0000A06000E0000000
0040A00000E0000000
10E0100000E0000000
60E0C0C0C0F0C00000
0000000000E0008030
ENDCHAR
STARTCHAR  248C
ENCODING  9356
SWIDTH  1000 0
DWIDTH  10 0
BBX  8 7 2 0
BITMAP
E0C0C0C0C0A00000
E000000000000000
E0A0C0C0C0400000
A040000020E00000
4000000000E01000
E010000010E00000
60E0C0C0E0606060
ENDCHAR
STARTCHAR  248D
ENCODING  9357
SWIDTH  1000 0
DWIDTH  10 0
BBX  8 7 2 0
BITMAP
40C0C0C0C0800000
C010000000C01000
E0A0E0C0E0600000
E030000020E00000
E000000000E02000
E010000010F01000
40C0A0A0E0804080
ENDCHAR
STARTCHAR  248E
ENCODING  9358
SWIDTH  1000 0
DWIDTH  10 0
BBX  8 7 1 0
BITMAP
10C0C0C0C0C0E000
000000000040A000
0000000000E02000
0000000060A00000
00000000E0200000
0000008080000000
000010E010004080
ENDCHAR
STARTCHAR  248F
ENCODING  9359
SWIDTH  1000 0
DWIDTH  10 0
BBX  8 7 2 0
BITMAP
40C0C0C0C0300000
E010000030C00000
E010000030C00000
60F0C0C0F0400000
E010000020C00000
E010000020E00000
60E0C0C0E0408040
ENDCHAR
STARTCHAR  2490
ENCODING  9360
SWIDTH  1000 0
DWIDTH  10 0
BBX  8 7 2 0
BITMAP
40C0C0C0C0300000
E010000020E00000
E010000010E00000
40A0A0C0A0E00000
6000000000E00000
E010000020E00000
60E0C0C0E0406060
ENDCHAR
STARTCHAR  2491
ENCODING  9361
SWIDTH  1000 0
DWIDTH  10 0
BBX  10 7 0 0
BITMAP
C0E00060E0C0C0400000
00E000E0100010E00000
00E000E0000000E00000
00E000E0000000E00000
00E000E0000000E00000
00E000E0100010E00000
00E00060E0C0E0608040
ENDCHAR
STARTCHAR  2492
ENCODING  9362
SWIDTH  1000 0
DWIDTH  10 0
BBX  10 7 0 0
BITMAP
00C0E00010C0E0000000
0000E0000000E0000000
0000E0000000E0000000
0000E0000000E0000000
0000E0000000E0000000
0000E0000000E0000000
0000E0000000E000A020
ENDCHAR
STARTCHAR  2493
ENCODING  9363
SWIDTH  1000 0
DWIDTH  10 0
BBX  10 7 0 0
BITMAP
C0E00040E0C0E0400000
00E000E0200030C00000
00E000C0000010C00000
00E000001060C0400000
00E00080A04000000000
00E000E0000000000000
00E000E0C0C0C0A0A030
ENDCHAR
STARTCHAR  2494
ENCODING  9364
SWIDTH  1000 0
DWIDTH  10 0
BBX  10 7 0 0
BITMAP
C0E00060C0C0C0600000
00E000E0100010E00000
00E00060000010E00000
00E0000060C0E0800000
00E00040000000E00000
00E000E0100000E00000
00E00080E0C0E0808040
ENDCHAR
STARTCHAR  2495
ENCODING  9365
SWIDTH  1000 0
DWIDTH  9 0
BBX  9 7 0 0
BITMAP
C0E0000000C0E00000
00E000008060E00000
00E00010C000E00000
00E000A04000E00000
00E030A00000E00000
00E080E0C0C0F0A000
00E000000000E010C0
ENDCHAR
STARTCHAR  2496
ENCODING  9366
SWIDTH  1000 0
DWIDTH  9 0
BBX  9 7 0 0
BITMAP
C0E000E0C0C0C06000
00E000E00000000000
00E000E0C0C0C02000
00E000A02000608000
00E00040000030A000
00E000E00000408000
00E00060E0C0E030C0
ENDCHAR
STARTCHAR  2497
ENCODING  9367
SWIDTH  1000 0
DWIDTH  9 0
BBX  9 7 0 0
BITMAP
C0E00040C0C0C03000
00E000C01000106000
00E000E0C0C0E02000
00E000E02000208000
00E000E00000008000
00E000E01000108000
00E00060E0C0C040C0
ENDCHAR
STARTCHAR  2498
ENCODING  9368
SWIDTH  1000 0
DWIDTH  11 0
BBX  9 7 1 0
BITMAP
C0E020C0C0C0C0E010
00E00000000020E000
00E000000000A06000
00E000000010E00000
00E000000080600000
00E0000010E0100000
00E000008080006080
ENDCHAR
STARTCHAR  2499
ENCODING  9369
SWIDTH  1000 0
DWIDTH  10 0
BBX  10 7 0 0
BITMAP
C0E00040E0C0C0600000
00E000E0600000A00000
00E000E0800000A00000
00E00060F0C0E0800000
00E000E0200010E00000
00E000E0100010E00000
00E00060E0C0E0808040
ENDCHAR
STARTCHAR  249A
ENCODING  9370
SWIDTH  1000 0
DWIDTH  10 0
BBX  10 7 0 0
BITMAP
C0E00060C0C0C0400000
00E000E0000010E00000
00E000E0000010E00000
00E00080E0C0C0E00000
00E00060000000E00000
00E000E0000010E00000
00E00080E0C0E0608040
ENDCHAR
STARTCHAR  249B
ENCODING  9371
SWIDTH  1000 0
DWIDTH  10 0
BBX  10 7 1 0
BITMAP
80E0E06080E0E0600000
E00020A0E00000E00000
C00020A0E00000E00000
0040C030E00000E00000
A0801000E00000E00000
E0000000E01010E00000
E0C0C06060E0E080A020
ENDCHAR
STARTCHAR  2500
ENCODING  9472
SWIDTH  1000 0
DWIDTH  10 0
BBX  12 1 -1 4
BITMAP
10C0C0C0C0C0C0C0C0C0C010
ENDCHAR
STARTCHAR  2501
ENCODING  9473
SWIDTH  1000 0
DWIDTH  10 0
BBX  12 1 -1 3
BITMAP
10E0E0E0E0E0E0E0E0E0E010
ENDCHAR
STARTCHAR  2502
ENCODING  9474
SWIDTH  1000 0
DWIDTH  10 0
BBX  1 11 4 -2
BITMAP
C0
C0
C0
C0
C0
C0
C0
C0
C0
C0
20
ENDCHAR
STARTCHAR  2503
ENCODING  9475
SWIDTH  1000 0
DWIDTH  10 0
BBX  1 11 5 -2
BITMAP
E0
E0
E0
E0
E0
E0
E0
E0
E0
E0
30
ENDCHAR
STARTCHAR  2504
ENCODING  9476
SWIDTH  1000 0
DWIDTH  10 0
BBX  9 1 1 3
BITMAP
C0C000C0C000C0C000
ENDCHAR
STARTCHAR  2505
ENCODING  9477
SWIDTH  1000 0
DWIDTH  10 0
BBX  9 1 1 3
BITMAP
E0C000E0E000C0E000
ENDCHAR
STARTCHAR  2506
ENCODING  9478
SWIDTH  1000 0
DWIDTH  10 0
BBX  1 8 5 0
BITMAP
C0
C0
00
C0
C0
00
C0
C0
ENDCHAR
STARTCHAR  2507
ENCODING  9479
SWIDTH  1000 0
DWIDTH  10 0
BBX  1 8 5 0
BITMAP
E0
E0
00
E0
E0
00
E0
E0
ENDCHAR
STARTCHAR  2508
ENCODING  9480
SWIDTH  1000 0
DWIDTH  10 0
BBX  10 1 0 3
BITMAP
80C000C08080C000C080
ENDCHAR
STARTCHAR  2509
ENCODING  9481
SWIDTH  1000 0
DWIDTH  10 0
BBX  10 1 0 3
BITMAP
80E000E08080E000E080
ENDCHAR
STARTCHAR  250A
ENCODING  9482
SWIDTH  1000 0
DWIDTH  10 0
BBX  1 10 5 -1
BITMAP
80
C0
00
C0
80
80
C0
00
C0
80
ENDCHAR
STARTCHAR  250B
ENCODING  9483
SWIDTH  1000 0
DWIDTH  10 0
BBX  1 10 5 -1
BITMAP
80
E0
00
E0
80
80
E0
00
E0
80
ENDCHAR
STARTCHAR  250C
ENCODING  9484
SWIDTH  1000 0
DWIDTH  10 0
BBX  7 7 4 -2
BITMAP
A0C0C0C0C0C010
C0000000000000
C0000000000000
C0000000000000
C0000000000000
C0000000000000
10000000000000
ENDCHAR
STARTCHAR  250D
ENCODING  9485
SWIDTH  1000 0
DWIDTH  10 0
BBX  7 6 4 -2
BITMAP
C0E0E0E0E0E010
C0000000000000
C0000000000000
C0000000000000
C0000000000000
60000000000000
ENDCHAR
STARTCHAR  250E
ENCODING  9486
SWIDTH  1000 0
DWIDTH  10 0
BBX  6 7 5 -2
BITMAP
C0C0C0C0C060
E00000000000
E00000000000
E00000000000
E00000000000
E00000000000
100000000000
ENDCHAR
STARTCHAR  250F
ENCODING  9487
SWIDTH  1000 0
DWIDTH  10 0
BBX  6 6 5 -2
BITMAP
F0E0E0E0E060
E00000000000
E00000000000
E00000000000
E00000000000
600000000000
ENDCHAR
STARTCHAR  2510
ENCODING  9488
SWIDTH  1000 0
DWIDTH  10 0
BBX  6 7 -1 -2
BITMAP
60C0C0C0C0C0
0000000000C0
0000000000C0
0000000000C0
0000000000C0
0000000000C0
000000000010
ENDCHAR
STARTCHAR  2511
ENCODING  9489
SWIDTH  1000 0
DWIDTH  10 0
BBX  6 6 -1 -2
BITMAP
60E0E0E0E0F0
0000000000C0
0000000000C0
0000000000C0
0000000000C0
000000000060
ENDCHAR
STARTCHAR  2512
ENCODING  9490
SWIDTH  1000 0
DWIDTH  10 0
BBX  6 7 0 -2
BITMAP
80C0C0C0C0A0
0000000000E0
0000000000E0
0000000000E0
0000000000E0
0000000000E0
000000000010
ENDCHAR
STARTCHAR  2513
ENCODING  9491
SWIDTH  1000 0
DWIDTH  10 0
BBX  6 6 0 -2
BITMAP
80E0E0E0E0E0
0000000000E0
0000000000E0
0000000000E0
0000000000E0
000000000060
ENDCHAR
STARTCHAR  2514
ENCODING  9492
SWIDTH  1000 0
DWIDTH  10 0
BBX  7 6 4 4
BITMAP
60000000000000
C0000000000000
C0000000000000
C0000000000000
C0000000000000
C0C0C0C0C0C010
ENDCHAR
STARTCHAR  2515
ENCODING  9493
SWIDTH  1000 0
DWIDTH  10 0
BBX  7 6 4 3
BITMAP
80000000000000
C0000000000000
C0000000000000
C0000000000000
C0000000000000
A0E0E0E0E0E010
ENDCHAR
STARTCHAR  2516
ENCODING  9494
SWIDTH  1000 0
DWIDTH  10 0
BBX  6 6 5 4
BITMAP
600000000000
E00000000000
E00000000000
E00000000000
E00000000000
F0C0C0C0C060
ENDCHAR
STARTCHAR  2517
ENCODING  9495
SWIDTH  1000 0
DWIDTH  10 0
BBX  6 6 5 3
BITMAP
A00000000000
E00000000000
E00000000000
E00000000000
E00000000000
E0E0E0E0E060
ENDCHAR
STARTCHAR  2518
ENCODING  9496
SWIDTH  1000 0
DWIDTH  10 0
BBX  6 6 -1 4
BITMAP
000000000060
0000000000C0
0000000000C0
0000000000C0
0000000000C0
60C0C0C0C0F0
ENDCHAR
STARTCHAR  2519
ENCODING  9497
SWIDTH  1000 0
DWIDTH  10 0
BBX  6 6 -1 3
BITMAP
000000000080
0000000000C0
0000000000C0
0000000000C0
0000000000C0
60E0E0E0E0E0
ENDCHAR
STARTCHAR  251A
ENCODING  9498
SWIDTH  1000 0
DWIDTH  10 0
BBX  6 6 0 4
BITMAP
000000000060
0000000000E0
0000000000E0
0000000000E0
0000000000E0
80C0C0C0C0E0
ENDCHAR
STARTCHAR  251B
ENCODING  9499
SWIDTH  1000 0
DWIDTH  10 0
BBX  6 6 0 3
BITMAP
0000000000A0
0000000000E0
0000000000E0
0000000000E0
0000000000E0
80E0E0E0E0A0
ENDCHAR
STARTCHAR  251C
ENCODING  9500
SWIDTH  1000 0
DWIDTH  10 0
BBX  7 11 4 -2
BITMAP
C0000000000000
C0000000000000
C0000000000000
C0000000000000
C0C0C0C0C0C010
C0000000000000
C0000000000000
C0000000000000
C0000000000000
C0000000000000
20000000000000
ENDCHAR
STARTCHAR  251D
ENCODING  9501
SWIDTH  1000 0
DWIDTH  10 0
BBX  7 11 4 -2
BITMAP
C0000000000000
C0000000000000
C0000000000000
C0000000000000
C0000000000000
C0E0E0E0E0E010
C0000000000000
C0000000000000
C0000000000000
C0000000000000
20000000000000
ENDCHAR
STARTCHAR  251E
ENCODING  9502
SWIDTH  1000 0
DWIDTH  10 0
BBX  7 12 4 -2
BITMAP
60300000000000
C0600000000000
C0600000000000
C0600000000000
C0600000000000
C0E0C0C0C0C010
C0000000000000
C0000000000000
C0000000000000
C0000000000000
C0000000000000
10000000000000
ENDCHAR
STARTCHAR  251F
ENCODING  9503
SWIDTH  1000 0
DWIDTH  10 0
BBX  7 12 4 -2
BITMAP
60000000000000
C0000000000000
C0000000000000
C0000000000000
C0000000000000
C0C0C0C0C0C010
C0600000000000
C0600000000000
C0600000000000
C0600000000000
C0600000000000
10100000000000
ENDCHAR
STARTCHAR  2520
ENCODING  9504
SWIDTH  1000 0
DWIDTH  10 0
BBX  6 11 5 -2
BITMAP
E00000000000
E00000000000
E00000000000
E00000000000
F0C0C0C0C060
E00000000000
E00000000000
E00000000000
E00000000000
E00000000000
300000000000
ENDCHAR
STARTCHAR  2521
ENCODING  9505
SWIDTH  1000 0
DWIDTH  10 0
BBX  7 11 4 -2
BITMAP
80400000000000
C0600000000000
C0600000000000
C0600000000000
C0600000000000
C0E0E0E0E0E010
C0000000000000
C0000000000000
C0000000000000
C0000000000000
60000000000000
ENDCHAR
STARTCHAR  2522
ENCODING  9506
SWIDTH  1000 0
DWIDTH  10 0
BBX  7 11 4 -2
BITMAP
80000000000000
C0000000000000
C0000000000000
C0000000000000
C0000000000000
C0E0E0E0E0E010
C0600000000000
C0600000000000
C0600000000000
C0600000000000
60300000000000
ENDCHAR
STARTCHAR  2523
ENCODING  9507
SWIDTH  1000 0
DWIDTH  10 0
BBX  6 11 5 -2
BITMAP
E00000000000
E00000000000
E00000000000
E00000000000
E00000000000
F0E0E0E0E060
E00000000000
E00000000000
E00000000000
E00000000000
300000000000
ENDCHAR
STARTCHAR  2524
ENCODING  9508
SWIDTH  1000 0
DWIDTH  10 0
BBX  6 11 -1 -2
BITMAP
0000000000C0
0000000000C0
0000000000C0
0000000000C0
60C0C0C0C0F0
0000000000C0
0000000000C0
0000000000C0
0000000000C0
0000000000C0
000000000020
ENDCHAR
STARTCHAR  2525
ENCODING  9509
SWIDTH  1000 0
DWIDTH  10 0
BBX  6 11 -1 -2
BITMAP
0000000000C0
0000000000C0
0000000000C0
0000000000C0
0000000000C0
60E0E0E0E0F0
0000000000C0
0000000000C0
0000000000C0
0000000000C0
000000000020
ENDCHAR
STARTCHAR  2526
ENCODING  9510
SWIDTH  1000 0
DWIDTH  10 0
BBX  6 11 0 -2
BITMAP
0000000000E0
0000000000E0
0000000000E0
0000000000E0
80C0C0C0C0E0
000000000080
000000000060
000000000060
000000000060
000000000060
000000000010
ENDCHAR
STARTCHAR  2527
ENCODING  9511
SWIDTH  1000 0
DWIDTH  10 0
BBX  6 11 0 -2
BITMAP
000000000040
000000000060
000000000060
000000000060
80C0C0C0C060
0000000000E0
0000000000E0
0000000000E0
0000000000E0
0000000000E0
000000000060
ENDCHAR
STARTCHAR  2528
ENCODING  9512
SWIDTH  1000 0
DWIDTH  10 0
BBX  6 11 0 -2
BITMAP
0000000000E0
0000000000E0
0000000000E0
0000000000E0
80C0C0C0C0E0
0000000000E0
0000000000E0
0000000000E0
0000000000E0
0000000000E0
000000000030
ENDCHAR
STARTCHAR  2529
ENCODING  9513
SWIDTH  1000 0
DWIDTH  10 0
BBX  6 11 0 -2
BITMAP
0000000000E0
0000000000E0
0000000000E0
0000000000E0
0000000000E0
80E0E0E0E0A0
000000000060
000000000060
000000000060
000000000060
000000000010
ENDCHAR
STARTCHAR  252A
ENCODING  9514
SWIDTH  1000 0
DWIDTH  10 0
BBX  6 11 0 -2
BITMAP
000000000040
000000000060
000000000060
000000000060
000000000060
80E0E0E0E0E0
0000000000E0
0000000000E0
0000000000E0
0000000000E0
000000000060
ENDCHAR
STARTCHAR  252B
ENCODING  9515
SWIDTH  1000 0
DWIDTH  10 0
BBX  6 11 0 -2
BITMAP
0000000000E0
0000000000E0
0000000000E0
0000000000E0
0000000000E0
80E0E0E0E0E0
0000000000E0
0000000000E0
0000000000E0
0000000000E0
000000000030
ENDCHAR
STARTCHAR  252C
ENCODING  9516
SWIDTH  1000 0
DWIDTH  10 0
BBX  12 7 -1 -2
BITMAP
10C0C0C0C0C0C0C0C0C0C010
0000000000C0000000000000
0000000000C0000000000000
0000000000C0000000000000
0000000000C0000000000000
0000000000C0000000000000
000000000010000000000000
ENDCHAR
STARTCHAR  252D
ENCODING  9517
SWIDTH  1000 0
DWIDTH  10 0
BBX  12 7 -1 -2
BITMAP
60C0C0C0C0C0C0C0C0C0C010
3060606060E0000000000000
0000000000C0000000000000
0000000000C0000000000000
0000000000C0000000000000
0000000000C0000000000000
000000000010000000000000
ENDCHAR
STARTCHAR  252E
ENCODING  9518
SWIDTH  1000 0
DWIDTH  10 0
BBX  12 7 -1 -2
BITMAP
60C0C0C0C0C0C0C0C0C0C010
0000000000C0606060606010
0000000000C0000000000000
0000000000C0000000000000
0000000000C0000000000000
0000000000C0000000000000
000000000010000000000000
ENDCHAR
STARTCHAR  252F
ENCODING  9519
SWIDTH  1000 0
DWIDTH  10 0
BBX  12 6 -1 -2
BITMAP
10E0E0E0E0F0E0E0E0E0E010
0000000000C0000000000000
0000000000C0000000000000
0000000000C0000000000000
0000000000C0000000000000
000000000060000000000000
ENDCHAR
STARTCHAR  2530
ENCODING  9520
SWIDTH  1000 0
DWIDTH  10 0
BBX  12 7 -1 -2
BITMAP
10C0C0C0C0C0C0C0C0C0C010
000000000000E00000000000
000000000000E00000000000
000000000000E00000000000
000000000000E00000000000
000000000000E00000000000
000000000000100000000000
ENDCHAR
STARTCHAR  2531
ENCODING  9521
SWIDTH  1000 0
DWIDTH  10 0
BBX  11 7 0 -2
BITMAP
80C0C0C0C0C0C0C0C0C060
4060606060E00000000000
0000000000E00000000000
0000000000E00000000000
0000000000E00000000000
0000000000E00000000000
0000000000100000000000
ENDCHAR
STARTCHAR  2532
ENCODING  9522
SWIDTH  1000 0
DWIDTH  10 0
BBX  11 7 0 -2
BITMAP
80C0C0C0C0C0C0C0C0C060
0000000000E06060606030
0000000000E00000000000
0000000000E00000000000
0000000000E00000000000
0000000000E00000000000
0000000000100000000000
ENDCHAR
STARTCHAR  2533
ENCODING  9523
SWIDTH  1000 0
DWIDTH  10 0
BBX  12 6 -1 -2
BITMAP
10E0E0E0E0E0F0E0E0E0E010
000000000000E00000000000
000000000000E00000000000
000000000000E00000000000
000000000000E00000000000
000000000000600000000000
ENDCHAR
STARTCHAR  2534
ENCODING  9524
SWIDTH  1000 0
DWIDTH  10 0
BBX  12 6 -1 4
BITMAP
000000000060000000000000
0000000000C0000000000000
0000000000C0000000000000
0000000000C0000000000000
0000000000C0000000000000
10C0C0C0C0F0C0C0C0C0C010
ENDCHAR
STARTCHAR  2535
ENCODING  9525
SWIDTH  1000 0
DWIDTH  10 0
BBX  11 6 0 3
BITMAP
0000000080000000000000
00000000C0000000000000
00000000C0000000000000
00000000C0000000000000
00000000C0000000000000
E0E0E0E0E0A06060606010
ENDCHAR
STARTCHAR  2536
ENCODING  9526
SWIDTH  1000 0
DWIDTH  10 0
BBX  11 6 -1 3
BITMAP
0000000000800000000000
0000000000C00000000000
0000000000C00000000000
0000000000C00000000000
0000000000C00000000000
1060606060A0E0E0E0E0E0
ENDCHAR
STARTCHAR  2537
ENCODING  9527
SWIDTH  1000 0
DWIDTH  10 0
BBX  12 6 -1 3
BITMAP
000000000080000000000000
0000000000C0000000000000
0000000000C0000000000000
0000000000C0000000000000
0000000000C0000000000000
10E0E0E0E0E0E0E0E0E0E010
ENDCHAR
STARTCHAR  2538
ENCODING  9528
SWIDTH  1000 0
DWIDTH  10 0
BBX  12 6 -1 4
BITMAP
000000000000600000000000
000000000000E00000000000
000000000000E00000000000
000000000000E00000000000
000000000000E00000000000
10C0C0C0C0C0F0C0C0C0C010
ENDCHAR
STARTCHAR  2539
ENCODING  9529
SWIDTH  1000 0
DWIDTH  10 0
BBX  11 6 0 3
BITMAP
0000000000A00000000000
0000000000E00000000000
0000000000E00000000000
0000000000E00000000000
0000000000E00000000000
E0E0E0E0E0A06060606010
ENDCHAR
STARTCHAR  253A
ENCODING  9530
SWIDTH  1000 0
DWIDTH  10 0
BBX  11 6 -1 3
BITMAP
0000000000A00000000000
0000000000E00000000000
0000000000E00000000000
0000000000E00000000000
0000000000E00000000000
1060606060A0E0E0E0E0E0
ENDCHAR
STARTCHAR  253B
ENCODING  9531
SWIDTH  1000 0
DWIDTH  10 0
BBX  12 6 -1 3
BITMAP
000000000000A00000000000
000000000000E00000000000
000000000000E00000000000
000000000000E00000000000
000000000000E00000000000
10E0E0E0E0E0E0E0E0E0E010
ENDCHAR
STARTCHAR  253C
ENCODING  9532
SWIDTH  1000 0
DWIDTH  10 0
BBX  12 11 -1 -2
BITMAP
0000000000C0000000000000
0000000000C0000000000000
0000000000C0000000000000
0000000000C0000000000000
10C0C0C0C0F0C0C0C0C0C010
0000000000C0000000000000
0000000000C0000000000000
0000000000C0000000000000
0000000000C0000000000000
0000000000C0000000000000
000000000020000000000000
ENDCHAR
STARTCHAR  253D
ENCODING  9533
SWIDTH  1000 0
DWIDTH  10 0
BBX  12 11 -1 -2
BITMAP
0000000000C0000000000000
0000000000C0000000000000
0000000000C0000000000000
0000000000C0000000000000
0000000000C0000000000000
60E0E0E0E0F0606060606010
0000000000C0000000000000
0000000000C0000000000000
0000000000C0000000000000
0000000000C0000000000000
000000000020000000000000
ENDCHAR
STARTCHAR  253E
ENCODING  9534
SWIDTH  1000 0
DWIDTH  10 0
BBX  12 11 -1 -2
BITMAP
0000000000C0000000000000
0000000000C0000000000000
0000000000C0000000000000
0000000000C0000000000000
0000000000C0000000000000
3060606060E0E0E0E0E0E010
0000000000C0000000000000
0000000000C0000000000000
0000000000C0000000000000
0000000000C0000000000000
000000000020000000000000
ENDCHAR
STARTCHAR  253F
ENCODING  9535
SWIDTH  1000 0
DWIDTH  10 0
BBX  12 11 -1 -2
BITMAP
0000000000C0000000000000
0000000000C0000000000000
0000000000C0000000000000
0000000000C0000000000000
0000000000C0000000000000
10E0E0E0E0F0E0E0E0E0E010
0000000000C0000000000000
0000000000C0000000000000
0000000000C0000000000000
0000000000C0000000000000
000000000020000000000000
ENDCHAR
STARTCHAR  2540
ENCODING  9536
SWIDTH  1000 0
DWIDTH  10 0
BBX  12 12 -1 -2
BITMAP
000000000000600000000000
000000000000E00000000000
000000000000E00000000000
000000000000E00000000000
000000000000E00000000000
10C0C0C0C0C0F0C0C0C0C010
000000000000600000000000
000000000000600000000000
000000000000600000000000
000000000000600000000000
000000000000600000000000
000000000000100000000000
ENDCHAR
STARTCHAR  2541
ENCODING  9537
SWIDTH  1000 0
DWIDTH  10 0
BBX  12 12 -1 -2
BITMAP
000000000000300000000000
000000000000600000000000
000000000000600000000000
000000000000600000000000
000000000000600000000000
10C0C0C0C0C0E0C0C0C0C010
000000000000E00000000000
000000000000E00000000000
000000000000E00000000000
000000000000E00000000000
000000000000E00000000000
000000000000100000000000
ENDCHAR
STARTCHAR  2542
ENCODING  9538
SWIDTH  1000 0
DWIDTH  10 0
BBX  12 11 -1 -2
BITMAP
000000000000E00000000000
000000000000E00000000000
000000000000E00000000000
000000000000E00000000000
10C0C0C0C0C0F0C0C0C0C010
000000000000E00000000000
000000000000E00000000000
000000000000E00000000000
000000000000E00000000000
000000000000E00000000000
000000000000300000000000
ENDCHAR
STARTCHAR  2543
ENCODING  9539
SWIDTH  1000 0
DWIDTH  10 0
BBX  11 11 0 -2
BITMAP
0000000000E00000000000
0000000000E00000000000
0000000000E00000000000
0000000000E00000000000
0000000000E00000000000
E0E0E0E0E0A06060606010
0000000000600000000000
0000000000600000000000
0000000000600000000000
0000000000600000000000
0000000000100000000000
ENDCHAR
STARTCHAR  2544
ENCODING  9540
SWIDTH  1000 0
DWIDTH  10 0
BBX  11 11 0 -2
BITMAP
0000000000A00000000000
0000000000E00000000000
0000000000E00000000000
0000000000E00000000000
0000000000E00000000000
4060606060E0E0E0E0E060
0000000000600000000000
0000000000600000000000
0000000000600000000000
0000000000600000000000
0000000000300000000000
ENDCHAR
STARTCHAR  2545
ENCODING  9541
SWIDTH  1000 0
DWIDTH  10 0
BBX  11 11 0 -2
BITMAP
0000000000400000000000
0000000000600000000000
0000000000600000000000
0000000000600000000000
0000000000600000000000
80E0E0E0E0E06060606030
0000000000E00000000000
0000000000E00000000000
0000000000E00000000000
0000000000E00000000000
0000000000600000000000
ENDCHAR
STARTCHAR  2546
ENCODING  9542
SWIDTH  1000 0
DWIDTH  10 0
BBX  11 11 0 -2
BITMAP
0000000000400000000000
0000000000600000000000
0000000000600000000000
0000000000600000000000
0000000000600000000000
4060606060F0E0E0E0E060
0000000000E00000000000
0000000000E00000000000
0000000000E00000000000
0000000000E00000000000
0000000000600000000000
ENDCHAR
STARTCHAR  2547
ENCODING  9543
SWIDTH  1000 0
DWIDTH  10 0
BBX  12 11 -1 -2
BITMAP
000000000000A00000000000
000000000000E00000000000
000000000000E00000000000
000000000000E00000000000
000000000000E00000000000
10E0E0E0E0E0E0E0E0E0E010
000000000000600000000000
000000000000600000000000
000000000000600000000000
000000000000600000000000
000000000000300000000000
ENDCHAR
STARTCHAR  2548
ENCODING  9544
SWIDTH  1000 0
DWIDTH  10 0
BBX  12 11 -1 -2
BITMAP
000000000000400000000000
000000000000600000000000
000000000000600000000000
000000000000600000000000
000000000000600000000000
10E0E0E0E0E0F0E0E0E0E010
000000000000E00000000000
000000000000E00000000000
000000000000E00000000000
000000000000E00000000000
000000000000600000000000
ENDCHAR
STARTCHAR  2549
ENCODING  9545
SWIDTH  1000 0
DWIDTH  10 0
BBX  11 11 0 -2
BITMAP
0000000000E00000000000
0000000000E00000000000
0000000000E00000000000
0000000000E00000000000
0000000000E00000000000
80E0E0E0E0E06060606030
0000000000E00000000000
0000000000E00000000000
0000000000E00000000000
0000000000E00000000000
0000000000300000000000
ENDCHAR
STARTCHAR  254A
ENCODING  9546
SWIDTH  1000 0
DWIDTH  10 0
BBX  11 11 0 -2
BITMAP
0000000000E00000000000
0000000000E00000000000
0000000000E00000000000
0000000000E00000000000
0000000000E00000000000
4060606060F0E0E0E0E060
0000000000E00000000000
0000000000E00000000000
0000000000E00000000000
0000000000E00000000000
0000000000300000000000
ENDCHAR
STARTCHAR  254B
ENCODING  9547
SWIDTH  1000 0
DWIDTH  10 0
BBX  12 11 -1 -2
BITMAP
000000000000E00000000000
000000000000E00000000000
000000000000E00000000000
000000000000E00000000000
000000000000E00000000000
10E0E0E0E0E0F0E0E0E0E010
000000000000E00000000000
000000000000E00000000000
000000000000E00000000000
000000000000E00000000000
000000000000300000000000
ENDCHAR
STARTCHAR  25A0
ENCODING  9632
SWIDTH  1000 0
DWIDTH  10 0
BBX  8 8 1 0
BITMAP
0010101010101010
10FFFFFFFFFFFFFF
10FFFFFFFFFFFFFF
10FFFFFFFFFFFFFF
10FFFFFFFFFFFFFF
10FFFFFFFFFFFFFF
10FFFFFFFFFFFFFF
10FFFFFFFFFFFFFF
ENDCHAR
STARTCHAR  25A1
ENCODING  9633
SWIDTH  1000 0
DWIDTH  10 0
BBX  8 8 1 0
BITMAP
A0C0C0C0C0C0C0A0
C0000000000000C0
C0000000000000C0
C0000000000000C0
C0000000000000C0
C0000000000000C0
C0000000000000C0
A0C0C0C0C0C0C0A0
ENDCHAR
STARTCHAR  25B2
ENCODING  9650
SWIDTH  1000 0
DWIDTH  10 0
BBX  8 9 1 0
BITMAP
0000001010000000
0000008060000000
000000E0E0000000
000060FFFF600000
0000E0FFFFE00000
0040FFFFFFFF4000
00C0FFFFFFFFC000
20FFFFFFFFFFFF30
3060606060606030
ENDCHAR
STARTCHAR  25B3
ENCODING  9651
SWIDTH  1000 0
DWIDTH  10 0
BBX  8 9 1 0
BITMAP
0000000000000000
0000006060000000
000000A0A0000000
0000406060400000
0000A00000A00000
0020800000802000
0080100000108000
1080000000008010
40C0C0C0C0C0C040
ENDCHAR
STARTCHAR  25C6
ENCODING  9670
SWIDTH  1000 0
DWIDTH  10 0
BBX  10 11 0 -1
BITMAP
00000000000000000000
00000000808000000000
00000060FFFF60000000
000040FFFFFFFF400000
0030F0FFFFFFFFF03000
00E0FFFFFFFFFFFFE000
0060FFFFFFFFFFFF6000
000080FFFFFFFF800000
000000A0FFFFA0000000
00000000C0C000000000
00000000101000000000
ENDCHAR
STARTCHAR  25C7
ENCODING  9671
SWIDTH  1000 0
DWIDTH  10 0
BBX  10 11 0 -1
BITMAP
00000000000000000000
00000000806000000000
00000060606060000000
00004080000080400000
00308000000000A03000
00A0000000000000C000
00606000000000606000
00008040000040800000
00000080303080000000
00000000A0A000000000
00000000101000000000
ENDCHAR
STARTCHAR  25CB
ENCODING  9675
SWIDTH  1000 0
DWIDTH  10 0
BBX  9 9 1 0
BITMAP
000040A0C0A0300000
00A080200030C06000
80800000000000C030
C000000000000030A0
C000000000000000C0
C000000000000030A0
80600000000000A040
10C060100010A08000
000080C0C0C0600000
ENDCHAR
STARTCHAR  25CE
ENCODING  9678
SWIDTH  1000 0
DWIDTH  10 0
BBX  8 8 1 0
BITMAP
0020A0C0C0A02000
20C0A0C0C0A0C020
A080A000008080A0
C0C010000010C0C0
C0A020000020A0C0
80A0C02020C0A080
10C0C0C0C0A0C010
001080C0C0600000
ENDCHAR
STARTCHAR  25CF
ENCODING  9679
SWIDTH  1000 0
DWIDTH  10 0
BBX  10 9 0 0
BITMAP
00000000202000000000
000040E0FFFFE0400000
0040FFFFFFFFFFFF4000
00E0FFFFFFFFFFFFE000
10FFFFFFFFFFFFFFFF10
00FFFFFFFFFFFFFFFF00
00C0FFFFFFFFFFFFC000
0030F0FFFFFFFFF03000
000030C0F0F0C0300000
ENDCHAR
STARTCHAR  2605
ENCODING  9733
SWIDTH  1000 0
DWIDTH  10 0
BBX  10 10 0 -1
BITMAP
00000000000000000000
00000000404000000000
00000000A0A000000000
00000000F0F000000000
30E0F0F0FFFFF0F0E030
0010A0FFFFFFFFA01000
000000F0FFFFF0000000
000040FFE0E0FF400000
0000A080000080A00000
00003000000000300000
ENDCHAR
STARTCHAR  2606
ENCODING  9734
SWIDTH  1000 0
DWIDTH  10 0
BBX  10 10 0 -1
BITMAP
00000000000000000000
00000000404000000000
00000000A0A000000000
00000000A0A000000000
30E0E0C04060C0E0E030
00108040000040A01000
000000A00000A0000000
00003080A0A080300000
0000A0A01010A0800000
00004000000000400000
ENDCHAR
STARTCHAR  2640
ENCODING  9792
SWIDTH  1000 0
DWIDTH  10 0
BBX  6 9 2 -1
BITMAP
0020A0A01000
00C03030A000
00C040608000
0020E0600000
C0C0F0C0C080
0000C0000000
0000C0000000
0000C0000000
000010000000
ENDCHAR
STARTCHAR  2642
ENCODING  9794
SWIDTH  1000 0
DWIDTH  10 0
BBX  5 8 2 0
BITMAP
0000801000
0080F0A000
1060C04030
0000C00000
0000E01000
008060C000
00C010C000
0040E08000
ENDCHAR
STARTCHAR  3000
ENCODING  12288
SWIDTH  1000 0
DWIDTH  10 0
BBX  0 0 0 0
BITMAP
ENDCHAR
STARTCHAR  3001
ENCODING  12289
SWIDTH  1000 0
DWIDTH  10 0
BBX  4 3 0 0
BITMAP
00000000
20E00000
0080E040
ENDCHAR
STARTCHAR  3002
ENCODING  12290
SWIDTH  1000 0
DWIDTH  10 0
BBX  3 3 0 0
BITMAP
30C060
C020E0
60E0A0
ENDCHAR
STARTCHAR  3003
ENCODING  12291
SWIDTH  1000 0
DWIDTH  10 0
BBX  6 4 2 2
BITMAP
000010001000
0010C020C000
008020A02000
004010300000
ENDCHAR
STARTCHAR  3005
ENCODING  12293
SWIDTH  1000 0
DWIDTH  10 0
BBX  8 8 1 0
BITMAP
0000000000000000
0000608000000000
0010E0C0C0C0F010
008060000060A000
60A0100020E01000
000080A0A0400000
00000080E0100000
0000000060C08000
ENDCHAR
STARTCHAR  3008
ENCODING  12296
SWIDTH  1000 0
DWIDTH  10 0
BBX  5 10 5 -1
BITMAP
0000001000
000010E000
0000A06000
0030C00000
00C0300000
20C0000000
00A0300000
0020C00000
0000806000
000010E010
ENDCHAR
STARTCHAR  3009
ENCODING  12297
SWIDTH  1000 0
DWIDTH  10 0
BBX  5 10 0 -1
BITMAP
0010000000
00C0200000
0040A00000
0000A03000
000020C000
000000C030
000030C000
0000C03000
0040A00000
00E0100000
ENDCHAR
STARTCHAR  300A
ENCODING  12298
SWIDTH  1000 0
DWIDTH  10 0
BBX  6 10 4 -1
BITMAP
000000100000
000000A06030
000080408000
001080802000
008040800000
10A080200000
008040800000
0010A0802000
00006040A000
000000A06040
ENDCHAR
STARTCHAR  300B
ENCODING  12299
SWIDTH  1000 0
DWIDTH  10 0
BBX  6 10 0 -1
BITMAP
000010000000
3060A0000000
00A040800000
002080801000
000080408000
00002080A010
000080408000
002080A01000
00A040600000
4060A0000000
ENDCHAR
STARTCHAR  300C
ENCODING  12300
SWIDTH  1000 0
DWIDTH  10 0
BBX  4 10 6 -2
BITMAP
E0E0E060
E0000000
E0000000
E0000000
E0000000
E0000000
E0000000
E0000000
E0000000
10000000
ENDCHAR
STARTCHAR  300D
ENCODING  12301
SWIDTH  1000 0
DWIDTH  10 0
BBX  4 10 0 -1
BITMAP
00000030
000000E0
000000E0
000000E0
000000E0
000000E0
000000E0
000000E0
000000E0
60E0E0C0
ENDCHAR
STARTCHAR  300E
ENCODING  12302
SWIDTH  1000 0
DWIDTH  10 0
BBX  4 10 6 -1
BITMAP
C0C0C0C0
C0C0C0E0
C0C00000
C0C00000
C0C00000
C0C00000
C0C00000
C0C00000
C0C00000
E0A00000
ENDCHAR
STARTCHAR  300F
ENCODING  12303
SWIDTH  1000 0
DWIDTH  10 0
BBX  4 10 0 -1
BITMAP
0000A0C0
0000C0C0
0000C0C0
0000C0C0
0000C0C0
0000C0C0
0000C0C0
0000C0C0
C0C0C0C0
A0C0C0E0
ENDCHAR
STARTCHAR  3010
ENCODING  12304
SWIDTH  1000 0
DWIDTH  10 0
BBX  3 10 6 -1
BITMAP
101010
FFFF80
FFFF10
FFC000
FFA000
FF8000
FFA000
FFC000
FFFF20
FFFFA0
ENDCHAR
STARTCHAR  3011
ENCODING  12305
SWIDTH  1000 0
DWIDTH  10 0
BBX  3 10 1 -1
BITMAP
101010
80FFFF
10FFFF
00C0FF
00A0FF
0080FF
00A0FF
00C0FF
20FFFF
A0FFFF
ENDCHAR
STARTCHAR  3013
ENCODING  12307
SWIDTH  1000 0
DWIDTH  10 0
BBX  8 6 1 1
BITMAP
00FFFFFFFFFFFFFF
00FFFFFFFFFFFFFF
0030303030303030
0030303030303030
00FFFFFFFFFFFFFF
00FFFFFFFFFFFFFF
ENDCHAR
STARTCHAR  3014
ENCODING  12308
SWIDTH  1000 0
DWIDTH  10 0
BBX  3 10 7 -1
BITMAP
001040
40E040
E02000
E00000
E00000
E00000
E00000
E00000
A0A010
006080
ENDCHAR
STARTCHAR  3015
ENCODING  12309
SWIDTH  1000 0
DWIDTH  10 0
BBX  3 10 0 -1
BITMAP
401000
40E040
0020E0
0000E0
0000E0
0000E0
0000E0
0000E0
10A0A0
806000
ENDCHAR
STARTCHAR  3016
ENCODING  12310
SWIDTH  1000 0
DWIDTH  10 0
BBX  4 10 6 -1
BITMAP
C0C0A000
C0108000
C0803000
C0C00000
C0C00000
C0C00000
C0C00000
C0802000
C0206000
E0C0C000
ENDCHAR
STARTCHAR  3017
ENCODING  12311
SWIDTH  1000 0
DWIDTH  10 0
BBX  4 10 0 -1
BITMAP
00A0C0C0
006010C0
003080C0
0000C0C0
0000C0C0
0000C0C0
0000C0C0
002080C0
006020C0
00A0C0E0
ENDCHAR
STARTCHAR  3041
ENCODING  12353
SWIDTH  1000 0
DWIDTH  10 0
BBX  8 8 1 -1
BITMAP
0000104000000000
10C0C0F0C0C0C020
0030A0F0C0C06000
00E030C020A0E000
10C010E0A020C000
10C030F06000E000
00A080C040C0A000
0000001000000000
ENDCHAR
STARTCHAR  3042
ENCODING  12354
SWIDTH  1000 0
DWIDTH  10 0
BBX  8 8 1 0
BITMAP
0000C00000000000
A0C0F0C0C0C0C0C0
30A0F0E0C0C0A020
C040E00000A080C0
E000E00060E000E0
E000C060F03000E0
E010E0FF600010E0
80E080E020C0E060
ENDCHAR
STARTCHAR  3043
ENCODING  12355
SWIDTH  1000 0
DWIDTH  10 0
BBX  8 7 1 0
BITMAP
0040000000000000
00C0000000800000
00C0000000C00000
00A0100000A02000
0080300000806000
006060000020C040
0020E0C0C0000000
ENDCHAR
STARTCHAR  3044
ENCODING  12356
SWIDTH  1000 0
DWIDTH  10 0
BBX  9 8 1 0
BITMAP
801000000000000000
A04000000060600000
806000000040A00000
608000000010C00000
30A000000000E00000
10E000000000C02000
00E01000000040C030
0060E0C0C020000000
ENDCHAR
STARTCHAR  3045
ENCODING  12357
SWIDTH  1000 0
DWIDTH  10 0
BBX  7 6 1 0
BITMAP
00C0C0C0C0C060
40C0C0C0C0A030
000000000030E0
000000000000C0
000000000010E0
10C0C0C0C0E060
ENDCHAR
STARTCHAR  3046
ENCODING  12358
SWIDTH  1000 0
DWIDTH  10 0
BBX  9 8 1 0
BITMAP
10E0E0E0E0E0E0E000
000000000000000000
80C0C0C0C0C0A03000
00000000000040E000
00000000000000E000
00000000000000E000
00000000000020E000
40E0E0E0E0E0E06000
ENDCHAR
STARTCHAR  3047
ENCODING  12359
SWIDTH  1000 0
DWIDTH  10 0
BBX  8 7 1 -1
BITMAP
00C0C0C0C0C0A000
0000000000000000
60C0C0E0C0C0C000
000080E0C0600000
0020C00010C00000
60E0300000C0E010
0000000000000000
ENDCHAR
STARTCHAR  3048
ENCODING  12360
SWIDTH  1000 0
DWIDTH  10 0
BBX  10 8 0 0
BITMAP
00C0C0C0C0C0C0C02000
00000000000000000000
00000000000000000000
10C0C0E0E0C0C0C0C000
000000E0C0C060000000
000040600010E0000000
0000A0100000E0000000
10E08000000080E0C020
ENDCHAR
STARTCHAR  3049
ENCODING  12361
SWIDTH  1000 0
DWIDTH  10 0
BBX  8 8 1 -1
BITMAP
0000002000000000
60C0C0F0C0A02000
000000C01030C040
00A0E0F0C0E0A000
00E000C00000E000
00C000C00000C000
00C0E08080C0A000
0000000000000000
ENDCHAR
STARTCHAR  304A
ENCODING  12362
SWIDTH  1000 0
DWIDTH  10 0
BBX  9 9 1 0
BITMAP
000000400000000000
000000E00010C00000
C0C0C0F0C080A03000
000000E0000030C040
60E0E0F0C0E0E06000
E01000E0000000E000
E00000E0000000E000
E01000E0000000E000
60E0E08060E0E08000
ENDCHAR
STARTCHAR  304B
ENCODING  12363
SWIDTH  1000 0
DWIDTH  10 0
BBX  9 9 0 0
BITMAP
000020000000000000
0000C0100000201000
40E0F0E0C040606000
0000E00010E0408000
0020A00000E020A000
0040800000E010E000
0060600000E000E000
0080400000E000C020
60E030E0E0A00060C0
ENDCHAR
STARTCHAR  304C
ENCODING  12364
SWIDTH  1000 0
DWIDTH  10 0
BBX  9 8 1 0
BITMAP
0020A0000040606000
A0E0F0C0C04080A010
0080600040C0A00000
00A0400000E0803000
00C0300000E0606000
00E0000000E030A000
00E0000010E000C000
E08060E0E0600080A0
ENDCHAR
STARTCHAR  304D
ENCODING  12365
SWIDTH  1000 0
DWIDTH  10 0
BBX  10 8 0 0
BITMAP
00000030800000000000
00C0C0C0E0F0C0C04000
00C0C0C0C0FFC0C0C000
000000000010E0100000
0040C0C0C0C0E0A00000
00E02000000010300000
00E01000000000000000
0060E0C0C0C0C0C08000
ENDCHAR
STARTCHAR  304E
ENCODING  12366
SWIDTH  1000 0
DWIDTH  10 0
BBX  10 8 0 0
BITMAP
00202040C0202080A000
00A0E0E0E0F0E0808040
00C0C0C0C0F0E0C0C000
000000000000E0300000
0040C0C0C0C0E0E01000
00E02000000010301000
00E01000000000000000
0060E0C0C0C0C0C0A000
ENDCHAR
STARTCHAR  304F
ENCODING  12367
SWIDTH  1000 0
DWIDTH  10 0
BBX  9 9 1 -1
BITMAP
000000002060A0C000
1060A0C0A060300000
C06020000000000000
E00000000000000000
E00000000000000000
E02000000000000000
30A0C0A06010000000
0000003080A0C0A010
000000000000003000
ENDCHAR
STARTCHAR  3050
ENCODING  12368
SWIDTH  1000 0
DWIDTH  10 0
BBX  9 9 1 0
BITMAP
000000000000104000
0000104080C0C08000
40C0C0804060304000
E01000000030C0C020
E00000000000000000
E00000000000000000
C06020000000000000
1060A0C0A060200000
000000002060A0C010
ENDCHAR
STARTCHAR  3051
ENCODING  12369
SWIDTH  1000 0
DWIDTH  10 0
BBX  9 9 1 -1
BITMAP
E00000000000E00000
E00000000000E00000
E030E0E0E0E0F0C010
E00000000000E00000
E00000000000E00000
E00000000000E00000
E00000000010E00000
E00060E0E0E0800000
100000000000000000
ENDCHAR
STARTCHAR  3052
ENCODING  12370
SWIDTH  1000 0
DWIDTH  10 0
BBX  9 10 1 -1
BITMAP
000000000010000000
C000000000E0A0A030
E000000000E0608040
E030E0E0E0F0E0E010
E000000000E0000000
E000000000E0000000
E000000000E0000000
E000000000E0000000
E000A0E0E0A0000000
200000000000000000
ENDCHAR
STARTCHAR  3053
ENCODING  12371
SWIDTH  1000 0
DWIDTH  10 0
BBX  9 8 1 0
BITMAP
80C0C0C0C0C0C0C000
000000000000000000
000000000000000000
000000000000000000
608000000000000000
E01000000000000000
E00000000000000000
80E0C0C0C0C0C0C030
ENDCHAR
STARTCHAR  3054
ENCODING  12372
SWIDTH  1000 0
DWIDTH  10 0
BBX  9 8 1 0
BITMAP
80C0C0C0C0C0C0C000
000000000060403000
000000000060A0E000
000000000000000000
608000000000000000
E01000000000000000
E00000000000000000
80E0C0C0C0C0C0C020
ENDCHAR
STARTCHAR  3055
ENCODING  12373
SWIDTH  1000 0
DWIDTH  10 0
BBX  10 9 0 0
BITMAP
00000000000000000000
0000000040C000000000
00E0E0E0E0F0E0E0E010
000000000020E0100000
00000000000080800000
0060E0C0C0C0C0FF3000
00E01000000000000000
00C02000000000000000
0040E0C0C0C0C0C0A000
ENDCHAR
STARTCHAR  3056
ENCODING  12374
SWIDTH  1000 0
DWIDTH  10 0
BBX  10 9 0 0
BITMAP
00000000100010406000
0000000040C000C0C060
00E0E0E0E0F0E0E0E010
000000000020E0100000
00000000100080A00000
0060E0C0C0C0C0FF4000
00E01000000000000000
00C02000000000000000
0040E0C0C0C0C0C0A000
ENDCHAR
STARTCHAR  3057
ENCODING  12375
SWIDTH  1000 0
DWIDTH  10 0
BBX  8 9 1 0
BITMAP
3000000000000000
E000000000000000
E000000000000000
E000000000000000
E0000000000000A0
E0000000000000E0
E0000000000010E0
C0400000000060A0
30E0E0E0E0E0C020
ENDCHAR
STARTCHAR  3058
ENCODING  12376
SWIDTH  1000 0
DWIDTH  10 0
BBX  8 9 1 0
BITMAP
4000000000000000
E000002060600000
E0000000C0A06000
E000000000000000
E000000000000080
E0000000000000E0
E0000000000010E0
C0400000000060A0
30E0E0E0E0E0C020
ENDCHAR
STARTCHAR  3059
ENCODING  12377
SWIDTH  1000 0
DWIDTH  10 0
BBX  10 9 0 0
BITMAP
00000000000000100000
00000000000020C00000
10C0C0C0C0C0E0F0C010
00000000000020C00000
0080E0C0C0C0E0C00000
00E01000000010F00000
0080E0C0C0C0C0F00000
00000000100030E00000
0080C0C0C0C0E0400000
ENDCHAR
STARTCHAR  305A
ENCODING  12378
SWIDTH  1000 0
DWIDTH  10 0
BBX  10 9 0 0
BITMAP
00000000000020403010
000000000000F080A080
10C0C0C0C0C0FFC0C010
000000000000F0000000
0080E0C0C0E0FF000000
00E010000000E0100000
0080E0C0C0C0F0100000
000000101010E0000000
0060C0C0C0E080000000
ENDCHAR
STARTCHAR  305B
ENCODING  12379
SWIDTH  1000 0
DWIDTH  10 0
BBX  10 9 0 0
BITMAP
00004000000000400000
0000E000000000E00000
0000E000000000E00000
30E0F0E0E0E0E0F0E030
0000E000000000E00000
0000E000000000E00000
0000E00040E0E0800000
0000E010000000000000
000060E0C0E0E0E0C000
ENDCHAR
STARTCHAR  305C
ENCODING  12380
SWIDTH  1000 0
DWIDTH  10 0
BBX  10 8 1 0
BITMAP
00A000000000A0806000
00E000000000E0808040
E0F0E0E0E0E0F0E06000
00E000000000E0000000
00E000000000E0000000
00E00060E0E080000000
00E01000000000000000
0060E0C0E0E0E0E04000
ENDCHAR
STARTCHAR  305D
ENCODING  12381
SWIDTH  1000 0
DWIDTH  10 0
BBX  10 8 0 0
BITMAP
0080C0C0C0C0E0E00000
0000000010A0A0200000
00001080A03000000000
10E0E0E0E0F0E0E0E010
000030A0804000000000
0000E020000000000000
0000E000000000000000
000080E0E0E0E0E08000
ENDCHAR
STARTCHAR  305E
ENCODING  12382
SWIDTH  1000 0
DWIDTH  10 0
BBX  10 8 0 0
BITMAP
0000C0C0C0C0E0E0A000
000000001080C0E06000
00001080C0400060A060
10E0E0E0E0F0F0E0E010
000020A0A06020000000
0000E020000000000000
0000E000000000000000
000080E0E0E0E0E0C000
ENDCHAR
STARTCHAR  305F
ENCODING  12383
SWIDTH  1000 0
DWIDTH  10 0
BBX  10 9 0 0
BITMAP
00000010000000000000
000060E0000000000000
20E0E0E0E0E0E0E0E010
0000A040000000000000
0000E010000000000000
0010E030E0E0E0E0E000
0040A000000000000000
00608000000000000000
30E030C0E0E0E0E0E000
ENDCHAR
STARTCHAR  3060
ENCODING  12384
SWIDTH  1000 0
DWIDTH  10 0
BBX  10 9 0 0
BITMAP
00000010000010304000
000060E0000010E0C000
10E0E0F0E0E0E0E0E020
0000C040000000000000
0000E010000000000000
0010E020E0E0E0E0E000
0040A000000000000000
00608000000000000000
30E030E0E0E0E0E0C000
ENDCHAR
STARTCHAR  3061
ENCODING  12385
SWIDTH  1000 0
DWIDTH  10 0
BBX  10 9 0 0
BITMAP
00000000000000000000
000010E0000000000000
20E0E0F0E0E0E0E0E020
0000A040000000000000
0000E0A0C0C0C0C03000
0040E02000000040C000
0000000000000000E000
0000000000000020E000
0020E0E0E0E0E0E06000
ENDCHAR
STARTCHAR  3062
ENCODING  12386
SWIDTH  1000 0
DWIDTH  10 0
BBX  10 9 0 0
BITMAP
00000010000020203000
000010E0000020C0C040
20E0E0F0E0E0E0E0E020
0000A040000000000000
0000E0C0C0C0C0C03000
0040C02000000040C000
0000000000000000E000
0000000000000010E000
0010E0E0E0E0E0E06000
ENDCHAR
STARTCHAR  3063
ENCODING  12387
SWIDTH  1000 0
DWIDTH  10 0
BBX  8 6 1 0
BITMAP
60C0C0C0C0E06000
000000000010E000
000000000000C010
000000000000C000
000000000010E000
0080C0C0C0E06000
ENDCHAR
STARTCHAR  3064
ENCODING  12388
SWIDTH  1000 0
DWIDTH  10 0
BBX  10 8 0 0
BITMAP
20E0E0E0E0E0E0A01000
0000000000000060A000
0000000000000000E000
0000000000000000E000
0000000000000000E000
0000000000000000E000
0000000000000060C000
0020E0E0E0E0E0C02000
ENDCHAR
STARTCHAR  3065
ENCODING  12389
SWIDTH  1000 0
DWIDTH  10 0
BBX  9 9 1 0
BITMAP
000000000000101000
00000000000080A0C0
E0E0E0E0E0E0E04000
00000000000020E000
00000000000000E000
00000000000000E000
00000000000000E000
00000000000040C000
00E0E0E0E0E0C02000
ENDCHAR
STARTCHAR  3066
ENCODING  12390
SWIDTH  1000 0
DWIDTH  10 0
BBX  10 9 0 -1
BITMAP
10E0E0E0E0E0E0E0E010
00000030A0A060100000
000040C0200000000000
0000E010000000000000
0000E000000000000000
0000E000000000000000
0000E030000000000000
000030C0E0C0C0C08000
00000000001010101000
ENDCHAR
STARTCHAR  3067
ENCODING  12391
SWIDTH  1000 0
DWIDTH  10 0
BBX  10 9 0 -1
BITMAP
10E0E0E0E0E0E0E0C010
00000020A0A0A0403000
000040C0300040A0E010
0000E020000000000000
0000E000000000000000
0000E000000000000000
0000E030000000000000
000040E0E0C0C0C08000
00000000001010000000
ENDCHAR
STARTCHAR  3068
ENCODING  12392
SWIDTH  1000 0
DWIDTH  10 0
BBX  8 10 1 -1
BITMAP
0000100000000000
000060A000000000
000000E010000000
1080C0F0E0E0E0A0
A080100000000000
E000000000000000
E000000000000000
A040000000000000
20C0E0C0C0C0C0A0
0000000000000000
ENDCHAR
STARTCHAR  3069
ENCODING  12393
SWIDTH  1000 0
DWIDTH  10 0
BBX  9 9 1 -1
BITMAP
000040600080606000
000010E0004080C010
1080C0F0E0E0E0A000
A08010000000000000
E00000000000000000
E00000000000000000
A04000000000000000
20C0E0C0C0C0C0A000
000000000000100000
ENDCHAR
STARTCHAR  306A
ENCODING  12394
SWIDTH  1000 0
DWIDTH  10 0
BBX  9 10 1 -1
BITMAP
000010000000000000
0000E01000A0300000
C0E0F0E0C030C00000
00608000000080C020
00A040000000E00000
00E01060C0E0F0E040
20C000E01000E00000
C04000E00000E00000
000000A0E0E0A00000
000000000000000000
ENDCHAR
STARTCHAR  306B
ENCODING  12395
SWIDTH  1000 0
DWIDTH  10 0
BBX  9 10 1 -1
BITMAP
000000000000000000
E00080E0E0E0E0E000
E00000000000000000
E00000000000000000
E00000000000000000
E00020400000000000
E000A0400000000000
E000E0000000000000
E000A0E0E0E0E0E040
300000000000000000
ENDCHAR
STARTCHAR  306C
ENCODING  12396
SWIDTH  1000 0
DWIDTH  10 0
BBX  10 9 0 0
BITMAP
00000000000000000000
0030A0000000C0100000
0040F0C0C0E0F0C03000
00E0C04000C02030C000
00E060A060800000E000
00E010E0C0100000E000
00E000C060A0E0E0FF60
00E020C000E00000E000
00C0E04000A0E0E08000
ENDCHAR
STARTCHAR  306D
ENCODING  12397
SWIDTH  1000 0
DWIDTH  10 0
BBX  9 10 1 -1
BITMAP
000000000000000000
0000E0000000000000
0000E060C0E0C06000
80E0FF80000010E000
0000E000000000E000
0060E00060C0E0FF80
10C0E000E01000E000
C060E000E00000E000
0000E000A0E0E08000
000030000000000000
ENDCHAR
STARTCHAR  306E
ENCODING  12398
SWIDTH  1000 0
DWIDTH  10 0
BBX  10 8 0 0
BITMAP
0030C0E0E0F0E0C04000
00E0300020C00030E000
00E0000080600000E000
00E00000E0000000E000
00E0006080000000E000
00E000E010000000E000
00E0608000000020E000
00A0E01030E0E0E04000
ENDCHAR
STARTCHAR  306F
ENCODING  12399
SWIDTH  1000 0
DWIDTH  10 0
BBX  9 10 1 -1
BITMAP
000000000000000000
E00000000000E00000
E030C0C0C0C0F0C010
E00000000000E00000
E00000000000E00000
E00040C0C0C0F0C030
E000C0300000E00000
E000E0100010E00000
E00060E0C0E0600000
200000000000000000
ENDCHAR
STARTCHAR  3070
ENCODING  12400
SWIDTH  1000 0
DWIDTH  10 0
BBX  9 10 1 -1
BITMAP
100000000010101000
E000000000E080C060
E000000000E0000000
E030C0C0C0F0C0C020
E000000000E0000000
E00040C0C0F0C0C040
E000E02000E0000000
E000E00000E0000000
E00080E0E0A0000000
300000000000000000
ENDCHAR
STARTCHAR  3071
ENCODING  12401
SWIDTH  1000 0
DWIDTH  10 0
BBX  9 10 1 -1
BITMAP
00000000000040C040
E000000000E0C040C0
E000000000E040C040
E030C0C0C0F0C0C020
E000000000E0000000
E00040C0C0F0C0C080
E000E02000E0000000
E000E01000E0000000
E00080E0E0A0000000
300000000000000000
ENDCHAR
STARTCHAR  3072
ENCODING  12402
SWIDTH  1000 0
DWIDTH  10 0
BBX  10 9 0 0
BITMAP
00000000000000000000
10E0E0E06020E0100000
000040C00000A0C00000
0010E010000030E0E030
00806000000000C00000
00C01000000000E00000
00E01000000000E00000
00808000000080A00000
000080E0E0E080000000
ENDCHAR
STARTCHAR  3073
ENCODING  12403
SWIDTH  1000 0
DWIDTH  10 0
BBX  10 8 0 0
BITMAP
10E0E0E06020A0808060
000060C01000C0E0A0A0
0020E010000040E0E040
00806000000000C00000
00E01000000000E00000
00E01000000000E00000
00808000000080A00000
000080E0E0E080000000
ENDCHAR
STARTCHAR  3074
ENCODING  12404
SWIDTH  1000 0
DWIDTH  10 0
BBX  10 9 0 0
BITMAP
0000000000102020A040
00E0E0E06010E0A040C0
000040A00000A0F0C040
0010E010000030E0E080
00806000000000C00000
00E01000000000E00000
00E01000000000E00000
0080A0000010A0800000
000080E0E0E080000000
ENDCHAR
STARTCHAR  3075
ENCODING  12405
SWIDTH  1000 0
DWIDTH  10 0
BBX  9 8 1 0
BITMAP
00E0E0E0E0E0E0A000
000000000080C02000
00302000E060401000
00A03000E000806000
00E01000E000408000
00E00000E00020C000
30A00000E00000E000
A04080E08000006080
ENDCHAR
STARTCHAR  3076
ENCODING  12406
SWIDTH  1000 0
DWIDTH  10 0
BBX  10 9 1 0
BITMAP
00000000000010406000
00E0E0E0E0E0A0C0C020
0000000020C020000000
00303000E03040100000
00A04000E00080400000
00C01000E00060800000
00E00000E00020A00000
30A00000E00000E00000
A04080E0800000608000
ENDCHAR
STARTCHAR  3077
ENCODING  12407
SWIDTH  1000 0
DWIDTH  10 0
BBX  9 9 1 0
BITMAP
00000000000010A040
20C0C0C0C0E0F040C0
0000000010C060C040
00402000E040600000
00A03000E000A03000
00E00000E000606000
10E00000E00030A000
40A00000E00000E000
A040A0E080000060A0
ENDCHAR
STARTCHAR  3078
ENCODING  12408
SWIDTH  1000 0
DWIDTH  10 0
BBX  10 6 0 1
BITMAP
00000080300000000000
000040C0E02000000000
0000C03040C010000000
0040C0000080A0000000
30C030000000A0800000
00000000000000A0E040
ENDCHAR
STARTCHAR  3079
ENCODING  12409
SWIDTH  1000 0
DWIDTH  10 0
BBX  10 6 0 1
BITMAP
000000803000A0604000
000040E0E0206080A000
0000C04040E010000000
0030C0000080A0000000
30C030000000A0800000
00000000000000A0E040
ENDCHAR
STARTCHAR  307A
ENCODING  12410
SWIDTH  1000 0
DWIDTH  10 0
BBX  9 6 0 1
BITMAP
000020E02000608000
000080E0E010C0C000
0010E010A0A0608000
0060800000C0600000
60C010000010E04000
00000000000030C0E0
ENDCHAR
STARTCHAR  307B
ENCODING  12411
SWIDTH  1000 0
DWIDTH  10 0
BBX  9 10 1 -1
BITMAP
000000000000000000
E000E0E0E0E0E06000
E00000000000E00000
E030E0E0E0E0F0E020
E00000000000E00000
E00000000000E00000
E00080E0C0C0F0C030
E000E0000000E00000
E00080E0C0E0600000
400000000000000000
ENDCHAR
STARTCHAR  307C
ENCODING  12412
SWIDTH  1000 0
DWIDTH  10 0
BBX  9 10 1 -1
BITMAP
000000000000000000
E00060E0E0E0E06030
E000000000E020C0A0
E030E0E0E0F0C0C020
E000000000E0000000
E000000000E0000000
E00080E0E0F0E0E040
E000E01000E0000000
E00080E0E0A0000000
300000000000000000
ENDCHAR
STARTCHAR  307D
ENCODING  12413
SWIDTH  1000 0
DWIDTH  10 0
BBX  9 10 1 -1
BITMAP
00000000000020C040
E000A0C0C0E0E040C0
E000000000E040C040
E030C0C0C0F0C0C020
E000000000E0000000
E000000000E0000000
E00080E0E0F0E0E080
E000E01000E0000000
E00080E0E0A0000000
300000000000000000
ENDCHAR
STARTCHAR  307E
ENCODING  12414
SWIDTH  1000 0
DWIDTH  10 0
BBX  10 9 0 -1
BITMAP
0000000000E000000000
0060E0E0E0F0E0E0C000
0000000000E000000000
00C0C0C0C0F0C0C0C010
0000000000E000000000
0080E0E0E0F0E0E0E000
00E0100000E000000000
0080E0C0E08000000000
00000000000000000000
ENDCHAR
STARTCHAR  307F
ENCODING  12415
SWIDTH  1000 0
DWIDTH  10 0
BBX  10 8 0 0
BITMAP
0040E0E0E0E000000000
0000000020E000008020
0000000060800000E000
00000000C0300040A000
00A0E0E0F0E0E0F0E080
00E00080800000E01000
00E000E0200060A00000
00C0E08030E0E0200000
ENDCHAR
STARTCHAR  3080
ENCODING  12416
SWIDTH  1000 0
DWIDTH  10 0
BBX  10 10 0 -1
BITMAP
00000000400000000000
00000000E00000000000
10C0C0C0F0C0C0C0C010
00000000E000A0100000
0080E0E0FF0060800000
00E01000C01010E01000
00E04020E0100060C000
0060C0F040000000E000
000000C0E0C0C0E08000
00000000000000000000
ENDCHAR
STARTCHAR  3081
ENCODING  12417
SWIDTH  1000 0
DWIDTH  10 0
BBX  10 9 0 0
BITMAP
00000000000020100000
0010C0000000E0100000
0010E0C0C0E0F0A03000
00C0C08000A04040E000
00E010E010E00000E000
00E000A0C0600000E010
00E00030F0100000E000
00E01040A0000010E000
0040C0C020A0C0E06000
ENDCHAR
STARTCHAR  3082
ENCODING  12418
SWIDTH  1000 0
DWIDTH  10 0
BBX  9 10 0 -1
BITMAP
000000100000000000
000000E00000000000
00E0E0FFE0E0E0E040
000000E00000000000
000000E000000000A0
10E0E0FFE0E0E010E0
000000E000000000E0
000000E000000010E0
000000A0E0C0C0E060
000000000000000000
ENDCHAR
STARTCHAR  3083
ENCODING  12419
SWIDTH  1000 0
DWIDTH  10 0
BBX  8 8 1 -1
BITMAP
0030003000000000
00C000A000000000
60E0E0E0E0E08000
006060408000E000
00308000C040E000
0000C030C0E0A000
0000C00000000000
0000401000000000
ENDCHAR
STARTCHAR  3084
ENCODING  12420
SWIDTH  1000 0
DWIDTH  10 0
BBX  9 9 0 -1
BITMAP
002030008020000000
0030A0008060000000
30E0F0E0E0F0C0E060
0000E01000E00010E0
0000A0300080E000E0
0000606000000000E0
000030A000C0C0E060
000000E00000000000
000000800000000000
ENDCHAR
STARTCHAR  3085
ENCODING  12421
SWIDTH  1000 0
DWIDTH  10 0
BBX  7 7 2 0
BITMAP
00000080000000
E080C0F0C06000
E04000E010E000
C00000E000C000
E03000E000E000
E0A0E0F0E06000
8020C0C0000000
ENDCHAR
STARTCHAR  3086
ENCODING  12422
SWIDTH  1000 0
DWIDTH  10 0
BBX  8 9 1 0
BITMAP
0000000040000000
E0000000E0000000
E0A0C0C0F0C0E040
F0400000E00020E0
E0000000E00000E0
E0000000E00000E0
F0801000E00060C0
E060C0C0F0C0A020
3000A0C0A0000000
ENDCHAR
STARTCHAR  3087
ENCODING  12423
SWIDTH  1000 0
DWIDTH  10 0
BBX  7 8 2 -1
BITMAP
00000040000000
000000E0000000
000000F0C0C040
000000E0000000
80C0C0F0C0C080
E00000C0000000
A0C0E080000000
00000000000000
ENDCHAR
STARTCHAR  3088
ENCODING  12424
SWIDTH  1000 0
DWIDTH  10 0
BBX  9 9 1 -1
BITMAP
00000000A000000000
00000000E000000000
00000000FFE0E0E020
00000000E000000000
60C0E0E0FFE0E0E060
E0200000E000000000
E0100000E000000000
80E0E0E08000000000
000000000000000000
ENDCHAR
STARTCHAR  3089
ENCODING  12425
SWIDTH  1000 0
DWIDTH  10 0
BBX  8 9 1 0
BITMAP
0010000000000000
0080E04000000000
200030C0E0E0E060
E000000000000000
E0A0E0C0C0C0E060
E0600000000010E0
40000000000000E0
00000000000020E0
40E0E0E0E0E0E060
ENDCHAR
STARTCHAR  308A
ENCODING  12426
SWIDTH  1000 0
DWIDTH  10 0
BBX  7 8 1 0
BITMAP
C00000000000E0
E00000000000E0
E00000000000E0
E00000000000E0
E01000000000E0
60C0E0400000E0
000000000010E0
0080E0E0E0E080
ENDCHAR
STARTCHAR  308B
ENCODING  12427
SWIDTH  1000 0
DWIDTH  10 0
BBX  10 9 0 -1
BITMAP
00E0E0E0E0E0E0E0E010
000030C0000000000000
0010E0C0C0C0C0A02000
00A0802000000060C000
0030000000000000E000
0080E0C0C0C0C0C0E000
00E0100000000020E000
0080E0C0C0C0C0E04000
00000000000000000000
ENDCHAR
STARTCHAR  308C
ENCODING  12428
SWIDTH  1000 0
DWIDTH  10 0
BBX  10 10 0 -1
BITMAP
00000010000000000000
000000E0000000000000
000000E060E0E0800000
00A0E0FF800000E00000
000000E0000000E00000
000040E0000000E00000
0010E0E0000000E00000
10E040E0000000E00000
000000E0000000A0E010
00000030000000000000
ENDCHAR
STARTCHAR  308D
ENCODING  12429
SWIDTH  1000 0
DWIDTH  10 0
BBX  9 8 1 0
BITMAP
E0E0E0E0E0E0E0E000
000020E03000000000
0010E0401010000000
00C0F0C0C0C0E06000
80A01000000010E000
00000000000000E000
00000000000010E000
40E0E0E0E0E0E06000
ENDCHAR
STARTCHAR  308E
ENCODING  12430
SWIDTH  1000 0
DWIDTH  10 0
BBX  7 7 1 0
BITMAP
00006000000000
0000C060C0C040
30C0F0801010E0
0000C0000000C0
0060F0000000C0
60A0C0000000E0
0000C000C0C080
ENDCHAR
STARTCHAR  308F
ENCODING  12431
SWIDTH  1000 0
DWIDTH  10 0
BBX  10 10 0 -1
BITMAP
00000010000000000000
000000E0000000000000
00A0E0F0C0E0E0E04000
000000F030000010E000
000000E000000000E000
000080E000000000E000
0020C0E000000000E000
00C030E000000010E000
000000E000A0E0E06000
00000030000000000000
ENDCHAR
STARTCHAR  3090
ENCODING  12432
SWIDTH  1000 0
DWIDTH  10 0
BBX  9 8 1 0
BITMAP
40C0C0C0E000000000
00000030C000000000
30A0C0E0E0C0A03000
E04010E0000030E000
E0008080000000E000
E000E010A0E0C0F000
E040A000E00000E000
A0E03000A0E0E08000
ENDCHAR
STARTCHAR  3091
ENCODING  12433
SWIDTH  1000 0
DWIDTH  10 0
BBX  10 9 0 -1
BITMAP
0080C0C0E0E0C0C0C000
00000060C01000000000
000080FFE0E0E0C04000
0060A02000000020C000
000010E000000030C000
000030E0C0C0C0C04000
0010E0E0C080C0E04000
00A0A01000E01020E000
00300000002010003010
ENDCHAR
STARTCHAR  3092
ENCODING  12434
SWIDTH  1000 0
DWIDTH  10 0
BBX  10 10 0 -1
BITMAP
00000000000000000000
00000080600000000000
10C0E0F0C0C0C0C0C010
00006060000000000000
0000E0E0E0C0A0000000
0040C040C0E0F0E0C000
00C030C03000E0000000
004000E0100060000000
00000060E0C0C0C0C010
00000000000000000000
ENDCHAR
STARTCHAR  3093
ENCODING  12435
SWIDTH  1000 0
DWIDTH  10 0
BBX  9 10 1 -1
BITMAP
000000000000000000
0000A0400000000000
0000E0000000000000
0040A0000000000000
0080C0E0E080000000
00E0600000E00000C0
20C0000000E00000E0
6080000000E00020C0
C030000000A0E0E060
100000000000000000
ENDCHAR
STARTCHAR  30A1
ENCODING  12449
SWIDTH  1000 0
DWIDTH  10 0
BBX  7 6 1 0
BITMAP
60C0C0C0C0C0F0
000000C00000C0
000000E0004080
000010F0C0C020
000020C0000000
00C0E080000000
ENDCHAR
STARTCHAR  30A2
ENCODING  12450
SWIDTH  1000 0
DWIDTH  10 0
BBX  10 8 0 0
BITMAP
10E0E0E0E0E0E0E0E020
0000000030000000E000
00000000E0000040A000
00000000E00000806000
00000000FFE0E0C01000
00000010E00000000000
00000030C00000000000
0060E0E0600000000000
ENDCHAR
STARTCHAR  30A3
ENCODING  12451
SWIDTH  1000 0
DWIDTH  10 0
BBX  8 7 1 0
BITMAP
000000000020A020
0000000040C02000
00000080E0000000
10C0E060C0000000
00000000C0000000
00000000C0000000
00000000C0000000
ENDCHAR
STARTCHAR  30A4
ENCODING  12452
SWIDTH  1000 0
DWIDTH  10 0
BBX  9 9 1 -1
BITMAP
00000000000060C020
0000000010A0A01000
00000020E080000000
000060E0E000000000
A0E0A010E000000000
00000000E000000000
00000000E000000000
00000000E000000000
000000008000000000
ENDCHAR
STARTCHAR  30A5
ENCODING  12453
SWIDTH  1000 0
DWIDTH  10 0
BBX  6 7 2 0
BITMAP
000000200000
000000E00000
F0C0C0C0C0F0
E000000000E0
C000000000E0
0000000000E0
0060C0C0E0A0
ENDCHAR
STARTCHAR  30A6
ENCODING  12454
SWIDTH  1000 0
DWIDTH  10 0
BBX  8 9 1 0
BITMAP
0000003000000000
000000E000000000
C0E0E0F0E0E0E0C0
E0000000000000E0
E0000000000000E0
C0000000000000E0
00000000000000E0
00000000000010E0
0040E0E0E0E0E060
ENDCHAR
STARTCHAR  30A7
ENCODING  12455
SWIDTH  1000 0
DWIDTH  10 0
BBX  7 6 2 0
BITMAP
C0C0C0F0C0C010
000000C0000000
000000C0000000
000000C0000000
000000C0000000
C0C0C0F0C0C080
ENDCHAR
STARTCHAR  30A8
ENCODING  12456
SWIDTH  1000 0
DWIDTH  10 0
BBX  10 8 0 0
BITMAP
00E0E0E0E0E0E0E08000
0000000000E000000000
0000000000E000000000
0000000000E000000000
0000000000E000000000
0000000000E000000000
0000000000E000000000
10E0E0E0E0FFE0E0E020
ENDCHAR
STARTCHAR  30A9
ENCODING  12457
SWIDTH  1000 0
DWIDTH  10 0
BBX  7 7 2 0
BITMAP
00000000008000
0000000000C000
A0C0E0C0C0F060
0000C00000C000
0040800000C000
00A0300000C000
C0A010C0C08000
ENDCHAR
STARTCHAR  30AA
ENCODING  12458
SWIDTH  1000 0
DWIDTH  10 0
BBX  10 9 0 0
BITMAP
00000000000000200000
00000000000000E00000
10E0E0E0E0E0E0F0E020
00000080600000E00000
000000E0200000E00000
000010E0000000E00000
00006080000000E00000
0000A030000010E00000
20E0C000A0E0E0600000
ENDCHAR
STARTCHAR  30AB
ENCODING  12459
SWIDTH  1000 0
DWIDTH  10 0
BBX  9 9 0 0
BITMAP
000000103000000000
000000608000000000
00E0E0E0E0E0E0E0A0
000000E010000000E0
000010E000000000E0
000040A000000000E0
0000806000000000E0
0000E01000000010E0
10E0A00060E0E0E060
ENDCHAR
STARTCHAR  30AC
ENCODING  12460
SWIDTH  1000 0
DWIDTH  10 0
BBX  10 9 0 0
BITMAP
00000010400020406000
00000040A00010E0A060
00000080600000000000
00E0E0F0E0E0E0E0E000
000000E000000000E000
000030A000000000E000
0000806000000000E000
0000C02000000010E000
10E0A00060E0E0E06000
ENDCHAR
STARTCHAR  30AD
ENCODING  12461
SWIDTH  1000 0
DWIDTH  10 0
BBX  10 10 0 -1
BITMAP
00000020400000000000
00000030A00000000000
00E0E0E0F0E0E0E06000
00000000E00000000000
00000000E00000000000
00000000A02000000000
10E0E0E0E0E0E0E0E020
00000000606000000000
00000000408000000000
00000000104000000000
ENDCHAR
STARTCHAR  30AE
ENCODING  12462
SWIDTH  1000 0
DWIDTH  10 0
BBX  10 10 0 -1
BITMAP
00000000401040404000
00000000A03030C0E000
0060E0E0E0E0E0E0E000
00000000608000000000
00000000408000000000
0000000020A000000000
10E0E0E0E0F0E0E0E020
0000000000E000000000
0000000000C010000000
00000000004010000000
ENDCHAR
STARTCHAR  30AF
ENCODING  12463
SWIDTH  1000 0
DWIDTH  10 0
BBX  10 9 0 0
BITMAP
00000000000000000000
000000E0200000000000
000040F0C0C0C0C0E010
0000A04000000020E000
0020E000000000806000
10E04000000010E00000
00000000000080800000
000000000010E0100000
0040C0C0C0E060000000
ENDCHAR
STARTCHAR  30B0
ENCODING  12464
SWIDTH  1000 0
DWIDTH  10 0
BBX  10 9 0 0
BITMAP
00000040200040306000
000000E0100030C0C040
000060F0E0E0E0E0E010
0000C04000000020E000
0020C000000000806000
10E04000000010E00000
00000000000060800000
000000000010E0100000
0040C0C0C0E060000000
ENDCHAR
STARTCHAR  30B1
ENCODING  12465
SWIDTH  1000 0
DWIDTH  10 0
BBX  10 9 0 0
BITMAP
00001020000000000000
00008040000000000000
0000E0E0C0C0C0C0C030
0020C000000000E00000
00806000000030A00000
40C01000000080600000
000000000000C0200000
000000000020E0000000
0030E0E0C0E040000000
ENDCHAR
STARTCHAR  30B2
ENCODING  12466
SWIDTH  1000 0
DWIDTH  10 0
BBX  10 9 0 0
BITMAP
00001020000040304000
00006080000030C0C030
0000A0E0C0C0C0C0C030
0000E000000000E01000
0040A000000020C00000
20C03000000060800000
000000000000A0300000
000000000010E0000000
0030E0E0C0E060000000
ENDCHAR
STARTCHAR  30B3
ENCODING  12467
SWIDTH  1000 0
DWIDTH  10 0
BBX  9 8 0 0
BITMAP
20E0C0C0C0C0C0C0C0
0000000000000000E0
0000000000000000E0
0000000000000000E0
0000000000000000E0
0000000000000000E0
0000000000000020E0
10C0C0C0C0C0C0E040
ENDCHAR
STARTCHAR  30B4
ENCODING  12468
SWIDTH  1000 0
DWIDTH  10 0
BBX  10 9 0 0
BITMAP
00000000000040406000
10E0E0E0E0E0E0E0F040
0000000000000000E000
0000000000000000E000
0000000000000000E000
0000000000000000E000
0000000000000000E000
0000000000000020E000
10E0E0E0E0E0E0E06000
ENDCHAR
STARTCHAR  30B5
ENCODING  12469
SWIDTH  1000 0
DWIDTH  10 0
BBX  10 8 0 0
BITMAP
0000E000000000E00000
0000E000000000E00000
30E0F0E0E0E0E0F0E030
0000E000000000E00000
0000E000000000E00000
0000C000000000E00000
00000000000020E00000
000020E0E0E0E0400000
ENDCHAR
STARTCHAR  30B6
ENCODING  12470
SWIDTH  1000 0
DWIDTH  10 0
BBX  10 8 1 0
BITMAP
00E000000000E0A06000
00E000000000E0808020
E0FFE0E0E0E0F0E06000
00E000000000E0000000
00E000000000E0000000
00E000000000E0000000
000000000020C0000000
00A0E0E0E0E040000000
ENDCHAR
STARTCHAR  30B7
ENCODING  12471
SWIDTH  1000 0
DWIDTH  10 0
BBX  10 9 0 0
BITMAP
00301000000000000000
0080A000000000000000
0000C060000000000000
006030C0E0400010E010
0060C000000000A06000
000080E0E04040C00000
000000000010E0200000
0000000000A060000000
00A0E0E0E08000000000
ENDCHAR
STARTCHAR  30B8
ENCODING  12472
SWIDTH  1000 0
DWIDTH  10 0
BBX  10 9 0 0
BITMAP
00602000000040306000
0060A000000030C0C030
0000C060000000000000
006020A0E0400010E010
0060C000000000A06000
000080E0E04060C00000
000000000010E0200000
0000000000A060000000
00A0E0E0E08000000000
ENDCHAR
STARTCHAR  30B9
ENCODING  12473
SWIDTH  1000 0
DWIDTH  10 0
BBX  10 8 0 0
BITMAP
00C0E0E0E0E0E0E00000
00000000000080800000
000000000030C0000000
0000000010E020000000
00000000A0A000000000
00000060A0C040000000
000020E01010E0300000
10E0E030000030E0E020
ENDCHAR
STARTCHAR  30BA
ENCODING  12474
SWIDTH  1000 0
DWIDTH  10 0
BBX  10 9 0 0
BITMAP
00000000000000606020
00E0E0E0E0E0E080A080
000000000030A0000000
0000000000C020000000
00000000608000000000
00000010E0C000000000
0000008040A080000000
000030C00010E0400000
10E0E030000030E0E020
ENDCHAR
STARTCHAR  30BB
ENCODING  12475
SWIDTH  1000 0
DWIDTH  10 0
BBX  10 9 0 0
BITMAP
00001000000000000000
0000E000000000000000
0000E040608080A0C000
20C0F08060403030C000
0000E000000000606000
0000E000000000C02000
0000E00040E0E0800000
0000E020000000000000
000060E0C0C0C0C0C010
ENDCHAR
STARTCHAR  30BC
ENCODING  12476
SWIDTH  1000 0
DWIDTH  10 0
BBX  10 9 0 0
BITMAP
00004000000060304000
0000E000000040C0E020
0000E030406080A0A000
20C0F0A080604040C000
0000E000000000606000
0000E000000000E01000
0000E00040C0E0800000
0000E020000000000000
000060E0E0E0E0E0E010
ENDCHAR
STARTCHAR  30BD
ENCODING  12477
SWIDTH  1000 0
DWIDTH  10 0
BBX  10 9 0 0
BITMAP
00200000000000002000
00E0100000000000E000
0080600000000040A000
0030C000000000A04000
0000E030000010E00000
000040C0C00060800000
000000000000C0300000
000000000030E0000000
0040E0E0E0E040000000
ENDCHAR
STARTCHAR  30BE
ENCODING  12478
SWIDTH  1000 0
DWIDTH  10 0
BBX  10 9 0 0
BITMAP
00200000000040304000
00E01000000030C0C030
0080600000000010A000
0030C000000000608000
0000E030000000E02000
000040C0C00040A00000
000000000000A0400000
000000000030E0000000
0040E0E0E0E040000000
ENDCHAR
STARTCHAR  30BF
ENCODING  12479
SWIDTH  1000 0
DWIDTH  10 0
BBX  10 9 0 0
BITMAP
00000000000000000000
000000E0100000000000
000040F0E0E0E0E0C000
0000C020000000608000
0030C060400000C02000
20C03020E02040A00000
0000000030E0C0300000
000000000080F0200000
00A0E0E0E0C060C0E020
ENDCHAR
STARTCHAR  30C0
ENCODING  12480
SWIDTH  1000 0
DWIDTH  10 0
BBX  10 9 0 0
BITMAP
00000020100030304000
000000E0100020C0C040
000040F0E0E0E0E0A000
0000C02000000040A000
0020C060400000C02000
20C03020E03030A00000
0000000030E0C0400000
000000000060F0300000
00A0E0E0E0E060C0E020
ENDCHAR
STARTCHAR  30C1
ENCODING  12481
SWIDTH  1000 0
DWIDTH  10 0
BBX  10 9 0 0
BITMAP
00000000000000004000
0080E0E0E0E0E0E0C000
0000000000E000000000
0000000000E000000000
00E0E0E0E0FFE0E0E010
0000000000E000000000
0000000000E000000000
0000000010E000000000
0060E0E0E06000000000
ENDCHAR
STARTCHAR  30C2
ENCODING  12482
SWIDTH  1000 0
DWIDTH  10 0
BBX  10 9 0 0
BITMAP
00000000000000004000
0080E0E0E0E0E0E0C000
0000000000E000000000
0000000000E000000000
00E0E0E0E0FFE0E0E010
0000000000E020403000
0000000000E010E0C010
0000000010E000000000
0060E0E0E06000000000
ENDCHAR
STARTCHAR  30C3
ENCODING  12483
SWIDTH  1000 0
DWIDTH  10 0
BBX  8 7 1 0
BITMAP
3060008000006030
20A000A02000A020
00C000804000C000
00C010408010A000
0040C010A0A08000
0000000000A04000
00A0C0C0C0A00000
ENDCHAR
STARTCHAR  30C4
ENCODING  12484
SWIDTH  1000 0
DWIDTH  10 0
BBX  10 9 0 0
BITMAP
10300000400000003010
10E00000E0000000C010
00E00000A0200000E000
00A0200080400030A000
00806000608000606000
0020C0A010A080A03000
00000000000000E00000
00000000000040C00000
0060E0E0E0E0E0300000
ENDCHAR
STARTCHAR  30C5
ENCODING  12485
SWIDTH  1000 0
DWIDTH  10 0
BBX  10 9 0 0
BITMAP
10400000400030304000
10E00000E00030C0C040
00E00000A02000008010
00A0200080400010E000
0080600060800040A000
0020C0A010A080A04000
00000000000000E01000
00000000000040C00000
0060E0E0E0E0E0300000
ENDCHAR
STARTCHAR  30C6
ENCODING  12486
SWIDTH  1000 0
DWIDTH  10 0
BBX  10 8 0 0
BITMAP
00C0C0C0C0C0C0C06000
00000000000000000000
00000000000000000000
10C0C0C0F0E0C0C0C020
00000000C02000000000
00000000E00000000000
00000020E00000000000
10E0E0E0600000000000
ENDCHAR
STARTCHAR  30C7
ENCODING  12487
SWIDTH  1000 0
DWIDTH  10 0
BBX  10 8 0 0
BITMAP
00C0C0C0C0C0C0C06000
00000000000000000000
00000000000000000000
10C0C0C0F0E0C0C0C020
00000000C02060401000
00000000E000A0A0E010
00000020E00000000000
10E0E0E0600000000000
ENDCHAR
STARTCHAR  30C8
ENCODING  12488
SWIDTH  1000 0
DWIDTH  10 0
BBX  7 10 2 -1
BITMAP
00000000000000
E0000000000000
E0003010000000
E0008080000000
E00010E0000000
E00000A0400000
E0000030C01000
E000000080E080
E0000000000000
40000000000000
ENDCHAR
STARTCHAR  30C9
ENCODING  12489
SWIDTH  1000 0
DWIDTH  10 0
BBX  7 10 2 -1
BITMAP
10000000000000
E0000020A0C000
E0000000A08060
E0008060000000
E00020E0000000
E00000A0400000
E0000040C01000
E000000080E080
E0000000000000
30000000000000
ENDCHAR
STARTCHAR  30CA
ENCODING  12490
SWIDTH  1000 0
DWIDTH  10 0
BBX  10 8 0 0
BITMAP
0000000000A000000000
0000000000E000000000
0000000000E000000000
10E0E0E0E0FFE0E0E020
0000000000E000000000
0000000000E000000000
0000000010E000000000
0060E0E0E06000000000
ENDCHAR
STARTCHAR  30CB
ENCODING  12491
SWIDTH  1000 0
DWIDTH  10 0
BBX  10 8 0 0
BITMAP
0080E0E0E0E0E0E0E000
00000000000000000000
00000000000000000000
00000000000000000000
00000000000000000000
00000000000000000000
00000000000000000000
10E0E0E0E0E0E0E0E030
ENDCHAR
STARTCHAR  30CC
ENCODING  12492
SWIDTH  1000 0
DWIDTH  10 0
BBX  9 8 1 0
BITMAP
E0E0E0E0E0E0E0E000
00000000000040A000
30C030000010E02000
0020E0400080800000
000010C080E0000000
00000000E0A0000000
00000060A080E0E020
A0E0E0C01000000000
ENDCHAR
STARTCHAR  30CD
ENCODING  12493
SWIDTH  1000 0
DWIDTH  10 0
BBX  9 10 1 -1
BITMAP
000000000000000000
00000000E000000000
A0E0E0E0E0E0E0F000
000000000060C03000
00000010A0E0300000
000060E0E010C01000
E0E0C020E00060E080
00000000E000000000
00000000E000000000
000000004000000000
ENDCHAR
STARTCHAR  30CE
ENCODING  12494
SWIDTH  1000 0
DWIDTH  10 0
BBX  9 9 0 0
BITMAP
000000000000001030
000000000000008080
00000000000010E010
000000000000A06000
000000000020E00000
0000000000A0600000
0000000030E0000000
00000000C040000000
10E0E0E08000000000
ENDCHAR
STARTCHAR  30CF
ENCODING  12495
SWIDTH  1000 0
DWIDTH  10 0
BBX  9 9 1 0
BITMAP
000020100030000000
0000A03000C0200000
0000E0000080600000
0020C0000040A00000
006080000010E00000
00A040000000E01000
00E010000000A04000
10E000000000608000
E0600000000010E060
ENDCHAR
STARTCHAR  30D0
ENCODING  12496
SWIDTH  1000 0
DWIDTH  10 0
BBX  9 8 1 0
BITMAP
0000802000A0808030
0000E00000A0608080
0010C0000060800000
006080000020C00000
008040000000E00000
00C010000000A04000
10E000000000608000
E0800000000010E060
ENDCHAR
STARTCHAR  30D1
ENCODING  12497
SWIDTH  1000 0
DWIDTH  10 0
BBX  9 8 1 0
BITMAP
00008010106080C080
0000E00000E060C060
0030A00000A0400000
006060000060800000
00A030000010E00000
00E000000000C02000
10C000000000806000
E0600000000020E060
ENDCHAR
STARTCHAR  30D2
ENCODING  12498
SWIDTH  1000 0
DWIDTH  10 0
BBX  9 9 1 0
BITMAP
300000000000000000
E00000000000000000
E0000000000030C000
E00000000000C04000
E0E0E0E0E0E0800000
E00000000000000000
E00000000000000000
E01000000000000000
60E0C0C0C0C0C0C000
ENDCHAR
STARTCHAR  30D3
ENCODING  12499
SWIDTH  1000 0
DWIDTH  10 0
BBX  9 8 1 0
BITMAP
C00000000080606000
E0000000004080E010
E00000000000808000
E0E0E0E0E0E0A00000
E00000000000000000
E00000000000000000
E01000000000000000
60E0C0C0C0C0C0C000
ENDCHAR
STARTCHAR  30D4
ENCODING  12500
SWIDTH  1000 0
DWIDTH  10 0
BBX  8 8 1 0
BITMAP
E00000000000A0C0
E00000000000A0E0
E000000000008060
E0E0E0E0E0E08000
E000000000000000
E000000000000000
E010000000000000
60E0C0C0C0C0C0C0
ENDCHAR
STARTCHAR  30D5
ENCODING  12501
SWIDTH  1000 0
DWIDTH  10 0
BBX  10 8 0 0
BITMAP
10E0E0E0E0E0E0E0E010
0000000000000010E000
00000000000000608000
00000000000000E02000
00000000000040A00000
000000000000A0400000
000000000030E0000000
0080E0E0E0E030000000
ENDCHAR
STARTCHAR  30D6
ENCODING  12502
SWIDTH  1000 0
DWIDTH  10 0
BBX  10 8 0 0
BITMAP
10E0E0E0E0E0E0E0E000
0000000000000030C000
00000000000000A04000
00000000000020E00000
000000000000A0600000
000000000020E0406000
0000000000A060C0A060
0080E0E0E0A000000000
ENDCHAR
STARTCHAR  30D7
ENCODING  12503
SWIDTH  1000 0
DWIDTH  10 0
BBX  10 8 0 0
BITMAP
10E0E0E0E0E0E0E0E010
0000000000000030E000
00000000000000A06000
00000000000020E00000
000000000000A0600000
000000000010E0808000
0000000000A080C0C000
0080E0E0E0A000808000
ENDCHAR
STARTCHAR  30D8
ENCODING  12504
SWIDTH  1000 0
DWIDTH  10 0
BBX  10 8 0 0
BITMAP
000000A0300000000000
000030C0C00000000000
0000A040808000000000
0000E00000E020000000
006080000040C0000000
30E020000000A0600000
00000000000010E02000
0000000000000030C040
ENDCHAR
STARTCHAR  30D9
ENCODING  12505
SWIDTH  1000 0
DWIDTH  10 0
BBX  10 8 0 0
BITMAP
00000040100080603000
000020F0A0006080A000
00008080C04000000000
0000E01020E010000000
0040A0000060A0000000
30E030000000C0600000
00000000000020E02000
0000000000000040C040
ENDCHAR
STARTCHAR  30DA
ENCODING  12506
SWIDTH  1000 0
DWIDTH  10 0
BBX  9 8 0 0
BITMAP
000010600000608000
000080FF6000C0C000
0000E040E010608000
0040C00060A0000000
00A0400000C0400000
80C000000020E01000
00000000000060A000
0000000000000080A0
ENDCHAR
STARTCHAR  30DB
ENCODING  12507
SWIDTH  1000 0
DWIDTH  10 0
BBX  10 9 0 0
BITMAP
00000000003000000000
0000000000E000000000
10E0E0E0E0F0E0E0E010
0000203000E000400000
0000806000E000E00000
0000C04000E000C01000
0000F01000E000804000
0040E00000E000608000
20C04060E0800010C030
ENDCHAR
STARTCHAR  30DC
ENCODING  12508
SWIDTH  1000 0
DWIDTH  10 0
BBX  10 9 0 0
BITMAP
00000000006010404000
0000000000E000C0A080
0000000000E000000000
10E0E0F0E0F0E0FFE010
0000806000E000C02000
0000C03000E000804000
0000F00000E000608000
0040C00000E00030C000
30C04060E0A00000A080
ENDCHAR
STARTCHAR  30DD
ENCODING  12509
SWIDTH  1000 0
DWIDTH  10 0
BBX  10 9 0 0
BITMAP
00000000002000608000
0000000000E000C0C000
0000000000E000608000
10E0F0F0E0F0E0FFE010
0000A06000E010C00000
0000E02000E000E00000
0010E00000E000C01000
0040C00000E000804000
20C04080E0800030C010
ENDCHAR
STARTCHAR  30DE
ENCODING  12510
SWIDTH  1000 0
DWIDTH  10 0
BBX  10 8 0 0
BITMAP
10E0E0E0E0E0E0E0E010
0000000000000040C000
00000000000010E02000
0030E0200000A0600000
000040E01060C0000000
00000060C0E020000000
0000000060C000000000
000000000080E0E08000
ENDCHAR
STARTCHAR  30DF
ENCODING  12511
SWIDTH  1000 0
DWIDTH  10 0
BBX  10 8 0 0
BITMAP
0040C020000000000000
000040E0400000000000
00202020A0E0E0E0E000
0020A080100000000000
10300060E0E0E0E0E000
0080C010000000000000
000040E0300000000000
00000030C0E0E0E0E010
ENDCHAR
STARTCHAR  30E0
ENCODING  12512
SWIDTH  1000 0
DWIDTH  10 0
BBX  10 9 0 0
BITMAP
00000000201000000000
00000010E01000000000
00000080800000000000
000000E0100000000000
000060A0000080600000
0000E030000020E00000
0040C000000000A04000
00C0400000000030C000
00FFE0E0E0E0E0E0F000
ENDCHAR
STARTCHAR  30E1
ENCODING  12513
SWIDTH  1000 0
DWIDTH  10 0
BBX  9 9 1 0
BITMAP
000000000000101000
001000000000C04000
20E030000060A00000
0030E02010E0200000
000040E0A080000000
00000080F010000000
000000C0C0A0000000
000060A00080E0E010
E0E0C0100000000000
ENDCHAR
STARTCHAR  30E2
ENCODING  12514
SWIDTH  1000 0
DWIDTH  10 0
BBX  10 8 0 0
BITMAP
00E0E0E0E0E0E0E06000
00000000E00000000000
00000000E00000000000
10E0E0E0F0E0E0E0E020
00000000E00000000000
00000000E00000000000
00000000E00000000000
00000000A0E0E0E0A000
ENDCHAR
STARTCHAR  30E3
ENCODING  12515
SWIDTH  1000 0
DWIDTH  10 0
BBX  8 7 1 0
BITMAP
0010800000000000
0000C04080A0C030
30A0C0603010C010
0000606000408000
000020A080E02000
000000C000000000
000000A010000000
ENDCHAR
STARTCHAR  30E4
ENCODING  12516
SWIDTH  1000 0
DWIDTH  10 0
BBX  10 10 0 -1
BITMAP
00001000000000000000
0000A030000000000000
00006080306080C0E010
00A0C0F080603020E000
002000E0100000806000
000000A0400010E01000
00000040A080C0600000
00000010E00000000000
00000000C02000000000
00000000201000000000
ENDCHAR
STARTCHAR  30E5
ENCODING  12517
SWIDTH  1000 0
DWIDTH  10 0
BBX  7 6 2 0
BITMAP
80C0C0C0C0E000
0000000000E000
0000000000E000
0000000000E000
0000000000E000
C0C0C0C0C0F080
ENDCHAR
STARTCHAR  30E6
ENCODING  12518
SWIDTH  1000 0
DWIDTH  10 0
BBX  9 8 1 0
BITMAP
20E0E0E0E0E0E0C000
00000000000000E000
00000000000000E000
00000000000000E000
00000000000000E000
00000000000000E000
00000000000000E000
E0E0E0E0E0E0E0F060
ENDCHAR
STARTCHAR  30E7
ENCODING  12519
SWIDTH  1000 0
DWIDTH  10 0
BBX  7 6 1 0
BITMAP
60C0C0C0C0C0F0
000000000000C0
10C0C0C0C0C0F0
000000000000C0
000000000000E0
40C0C0C0C0C0A0
ENDCHAR
STARTCHAR  30E8
ENCODING  12520
SWIDTH  1000 0
DWIDTH  10 0
BBX  9 8 0 0
BITMAP
00E0E0E0E0E0E0E0C0
0000000000000000E0
0000000000000000E0
0080E0E0E0E0E0E0F0
0000000000000000E0
0000000000000000E0
0000000000000010E0
10E0E0E0E0E0E0E060
ENDCHAR
STARTCHAR  30E9
ENCODING  12521
SWIDTH  1000 0
DWIDTH  10 0
BBX  10 8 0 0
BITMAP
0020E0E0E0E0E0E0E000
00000000000000000000
10E0E0E0E0E0E0E0E010
00000000000000008000
00000000000000208000
00000000000000801000
00000000000020800000
0000C0E0E0C0C0100000
ENDCHAR
STARTCHAR  30EA
ENCODING  12522
SWIDTH  1000 0
DWIDTH  10 0
BBX  7 8 2 0
BITMAP
C00000000000E0
E00000000000E0
E00000000000E0
E00000000000E0
E00000000000E0
E00000000000E0
600000000020E0
00C0E0E0E0E060
ENDCHAR
STARTCHAR  30EB
ENCODING  12523
SWIDTH  1000 0
DWIDTH  10 0
BBX  10 9 0 0
BITMAP
00001010000040000000
000060600000E0000000
000080400000E0000000
0000A0300000E0000000
0000C0100000E0000000
0000C0000000E0000000
0000C0000000E0000000
0020A0000000E0000000
20E06000000080E0E020
ENDCHAR
STARTCHAR  30EC
ENCODING  12524
SWIDTH  1000 0
DWIDTH  10 0
BBX  8 10 1 -1
BITMAP
2000000000000000
E000000000000000
E000000000000000
E0000000000000A0
E0000000000010C0
E0000000000040A0
E00000000000A060
E00000001080C000
E0C0C0E0E0800000
0000000000000000
ENDCHAR
STARTCHAR  30ED
ENCODING  12525
SWIDTH  1000 0
DWIDTH  10 0
BBX  8 8 1 0
BITMAP
A0E0E0E0E0E0E0A0
E0000000000000E0
E0000000000000E0
E0000000000000E0
E0000000000000E0
E0000000000000E0
E0000000000040C0
E0E0E0E0E0E0E040
ENDCHAR
STARTCHAR  30EE
ENCODING  12526
SWIDTH  1000 0
DWIDTH  10 0
BBX  6 6 2 0
BITMAP
F0C0C0C0C0F0
E000000000E0
E000000000E0
A000000000E0
0000000000E0
0080C0C0C0A0
ENDCHAR
STARTCHAR  30EF
ENCODING  12527
SWIDTH  1000 0
DWIDTH  10 0
BBX  8 8 1 0
BITMAP
C0E0E0E0E0E0E0C0
E0000000000000E0
E0000000000000E0
E0000000000000E0
C0000000000000E0
00000000000000E0
00000000000010E0
0030E0E0E0E0E040
ENDCHAR
STARTCHAR  30F0
ENCODING  12528
SWIDTH  1000 0
DWIDTH  10 0
BBX  10 10 0 -1
BITMAP
00000000000010000000
000000000000E0000000
0080E0E0E0E0F0E0E000
0000E0000000E0000000
0000E0000000E0000000
0000E0000000E0000000
20E0F0E0E0E0F0E0E020
000000000000E0000000
000000000000E0000000
00000000000040000000
ENDCHAR
STARTCHAR  30F1
ENCODING  12529
SWIDTH  1000 0
DWIDTH  10 0
BBX  10 8 0 0
BITMAP
00E0E0E0E0E0E0E0A000
00000000000000A06000
000000000010C0600000
0000000000F060000000
0000000000E000000000
0000000000E000000000
0000000000E000000000
10E0E0E0E0FFE0E0E020
ENDCHAR
STARTCHAR  30F2
ENCODING  12530
SWIDTH  1000 0
DWIDTH  10 0
BBX  10 8 0 0
BITMAP
00E0E0E0E0E0E0E0E010
0000000000000000E000
0000000000000020C000
00A0E0E0E0E0E0E08000
00000000000000806000
00000000000000C02000
00000000000010E00000
0010E0E0E0E0E0600000
ENDCHAR
STARTCHAR  30F3
ENCODING  12531
SWIDTH  1000 0
DWIDTH  10 0
BBX  10 9 0 0
BITMAP
00400000000000000000
00A04000000000001000
0040A00000000020E010
0000A0E0E00000A04000
00000000000040C00000
000000000010E0200000
00000000008080000000
0000000030E000000000
00E0E0E0E03000000000
ENDCHAR
STARTCHAR  30F4
ENCODING  12532
SWIDTH  1000 0
DWIDTH  10 0
BBX  9 9 1 0
BITMAP
000000003000403000
00000000E00080A0C0
C0E0E0E0F0E0E0C000
E0000000000000E000
E0000000000000E000
C0000000000000E000
00000000000000E000
00000000000010E000
0010E0E0E0E0E06000
ENDCHAR
STARTCHAR  30F5
ENCODING  12533
SWIDTH  1000 0
DWIDTH  10 0
BBX  7 7 1 0
BITMAP
00000010000000
00003080000000
30C0E0E0C0C0F0
0000C0100000C0
0010C0000000C0
004080000000C0
40E02080C0C0A0
ENDCHAR
STARTCHAR  30F6
ENCODING  12534
SWIDTH  1000 0
DWIDTH  10 0
BBX  8 7 1 0
BITMAP
0000100000000000
0000C00000000000
0040E0C0C0E0E060
00A0400000804000
40A0000000C00000
0000000030A00000
0060C0C0E0300000
ENDCHAR
STARTCHAR  3105
ENCODING  12549
SWIDTH  1000 0
DWIDTH  10 0
BBX  7 8 1 0
BITMAP
00008000000000
0000C000000010
00608080A0C0E0
00A060100000C0
000000000020A0
00000000004080
0000000010A030
00000000A0A000
ENDCHAR
STARTCHAR  3106
ENCODING  12550
SWIDTH  1000 0
DWIDTH  10 0
BBX  7 9 1 -1
BITMAP
00001000000000
00008040000000
0010603080A000
0080603020C000
00002040803000
00000060C00000
0000408040A000
10604000008060
00000000000000
ENDCHAR
STARTCHAR  3107
ENCODING  12551
SWIDTH  1000 0
DWIDTH  10 0
BBX  8 7 1 0
BITMAP
0000000000001000
0080808080A0E000
00E000000000C000
00C000000000C000
00C010000000C000
00C020000000A000
0010000000001000
ENDCHAR
STARTCHAR  3108
ENCODING  12552
SWIDTH  1000 0
DWIDTH  10 0
BBX  8 7 1 0
BITMAP
0060606080A0A000
00C0602000000000
00C0100000000000
00C0000000000000
00E0000000000000
00C0400000103010
0030C0C0E0E0C060
ENDCHAR
STARTCHAR  3109
ENCODING  12553
SWIDTH  1000 0
DWIDTH  10 0
BBX  7 9 1 -1
BITMAP
00006000000000
0020A000000000
00A06080A0E0C0
008040E00000C0
000010A0002080
00008030004060
0040800000A020
4040000080A000
00000000000000
ENDCHAR
STARTCHAR  310A
ENCODING  12554
SWIDTH  1000 0
DWIDTH  10 0
BBX  8 7 1 0
BITMAP
0000006040000000
0000006040000000
60C0C0E0E0C0C080
000000C020000000
0000308000200000
0020A06080C03000
0030803000304000
ENDCHAR
STARTCHAR  310B
ENCODING  12555
SWIDTH  1000 0
DWIDTH  10 0
BBX  8 8 1 0
BITMAP
0000002060300000
00A0A06080800000
00000000A0000000
00000060C080E000
000000000000A000
000000000000A000
0000000010606000
0000000040C00000
ENDCHAR
STARTCHAR  310C
ENCODING  12556
SWIDTH  1000 0
DWIDTH  10 0
BBX  8 9 1 -1
BITMAP
0000000060000000
00008000E0000000
0010A000C0000000
00608080E0A0E030
004040606000A010
000000A01000A000
000040600020A000
0040600030E04000
0010000000200000
ENDCHAR
STARTCHAR  310D
ENCODING  12557
SWIDTH  1000 0
DWIDTH  10 0
BBX  6 8 2 0
BITMAP
001000002000
00803000C010
00A00010A000
404000602000
803000802000
00C01010C010
0040A0006080
000060000040
ENDCHAR
STARTCHAR  310E
ENCODING  12558
SWIDTH  1000 0
DWIDTH  10 0
BBX  8 8 1 0
BITMAP
0000000000204000
A0A0A0C080806020
0000406000000000
0000C0A0A0C00000
0000200000A00000
0000000010A00000
0000002060600000
00000040C0000000
ENDCHAR
STARTCHAR  310F
ENCODING  12559
SWIDTH  1000 0
DWIDTH  10 0
BBX  9 9 1 -1
BITMAP
000000000000001000
00A0E0E0E0E0E0C000
0010C0000000000000
0000C0000000000000
0000C0000000000000
002080000000000000
006040000000000000
008000000000000000
101000000000000000
ENDCHAR
STARTCHAR  3110
ENCODING  12560
SWIDTH  1000 0
DWIDTH  10 0
BBX  5 9 2 -1
BITMAP
0000000060
00601000E0
00A04000A0
00A01000A0
00A00030A0
30E0A060A0
00200000A0
00000000A0
0000000030
ENDCHAR
STARTCHAR  3111
ENCODING  12561
SWIDTH  1000 0
DWIDTH  10 0
BBX  4 8 3 0
BITMAP
00001000
0000C000
00606000
10A00000
60400000
00A06000
0000A060
00001080
ENDCHAR
STARTCHAR  3112
ENCODING  12562
SWIDTH  1000 0
DWIDTH  10 0
BBX  8 9 1 -1
BITMAP
0000000000000000
00A0C0C0E0E0F0E0
00404020E0000000
00000000C0000000
00000000C0000000
00000000C0000000
00000000E0000000
00000000E0000000
0000000010000000
ENDCHAR
STARTCHAR  3113
ENCODING  12563
SWIDTH  1000 0
DWIDTH  10 0
BBX  8 9 1 -1
BITMAP
0000004000000000
000000E010000000
00A000E00010C000
00C000E00000C000
00A000C00000C000
00A0A0F0A0A08000
000000C000000000
80C0C0F0C0C0E0A0
1020000000000000
ENDCHAR
STARTCHAR  3114
ENCODING  12564
SWIDTH  1000 0
DWIDTH  10 0
BBX  5 9 2 -1
BITMAP
0000004010
000010C020
0010A04060
108010A040
000080A000
108030A000
201000A000
000000C000
0000003000
ENDCHAR
STARTCHAR  3115
ENCODING  12565
SWIDTH  1000 0
DWIDTH  10 0
BBX  7 9 1 -1
BITMAP
00000000103040
0000A0A08060C0
000040304060C0
0000E060403020
0000C000000000
0000C000000000
00606000000000
20800000000000
20000000000000
ENDCHAR
STARTCHAR  3116
ENCODING  12566
SWIDTH  1000 0
DWIDTH  10 0
BBX  6 8 2 0
BITMAP
000000001000
C0A0A080F030
C0100000C000
C010A030C000
A0103040C000
A0100000C000
C0A0C0C0F010
60100000C000
ENDCHAR
STARTCHAR  3117
ENCODING  12567
SWIDTH  1000 0
DWIDTH  10 0
BBX  7 8 2 -1
BITMAP
4060808080C020
2040C00000C020
0000C00000C000
0000C020608000
0000C030E01000
0000C000000000
0000A000000000
00004000000000
ENDCHAR
STARTCHAR  3118
ENCODING  12568
SWIDTH  1000 0
DWIDTH  10 0
BBX  9 9 0 -1
BITMAP
000000003000000000
00000000C000000000
00606080F0E0E0E080
004030603010200000
000000A06060E03000
000000000000C00000
000000000030800000
000000001080100000
000000000000000000
ENDCHAR
STARTCHAR  3119
ENCODING  12569
SWIDTH  1000 0
DWIDTH  10 0
BBX  8 9 1 -1
BITMAP
0000000000000000
0000004080000000
0000008060000000
000000C000000000
0000306000000000
0000A00000100000
004060002040C010
00E0A08060408060
0000000000000000
ENDCHAR
STARTCHAR  311A
ENCODING  12570
SWIDTH  1000 0
DWIDTH  10 0
BBX  7 9 1 -1
BITMAP
00000000004000
1060100000E010
0020E010604000
00004080400000
000000C0000000
000000A0000000
000000A0000000
000000A0000000
00000010000000
ENDCHAR
STARTCHAR  311B
ENCODING  12571
SWIDTH  1000 0
DWIDTH  10 0
BBX  8 7 1 0
BITMAP
30C0C0C0C0C0E040
00302010C0000000
00003080C0000000
0060A02010000000
00C0100000000000
00A0800000002000
0010A0E0C0A06000
ENDCHAR
STARTCHAR  311C
ENCODING  12572
SWIDTH  1000 0
DWIDTH  10 0
BBX  9 8 1 0
BITMAP
000000100000000000
00000030C000000000
30406080E080A08000
20402000C000000000
0020C0C08000000000
00C030000000000000
00A040000000200000
0010A0E0C0A0300000
ENDCHAR
STARTCHAR  311D
ENCODING  12573
SWIDTH  1000 0
DWIDTH  10 0
BBX  8 8 1 0
BITMAP
0010100000600000
0020E00000C00000
0010C00000A03020
1040E08080C06040
6060E00000600000
0000C00040200000
0000A04010002010
000020C0E0E0E060
ENDCHAR
STARTCHAR  311E
ENCODING  12574
SWIDTH  1000 0
DWIDTH  10 0
BBX  8 9 1 -1
BITMAP
0000102040608080
0080A040E0202020
0000C000C0000000
0020A060E080C080
00306040C00020A0
0000006060004060
000010A00000A010
001080100010A000
0010000000000000
ENDCHAR
STARTCHAR  311F
ENCODING  12575
SWIDTH  1000 0
DWIDTH  10 0
BBX  10 7 0 0
BITMAP
00000000000000000000
00001060E00000000000
10608010C00000000000
00200000802000000000
0000000010A010000000
000000000030E0601000
00000000000020806010
ENDCHAR
STARTCHAR  3120
ENCODING  12576
SWIDTH  1000 0
DWIDTH  10 0
BBX  6 9 2 -1
BITMAP
000040000000
0010C0000000
008030003000
30800030C000
C0A0A0E02000
0000A0402000
008040108080
80E0A08040E0
100000000010
ENDCHAR
STARTCHAR  3121
ENCODING  12577
SWIDTH  1000 0
DWIDTH  10 0
BBX  8 7 0 0
BITMAP
0000001030806000
000060804060C000
0000000000804000
0000004060A00000
00000010A0A01000
000020A02040C010
1040600000006040
ENDCHAR
STARTCHAR  3122
ENCODING  12578
SWIDTH  1000 0
DWIDTH  10 0
BBX  8 8 1 -1
BITMAP
10A0806040E01000
0000C00010A00000
0030800060300000
00A0606080A0C010
006040200000A000
0000000000306000
0000000000A01000
0000000000800000
ENDCHAR
STARTCHAR  3123
ENCODING  12579
SWIDTH  1000 0
DWIDTH  10 0
BBX  8 8 1 0
BITMAP
0040000000000000
00E0000000000000
00C0000000000000
00A0000000104010
10E080808060A080
0030000000006030
000000000000A000
0000000000008000
ENDCHAR
STARTCHAR  3124
ENCODING  12580
SWIDTH  1000 0
DWIDTH  10 0
BBX  8 9 1 -1
BITMAP
0000108000000000
000000E000000000
001020E080A0C030
60A080C0E0000000
00004060C0000000
0000A010C0000000
00308000E0000000
3080000080C0E0C0
2000000000000000
ENDCHAR
STARTCHAR  3125
ENCODING  12581
SWIDTH  1000 0
DWIDTH  10 0
BBX  8 8 1 -1
BITMAP
000000A000000000
000010E000000000
0000606000000000
0000A00000000000
0040600000000000
00A0000000000000
80C0A0A0C0C0E040
1010000000000000
ENDCHAR
STARTCHAR  3126
ENCODING  12582
SWIDTH  1000 0
DWIDTH  10 0
BBX  9 8 0 -1
BITMAP
0000008000A0000000
000000A000C0000000
000000A000A0000000
000000A00080000000
000010A000A0006000
0000804000C0803000
004040000060600000
000000000000000000
ENDCHAR
STARTCHAR  3127
ENCODING  12583
SWIDTH  1000 0
DWIDTH  10 0
BBX  2 9 4 -1
BITMAP
1040
10C0
00A0
00A0
00A0
00A0
00A0
00A0
0030
ENDCHAR
STARTCHAR  3128
ENCODING  12584
SWIDTH  1000 0
DWIDTH  10 0
BBX  7 9 1 -1
BITMAP
00000000000010
00000000004080
0040200000A030
00006060408000
00000060E01000
000000A080C000
0010802000A080
40600000001080
00000000000000
ENDCHAR
STARTCHAR  3129
ENCODING  12585
SWIDTH  1000 0
DWIDTH  10 0
BBX  8 7 1 0
BITMAP
0000000000002000
004000000000E000
00E000000000C000
00A000000000C000
108000000000C000
60A0A0C0C0C0F000
3040100000008000
ENDCHAR
STARTCHAR  3220
ENCODING  12832
SWIDTH  1000 0
DWIDTH  10 0
BBX  9 10 0 -1
BITMAP
006010000000006000
10A000000000006060
6060000000000010A0
A020000000000000C0
C080E0E0E0E0E0E0C0
C010000000000000C0
A030000000000000C0
6060000000000010A0
00A000000000006040
004010000000004000
ENDCHAR
STARTCHAR  3221
ENCODING  12833
SWIDTH  1000 0
DWIDTH  10 0
BBX  9 10 0 -1
BITMAP
002020000000003010
00C010000000004060
40A0C0C0C0C0C0E0A0
8030000000000000C0
C010000000000000C0
C010000000000000C0
A020000000000000C0
60E0C0C0C0C0C0C0C0
00C000000000003080
003030000000004010
ENDCHAR
STARTCHAR  3222
ENCODING  12834
SWIDTH  1000 0
DWIDTH  10 0
BBX  9 10 0 -1
BITMAP
002010000000004000
00A000000000008060
4080C0C0C0C0C0E0A0
8030000000000000C0
C000000000000000C0
C000C0C0C0C0C040C0
A020000000000000C0
60C0C0C0C0C0C0C0A0
008000000000004060
002010000000004010
ENDCHAR
STARTCHAR  3223
ENCODING  12835
SWIDTH  1000 0
DWIDTH  10 0
BBX  9 10 0 -1
BITMAP
003060000000008010
00C010000000003060
4080F0F0C0F0C0F0A0
8030E0E000E000E0C0
C010E0E000E000E0C0
C010E0E000C010E0C0
A030F0A00060C0F0C0
6080F0C0C0C0C0C0C0
00C010000000004080
003060000000008020
ENDCHAR
STARTCHAR  3224
ENCODING  12836
SWIDTH  1000 0
DWIDTH  10 0
BBX  9 10 0 -1
BITMAP
002000000000004000
008000000000008060
4080C0E0F0C0C0F0A0
8020006080000000C0
C040C0E0E0C0C000C0
C00000C01000E000C0
A02010C00000E000C0
40E0E0F0E0E0F0E0A0
00A000000000004060
002000000000004000
ENDCHAR
STARTCHAR  3225
ENCODING  12837
SWIDTH  1000 0
DWIDTH  10 0
BBX  9 10 0 -1
BITMAP
002010000000003000
00A000003000008030
40800000E0000030A0
80A0C0C0C0C0C0C0C0
C01010A000606000C0
C00060800030A000C0
A020A0300000E010C0
60C0C000000060E0C0
10A000000000006060
004010000000006000
ENDCHAR
STARTCHAR  3226
ENCODING  12838
SWIDTH  1000 0
DWIDTH  10 0
BBX  9 10 0 -1
BITMAP
001020000000002000
00A02000A000006040
30A00000E0000010A0
80400000E0000000C0
C060E0E0F0E0E0E0E0
C0100000E0000000C0
A0300000E0000000C0
40800000C0E0E0E0C0
00C010000000004060
002030000000003010
ENDCHAR
STARTCHAR  3227
ENCODING  12839
SWIDTH  1000 0
DWIDTH  10 0
BBX  9 10 0 -1
BITMAP
006020000000006010
10A000402060204060
606000C010806010A0
A02000E00040A000C0
C00020A00010C000C0
C01060800000E000C0
A03080400000A030C0
40C0E010000040E0A0
00A000000000006060
002020000000004000
ENDCHAR
STARTCHAR  3228
ENCODING  12840
SWIDTH  1000 0
DWIDTH  10 0
BBX  9 10 0 -1
BITMAP
002010000000003000
00A000003000008020
40800030A000003080
A080C0E0E0C0F000C0
C00000A03000E000C0
C00000E00000E000C0
A02020C00000E000C0
60C0E0600000A0E0A0
10A000000000006040
003010000000004000
ENDCHAR
STARTCHAR  3229
ENCODING  12841
SWIDTH  1000 0
DWIDTH  10 0
BBX  9 10 0 -1
BITMAP
006010000000006000
10A000000000008040
60600000E0000020A0
A0200000E0000000C0
C080E0E0FFE0E0E0C0
C0100000E0000000C0
A0200000E0000000C0
60600000E0000010A0
10A00000C000006040
004010000000006000
ENDCHAR
STARTCHAR  4E00
ENCODING  19968
SWIDTH  1000 0
DWIDTH  10 0
BBX  9 1 1 4
BITMAP
E0E0E0E0E0E0E0E0A0
ENDCHAR
STARTCHAR  4E01
ENCODING  19969
SWIDTH  1000 0
DWIDTH  10 0
BBX  9 8 1 0
BITMAP
E0E0E0E0F0E0E0E0A0
00000000E000000000
00000000E000000000
00000000E000000000
00000000E000000000
00000000E000000000
00000000E000000000
0060E0E0C000000000
ENDCHAR
STARTCHAR  4E03
ENCODING  19971
SWIDTH  1000 0
DWIDTH  10 0
BBX  9 9 1 0
BITMAP
000000800000000000
000000E00000000000
000000E00000000000
E0E0E0F0E0E0E0E0A0
000000E00000000000
000000E00000000000
000000E00000000000
000000E00000000000
00000080E0E0E0E0A0
ENDCHAR
STARTCHAR  4E07
ENCODING  19975
SWIDTH  1000 0
DWIDTH  10 0
BBX  9 9 1 -1
BITMAP
C0E0F0E0E0E0E0E0A0
0000E0000000000000
0000F0E0E0E0E0E000
0000E000000000E000
0000E000000000E000
0000E000000000E000
0000E000000000E000
0020E000000010E000
E0C04030E0E0C06000
ENDCHAR
STARTCHAR  4E08
ENCODING  19976
SWIDTH  1000 0
DWIDTH  10 0
BBX  10 10 0 -1
BITMAP
00000000000000400000
00000000000000F00000
10E0E0E0E0E0E0F0E080
00002000000040A00000
000080A00000E0200000
00000080A06080000000
0000000080F010000000
00000000A0C0A0000000
00000060C00080A01000
00E0C0A010000060C0A0
ENDCHAR
STARTCHAR  4E09
ENCODING  19977
SWIDTH  1000 0
DWIDTH  10 0
BBX  9 8 1 0
BITMAP
A0E0E0E0E0E0E0E000
000000000000000000
000000000000000000
000000000000000000
00E0E0E0E0E0E0C000
000000000000000000
000000000000000000
E0E0E0E0E0E0E0E080
ENDCHAR
STARTCHAR  4E0A
ENCODING  19978
SWIDTH  1000 0
DWIDTH  10 0
BBX  9 9 1 -1
BITMAP
000000E00000000000
000000E00000000000
000000E0C0C0C0C000
000000E00000000000
000000E00000000000
000000E00000000000
000000E00000000000
000000E00000000000
C0C0C0C0C0C0C0C0A0
ENDCHAR
STARTCHAR  4E0B
ENCODING  19979
SWIDTH  1000 0
DWIDTH  10 0
BBX  9 9 1 -1
BITMAP
E0E0E0F0E0E0E0E0A0
000000E00000000000
000000E000C0100000
000000E00080800000
000000E00010E00000
000000E00000A06000
000000E0000010E0A0
000000E00000000000
000000800000000000
ENDCHAR
STARTCHAR  4E0C
ENCODING  19980
SWIDTH  1000 0
DWIDTH  10 0
BBX  9 9 1 -1
BITMAP
C0E0F0E0E0E0F0E0A0
0000E0000000E00000
0000E0000000E00000
0000E0000000E00000
0000E0000000E00000
0000E0000000E00000
0000E0000000E00000
0020E0000000E00000
E0C040000000A00000
ENDCHAR
STARTCHAR  4E0D
ENCODING  19981
SWIDTH  1000 0
DWIDTH  10 0
BBX  9 9 1 -1
BITMAP
E0E0E0F0E0E0E0E0A0
000080600010400000
0000E0C0C000E00000
0040A000E000A03000
00A04000E000608000
10E00000E00010E000
E0600000E0000080A0
00000000E000000000
000000006000000000
ENDCHAR
STARTCHAR  4E0E
ENCODING  19982
SWIDTH  1000 0
DWIDTH  10 0
BBX  10 10 1 -1
BITMAP
00003000000000000000
0040A000000000000000
00A0E0C0C0C0C0C0C010
10E00000000000000000
60E0E0E0E0E0E0E0A000
0000000000000000E000
E0E0E0E0E0E0A000E000
0000000000000000E000
0000000000000030C000
000080C0C0C0C0C04000
ENDCHAR
STARTCHAR  4E10
ENCODING  19984
SWIDTH  1000 0
DWIDTH  10 0
BBX  9 9 1 -1
BITMAP
E0E0E0E0F0E0E0E0A0
00803000E000000000
00E00000F0C0C0C0A0
30A00000E000000000
60E0C0C0F0C0C0C0A0
0000000000000000E0
0000000000000000E0
0000000000000030C0
30C0C0C0C0C0C0C030
ENDCHAR
STARTCHAR  4E11
ENCODING  19985
SWIDTH  1000 0
DWIDTH  10 0
BBX  9 9 1 -1
BITMAP
10E0E0F0E0E0E0F000
000000E0000000E000
000010C0000000E000
00E0E0F0E0E0E0E000
00006080000020C000
00008060000030C000
0000A040000030A000
0000C020000040A000
E0E0E0E0E0E0E0E0A0
ENDCHAR
STARTCHAR  4E13
ENCODING  19987
SWIDTH  1000 0
DWIDTH  10 0
BBX  9 9 1 -1
BITMAP
00000030C000000000
C0C0C0FFC0C0C0C000
C0C0E0E0C0C0C0C0A0
0030C0000000000000
00A0E0C0C0C0C0C000
203000000010C06000
10C0A01010C0600000
0000A0C0E060000000
00000060C0C0C0C000
ENDCHAR
STARTCHAR  4E14
ENCODING  19988
SWIDTH  1000 0
DWIDTH  10 0
BBX  9 9 1 -1
BITMAP
00E0E0E0E0E0E0E000
00E00000000000E000
00E0C0C0C0C0C0E000
00E00000000000E000
00E00000000000E000
00E0C0C0C0C0C0E000
00E00000000000E000
00E00000000000E000
E0E0E0E0E0E0E0E0A0
ENDCHAR
STARTCHAR  4E15
ENCODING  19989
SWIDTH  1000 0
DWIDTH  10 0
BBX  10 8 0 0
BITMAP
00E0E0E0F0E0E0E0E060
00000010C00020A00000
00000080E0C000E00000
000010C000E000A02000
0000606000E000606000
0010E01000E00020A000
10C0600000E0000080A0
00E0E0E0E0F0E0E0E080
ENDCHAR
STARTCHAR  4E16
ENCODING  19990
SWIDTH  1000 0
DWIDTH  10 0
BBX  9 10 1 -1
BITMAP
000000600000006000
008000E0000000E000
00E000E0000000E000
E0F0E0F0E0E0E0F0A0
00E000E0000000E000
00E000E0000000E000
00E000E0E0E0E08000
00E000000000000000
00E000000000000000
00E0E0E0E0E0E0E080
ENDCHAR
STARTCHAR  4E18
ENCODING  19992
SWIDTH  1000 0
DWIDTH  10 0
BBX  9 9 1 0
BITMAP
000000000000004000
00C0E0E0E0E0E0C000
00E000000000000000
00E000000000000000
00F0E0E0E0E0E0E010
00E000000000E00000
00E000000000E00000
00E000000000E00000
E0F0E0E0E0E0F0E0A0
ENDCHAR
STARTCHAR  4E19
ENCODING  19993
SWIDTH  1000 0
DWIDTH  10 0
BBX  9 9 1 -1
BITMAP
E0E0E0E0FFE0E0E080
00000020C000000000
C0E0E0E0E0E0E0F000
E00000C0A01000E000
E00010C0608000E000
E000608010E010E000
E080A0100060C0E000
E0000000000000E000
A000000000C0C06000
ENDCHAR
STARTCHAR  4E1A
ENCODING  19994
SWIDTH  1000 0
DWIDTH  10 0
BBX  9 9 1 -1
BITMAP
000000C000C0000000
C01000E000E0003080
A03000E000E0006080
806000E000E0008060
608000E000E000A030
30C000E000E000E010
008080E000E0808000
000000E000E0000000
E0E0E0E0E0E0E0E0A0
ENDCHAR
STARTCHAR  4E1B
ENCODING  19995
SWIDTH  1000 0
DWIDTH  10 0
BBX  9 9 1 -1
BITMAP
000080400000A03000
0000E0100000E00000
0020C0000040A00000
0060E0600080E06000
00C060A000E040A000
10E000E020E000E010
C0600060C0400060A0
000000000000000000
E0E0E0E0E0E0E0E0A0
ENDCHAR
STARTCHAR  4E1C
ENCODING  19996
SWIDTH  1000 0
DWIDTH  10 0
BBX  10 9 0 -1
BITMAP
00000040800000000000
00C0E0F0C0C0C0C0C080
0000A06000A000000000
0080A00000E000000000
00C0C0C0C0F0C0C0C010
0000604000E000601000
0010E02000E00040A000
20E0800010E00000A0C0
00000060C06000000000
ENDCHAR
STARTCHAR  4E1D
ENCODING  19997
SWIDTH  1000 0
DWIDTH  10 0
BBX  10 10 1 -1
BITMAP
00002080100000306000
0030E040000040C01000
30E030000040C0100000
F0E0C0C010F0E0C0C000
0010A060000010C04000
20C040000030C0300000
E0E0C0C010F0E0C0C010
00000000000000000000
00000000000000000000
C0C0C0C0C0C0C0C0A000
ENDCHAR
STARTCHAR  4E1E
ENCODING  19998
SWIDTH  1000 0
DWIDTH  10 0
BBX  9 9 1 -1
BITMAP
40C0C0C0C0C0F0F000
0000000040A0801010
C0C0E010E0A0606080
0010C000E020C0C010
00806000E000C06000
10C00000E000608000
C060A0E0800000A0A0
000000000000000000
A0C0C0C0C0C0C0C0A0
ENDCHAR
STARTCHAR  4E22
ENCODING  20002
SWIDTH  1000 0
DWIDTH  10 0
BBX  10 10 0 -1
BITMAP
00000000000000004000
00C0C0C0C0E0C0C0A000
0000000000E000000000
0080C0C0C0F0C0C0C000
0000000000E000000000
00C0C0C0C0F0C0C0C0A0
000010C0600000100000
0000C080000000C02000
00A0A00000000030C000
00E0E0E0E0E0E0E0C010
ENDCHAR
STARTCHAR  4E24
ENCODING  20004
SWIDTH  1000 0
DWIDTH  10 0
BBX  9 9 0 -1
BITMAP
A0E0E0F0E0E0F0E0E0
000030A00000E00000
E0C0E0E0C0E0E0C0E0
E000A03000608000E0
E000E0E000A0E020E0
E020C0C020E08060E0
E0E06060E0A020E0E0
E000000000000020C0
A00000000000C0C040
ENDCHAR
STARTCHAR  4E25
ENCODING  20005
SWIDTH  1000 0
DWIDTH  10 0
BBX  10 9 0 -1
BITMAP
20FFC0F0C0C0F0C0FF30
00A010E00000E000C000
0060C0E00000E0A06000
00C0C0F0C0C0F0C0C060
00E00000000000000000
00E00000000000000000
00E00000000000000000
00E00000000000000000
60800000000000000000
ENDCHAR
STARTCHAR  4E27
ENCODING  20007
SWIDTH  1000 0
DWIDTH  10 0
BBX  9 10 1 -1
BITMAP
000000002000000000
C0C0C0C0F0C0C0C040
20300000E000004000
20E01000E00040A000
0060C040E060A01000
C0F0C0C0C0C0C0C080
00E000A04000008030
00E00020E0E0C08000
00E0100020E0300000
0060C0C08030C0C0A0
ENDCHAR
STARTCHAR  4E28
ENCODING  20008
SWIDTH  1000 0
DWIDTH  10 0
BBX  1 9 5 -1
BITMAP
E0
E0
E0
E0
E0
E0
E0
E0
80
ENDCHAR
STARTCHAR  4E2A
ENCODING  20010
SWIDTH  1000 0
DWIDTH  10 0
BBX  10 9 0 -1
BITMAP
000040E0C0C0C0E01000
0000A060002000806000
0010E01000E00020C000
00C0600000E0000080A0
0000000000E000000000
0000000000E000000000
0000000000E000000000
0000000000E000000000
00000000004000000000
ENDCHAR
STARTCHAR  4E2B
ENCODING  20011
SWIDTH  1000 0
DWIDTH  10 0
BBX  9 9 1 -1
BITMAP
80800000000000C040
00C060000000808000
0010E0400060C00000
000030C0F0A0100000
00000000E000000000
00000000E000000000
00000000E000000000
00000000E000000000
00000000A000000000
ENDCHAR
STARTCHAR  4E2C
ENCODING  20012
SWIDTH  1000 0
DWIDTH  10 0
BBX  4 9 3 -1
BITMAP
603000E0
608000E0
20A000E0
00A080E0
006040E0
00A020E0
00E000E0
A08000E0
00000080
ENDCHAR
STARTCHAR  4E2D
ENCODING  20013
SWIDTH  1000 0
DWIDTH  10 0
BBX  9 9 1 -1
BITMAP
00000000E000000000
E0C0C0C0F0C0C0C0C0
E0000000E0000000E0
E0000000E0000000E0
E0000000E0000000E0
E0000000E0000030C0
C0C0C0C0F0C0C0C030
00000000E000000000
000000008000000000
ENDCHAR
STARTCHAR  4E30
ENCODING  20016
SWIDTH  1000 0
DWIDTH  10 0
BBX  9 9 1 -1
BITMAP
00000000E000000000
E0E0E0E0F0E0E0E020
00000000E000000000
60E0E0E0F0E0E0E000
00000000E000000000
E0E0E0E0F0E0E0E0A0
00000000E000000000
00000000E000000000
000000008000000000
ENDCHAR
STARTCHAR  4E32
ENCODING  20018
SWIDTH  1000 0
DWIDTH  10 0
BBX  8 9 1 -1
BITMAP
A0C0C0C0F0C0C0C0
E0000000E00000E0
E0C0C0C0F0C0C0C0
00000000E0000000
E0C0C0C0F0C0C0E0
E0000000E00000E0
F0C0C0C0F0C0C0A0
00000000E0000000
0000000080000000
ENDCHAR
STARTCHAR  4E34
ENCODING  20020
SWIDTH  1000 0
DWIDTH  10 0
BBX  9 9 1 -1
BITMAP
6000E000C000000000
E000E020E0E0C0C0A0
E000E0606060C00000
E000E0C0100060C080
E000E0C0C0E0C0C0C0
E000E0E000E00000E0
E000E0E000E00000E0
E000E0E000E00030C0
000080A0C0C0C0C040
ENDCHAR
STARTCHAR  4E36
ENCODING  20022
SWIDTH  1000 0
DWIDTH  10 0
BBX  5 4 3 2
BITMAP
8080000000
10E0100000
0080800000
0010A0E030
ENDCHAR
STARTCHAR  4E38
ENCODING  20024
SWIDTH  1000 0
DWIDTH  10 0
BBX  9 10 1 -1
BITMAP
000000103000000000
000000808000000000
C0E0E0F0E0E0E0C000
000000E0100000E000
10E030E0000000E000
0030E0A0000000E000
000080C0000000E000
0000C080A01000E000
0020E00060C080E000
E0C0400000000080A0
ENDCHAR
STARTCHAR  4E39
ENCODING  20025
SWIDTH  1000 0
DWIDTH  10 0
BBX  9 9 0 -1
BITMAP
00E0E0E0E0E0E0F000
00E00040A00000E000
00E00000E02000E000
00E0000040E040E000
A0F0E0E0E0E0E0F0E0
00E00000000000E000
00E00000000000E000
00E00000000010E000
A080000030C0C06000
ENDCHAR
STARTCHAR  4E3A
ENCODING  20026
SWIDTH  1000 0
DWIDTH  10 0
BBX  9 8 0 0
BITMAP
10A0C040C000000000
00000030A000000000
80E0E0F0FFE0E0E0F0
000000E080800000E0
000040A010E00000E0
0000A04000A04000E0
0010E0000020C080E0
80E0600080E0E0E0A0
ENDCHAR
STARTCHAR  4E3B
ENCODING  20027
SWIDTH  1000 0
DWIDTH  10 0
BBX  9 9 1 -1
BITMAP
00000000C000000000
E0E0E0E0F0E0E0E040
00000000E000000000
00000000E000000000
C0E0E0E0F0E0E0E000
00000000E000000000
00000000E000000000
00000000E000000000
E0E0E0E0E0E0E0E080
ENDCHAR
STARTCHAR  4E3D
ENCODING  20029
SWIDTH  1000 0
DWIDTH  10 0
BBX  9 9 1 -1
BITMAP
C0C0C0C0C0C0C0C080
A0C0C0C000C0C0C0A0
E00000E000E00000E0
E02030E000E04000E0
E02080E000E0A000E0
E01080E000E0A000E0
E000A0E000E0A000E0
E00000E000E00020C0
A000C06000A0A0C040
ENDCHAR
STARTCHAR  4E3E
ENCODING  20030
SWIDTH  1000 0
DWIDTH  10 0
BBX  10 10 0 -1
BITMAP
00200010100000101000
00C02040A00010E02000
0030C04080A080600000
80C0F0E0C0C0FFC0C010
0040A000E00080800000
80C0E0C0F0C0C0C0C000
00000000E00000000000
60C0C0C0F0C0C0C0C000
00000000E00000000000
00000000600000000000
ENDCHAR
STARTCHAR  4E3F
ENCODING  20031
SWIDTH  1000 0
DWIDTH  10 0
BBX  5 9 2 -1
BITMAP
00000000C0
00000030A0
0000006080
0000008040
000000C020
000000E000
000010C000
0000608000
80E0A02000
ENDCHAR
STARTCHAR  4E43
ENCODING  20035
SWIDTH  1000 0
DWIDTH  10 0
BBX  9 9 0 -1
BITMAP
30E0F0E0E0E0E0F0E0
0000E000000080E020
0000E00000A0A00000
0000E00040E0E0E0F0
0000E00000000000E0
0000E00000000000E0
0000E00000000000E0
0020E00000000020E0
40C0400040E0E0C060
ENDCHAR
STARTCHAR  4E45
ENCODING  20037
SWIDTH  1000 0
DWIDTH  10 0
BBX  10 10 0 -1
BITMAP
00000000400000000000
00000060A00000000000
000010E0E0E0E0E00000
0000A060000080800000
00E0A0000030C0000000
0000000000C080000000
000000006080E0200000
00000010E01060A00000
000000C0600000E03000
00E0C06000000040C0A0
ENDCHAR
STARTCHAR  4E47
ENCODING  20039
SWIDTH  1000 0
DWIDTH  10 0
BBX  9 9 1 0
BITMAP
000000000000000040
60E0E0E0E0E0E0E0A0
000000E00000000000
000000E00000000000
000000E00000000000
E0E0E0F0E0E0E0E0A0
000000E00000000000
000000E00000000000
00000080E0E0E0E0A0
ENDCHAR
STARTCHAR  4E48
ENCODING  20040
SWIDTH  1000 0
DWIDTH  10 0
BBX  10 9 0 -1
BITMAP
00000030C01000000000
000020E0200010000000
0010E0400040C0000000
60E0600030E010000000
00000020E03000000000
000010C0400010C00000
0000A060000000806000
0080A00000000010E000
00C0E0E0E0E0E0E0C010
ENDCHAR
STARTCHAR  4E49
ENCODING  20041
SWIDTH  1000 0
DWIDTH  10 0
BBX  9 9 1 -1
BITMAP
101000A06000002010
30E02010A0C040C010
0040C0100020E02000
000060C010E0300000
00000080F060000000
00000080E080000000
000040C010C0400000
0020E0200010E04000
E0C04000000020A0C0
ENDCHAR
STARTCHAR  4E4B
ENCODING  20043
SWIDTH  1000 0
DWIDTH  10 0
BBX  9 10 1 -1
BITMAP
000000004000000000
00000000E000000000
E0E0E0E0E0E0E0E040
00000000000020C010
000000000010C02000
0000000000A0600000
008030006080000000
00E0C030A000000000
30A080E01000000000
C0300080C0E0E0E0C0
ENDCHAR
STARTCHAR  4E4C
ENCODING  20044
SWIDTH  1000 0
DWIDTH  10 0
BBX  9 10 1 -1
BITMAP
003030000000000000
10E0E0C0C0C0C0C000
E0E00000000000E000
00E00000000000E000
00E00000C0C0C08000
00F0E0E0E0E0E0E0A0
0000000000000000E0
C0C0C0C0C0C0A000E0
0000000000000020E0
000010C0C0C0C0C040
ENDCHAR
STARTCHAR  4E4D
ENCODING  20045
SWIDTH  1000 0
DWIDTH  10 0
BBX  10 10 0 -1
BITMAP
00002000000000000000
0000E000000000000000
0040E0F0E0E0E0E0E030
00A040E0000000000000
60A000E0E0E0E0E0E000
000000E0000000000000
000000E0E0E0E0E0E000
000000E0000000000000
000000E0000000000000
00000060000000000000
ENDCHAR
STARTCHAR  4E4E
ENCODING  20046
SWIDTH  1000 0
DWIDTH  10 0
BBX  9 9 1 0
BITMAP
000000000000004000
A0E0E0E0E0E0E0E000
30A00000E000406000
00E01000E000A03000
0060E040E080C00000
E0E0E0E0F0E0E0E080
00000000E000000000
00000000E000000000
0040E0E08000000000
ENDCHAR
STARTCHAR  4E4F
ENCODING  20047
SWIDTH  1000 0
DWIDTH  10 0
BBX  10 9 0 -1
BITMAP
00E0E0E0E0E0E0E0E0A0
0000000000E000000000
00E0E0E0E0F0E0E0C000
00000000000000406000
00000000000040800000
00004000004080000000
0000F0A040A000000000
0040A0A0C01010101010
10C03010A0C0C0C0C080
ENDCHAR
STARTCHAR  4E50
ENCODING  20048
SWIDTH  1000 0
DWIDTH  10 0
BBX  10 10 0 -1
BITMAP
00000000000000004000
0010E0E0E0E0E0E0C000
0060A000000000000000
00A0400000E000000000
10F0000000E000000000
20C0C0C0C0F0C0C0C030
0000408000E010800000
0000E02000E000804000
40E0800010C00020E0A0
00000080C06000000000
ENDCHAR
STARTCHAR  4E52
ENCODING  20050
SWIDTH  1000 0
DWIDTH  10 0
BBX  10 10 0 -1
BITMAP
00000000000000000040
0000F0C0C0C0C0C0C080
0000E000000000000000
0000F0C0C0C0C0C0C0A0
0000E0000000E0000000
0000E0000000E0000000
00C0F0C0C0C0F0C0C080
00000020600000000000
000010C0400000000000
10C0C060000000000000
ENDCHAR
STARTCHAR  4E53
ENCODING  20051
SWIDTH  1000 0
DWIDTH  10 0
BBX  9 10 1 -1
BITMAP
000000000000000040
00F0C0C0C0C0C0C080
00E000000000000000
00F0C0C0C0C0C0C0A0
00E0000000E0000000
00E0000000E0000000
E0F0E0E0E0F0E0E0A0
000000001060000000
000000000080A00000
00000000000080C0A0
ENDCHAR
STARTCHAR  4E54
ENCODING  20052
SWIDTH  1000 0
DWIDTH  10 0
BBX  9 10 1 -1
BITMAP
000000000000000040
60C0C0C0E0C0C0C0A0
000000608000000000
C0C0E0F0E0E0C0C0A0
0010E0300060C01000
C0F080000000A0E0A0
0000E0000000E00000
0000E0000000E00000
0010E0000000E00000
80C060000000A00000
ENDCHAR
STARTCHAR  4E56
ENCODING  20054
SWIDTH  1000 0
DWIDTH  10 0
BBX  9 10 1 -1
BITMAP
000000000000000040
A0C0C0C0E0C0C0C0A0
00000000E000000000
C0C0C0C0F0C0C0C0A0
0000E000E000E00040
C0C0F000E000F0C060
0000E000E000E00000
C0C0F000E000C0C0A0
00004000E000000000
000000006000000000
ENDCHAR
STARTCHAR  4E58
ENCODING  20056
SWIDTH  1000 0
DWIDTH  10 0
BBX  10 10 0 -1
BITMAP
00000000000000004000
40C0C0C0F0C0C0C08000
00000000E00000000000
80C0C0C0F0C0C0C0C010
60C0F000E000F0C0A000
0000E000E000E0000000
80C0E000E00080C0C000
0040E000E000C0600000
A0E02000E00010C0C010
00000000600000000000
ENDCHAR
STARTCHAR  4E59
ENCODING  20057
SWIDTH  1000 0
DWIDTH  10 0
BBX  10 9 0 -1
BITMAP
00E0E0E0E0E0E0E0FF10
00000000000020C06000
000000000030E0400000
0000000060E030000000
00000080C01000000000
0010A0A0000000000000
00C08000000000000000
00E00000000000000000
0080E0E0E0E0E0E0E060
ENDCHAR
STARTCHAR  4E5C
ENCODING  20060
SWIDTH  1000 0
DWIDTH  10 0
BBX  10 10 0 -1
BITMAP
00006000000000000000
0000E000000000408000
0000E02060A0C080E000
10A0F0A060100000E000
0030E00000000000E000
0000E00000000000E000
0000E00010E0E0E0A000
0000E000000000000000
0000E010000000000000
000060C0E0E0E0E0E060
ENDCHAR
STARTCHAR  4E5D
ENCODING  20061
SWIDTH  1000 0
DWIDTH  10 0
BBX  9 10 1 -1
BITMAP
000000202000000000
000000804000000000
80E0E0F0E0E0E0C000
000000E0000000E000
000030A0000000E000
00006080000000E000
0000A040000000E000
0000E010000000E000
0030C000000000E010
E0C0300000000080C0
ENDCHAR
STARTCHAR  4E5E
ENCODING  20062
SWIDTH  1000 0
DWIDTH  10 0
BBX  10 9 0 0
BITMAP
00000000000000000000
000040C0000000000000
0020E0E0E0E0E0E0E080
30C04000000000000000
0080E0E0E0E0E0F0F000
000000000060A0801000
00001080A06000000000
0060A040000000000000
00A0E0E0E0E0E0E0E080
ENDCHAR
STARTCHAR  4E5F
ENCODING  20063
SWIDTH  1000 0
DWIDTH  10 0
BBX  10 10 0 -1
BITMAP
00000000400000000000
00600000E00000003000
00E00010E080C0C0E000
30F0C0A0F0300000E000
40E00000E0000000E000
00E00000E0000000E000
00E00000E0000010E000
00E00000E020C0C04000
00C03000000000000000
0030C0C0C0C0C0C0C040
ENDCHAR
STARTCHAR  4E60
ENCODING  20064
SWIDTH  1000 0
DWIDTH  10 0
BBX  9 9 0 -1
BITMAP
20E0E0E0E0E0E0E0F0
0080600000000000E0
0010C08000000000E0
000000A0E0E0E020E0
0000000000401000E0
00000000A0800000E0
000010C080000000E0
40E0C06000000010E0
00000000A0E0E0C060
ENDCHAR
STARTCHAR  4E61
ENCODING  20065
SWIDTH  1000 0
DWIDTH  10 0
BBX  10 10 0 -1
BITMAP
00000000004020000000
00000040C08000000000
0010A0A0200010806000
00E0E0C0C0E0E0400000
00000040C06000001010
0020A0A010000040E010
10C0E0C0C0C0E0F02000
000000000010E0400000
0000000020C060000000
30C0C0C0C06000000000
ENDCHAR
STARTCHAR  4E66
ENCODING  20070
SWIDTH  1000 0
DWIDTH  10 0
BBX  10 10 0 -1
BITMAP
00000000000000000000
00000000E00020C02000
10E0E0E0F0E0E0F0E040
00000000E00000A03000
00000000E00000C02000
60C0C0C0F0C0C0C0F000
00000000E0000000E000
00000000E0000000E000
00000000E000C0E0A000
00000000800000000000
ENDCHAR
STARTCHAR  4E69
ENCODING  20073
SWIDTH  1000 0
DWIDTH  10 0
BBX  9 10 1 -1
BITMAP
000030000030000000
0000E00000E0000000
0000F0E0E0E0000000
0000E00000E0000000
0000E00000E0000000
E0E0E0E000E0000000
E00000E000E0000000
E00000E000E0000000
E00010E000E0100000
E0E0C0800060C0E080
ENDCHAR
STARTCHAR  4E70
ENCODING  20080
SWIDTH  1000 0
DWIDTH  10 0
BBX  10 9 0 -1
BITMAP
80E0E0E0E0E0E0E0E000
0080A00000E00000E000
203080C080E00000A000
10E0400000E000000000
0010A0C060E000000000
A0E0E0E0E0F0E0E0E000
00000010E0C020000000
000030E04040E0200000
A0C0C020000030C0C010
ENDCHAR
STARTCHAR  4E71
ENCODING  20081
SWIDTH  1000 0
DWIDTH  10 0
BBX  10 10 0 -1
BITMAP
00000000004040000000
20C0C0E0E0C0E0000000
000000E00000E0000000
60E0E0F0E0E0E0000000
000000E00000E0000000
00E0E0F0E0A0E0000000
00E0000020C0E0000000
00E0000020C0E0000000
00E0000040C0C0200000
00C0C0C0C04040C0E040
ENDCHAR
STARTCHAR  4E73
ENCODING  20083
SWIDTH  1000 0
DWIDTH  10 0
BBX  10 10 0 -1
BITMAP
00000000004030000000
20C0C0C0C0A0E0000000
10FF408010C0E0000000
00A080C0E040E0000000
00C0C0C0E0A0E0000000
00000080A020E0000000
40C0C0F0C0C0E0000000
000000E00000E0000000
000000E00000E0100000
0000C060000040C0C0A0
ENDCHAR
STARTCHAR  4E7E
ENCODING  20094
SWIDTH  1000 0
DWIDTH  10 0
BBX  10 10 0 -1
BITMAP
00001000000010000000
40C0F0C0C030A0000000
0020E0000080E0C0C000
00F0C0C0E0A000000000
00F0C0C0E0A0C0E0C000
00E00000E00000A02000
00E0E0E0600080400000
40C0F0C0C06080000000
0000E00010E000000000
0000A00000A0C0C0C010
ENDCHAR
STARTCHAR  4E86
ENCODING  20102
SWIDTH  1000 0
DWIDTH  10 0
BBX  9 9 0 -1
BITMAP
80E0E0E0E0E0E0E0FF
00000000000060E030
0000000010A0A01000
00000000C060000000
00000000E000000000
00000000E000000000
00000000E000000000
00000000E000000000
0030C0C06000000000
ENDCHAR
STARTCHAR  4E88
ENCODING  20104
SWIDTH  1000 0
DWIDTH  10 0
BBX  9 9 0 -1
BITMAP
00A0E0E0E0E0E0F0F0
000010A0600080C020
00000010A0E0800000
80E0E0E0E0F0E0E0F0
0000000000E00000E0
0000000000E00000E0
0000000000E0000060
0000000020C0000000
0010E0E0C040000000
ENDCHAR
STARTCHAR  4E89
ENCODING  20105
SWIDTH  1000 0
DWIDTH  10 0
BBX  10 10 0 -1
BITMAP
00000060100000000000
000040F0C0C0C0A00000
0010A010000060800000
00F0E0C0C0C0F0E0C000
0000000000E00000E000
00C0C0C0C0F0C0C0F0A0
0000000000E00010E000
0080C0C0C0F0C0C06000
0000000010E000000000
000060C0C04000000000
ENDCHAR
STARTCHAR  4E8B
ENCODING  20107
SWIDTH  1000 0
DWIDTH  10 0
BBX  9 10 1 -1
BITMAP
000000001000000000
C0C0C0C0F0C0C0C080
A0C0C0C0F0C0C0C000
E0000000E00000E000
A0C0C0C0F0C0C08000
C0C0C0C0F0C0C0F000
C0C0C0C0F0C0C0F0A0
C0C0C0C0F0C0C0C000
00000010C000000000
0040C0C04000000000
ENDCHAR
STARTCHAR  4E8C
ENCODING  20108
SWIDTH  1000 0
DWIDTH  10 0
BBX  9 6 1 1
BITMAP
60E0E0E0E0E0E0E000
000000000000000000
000000000000000000
000000000000000000
000000000000000000
E0E0E0E0E0E0E0E060
ENDCHAR
STARTCHAR  4E8D
ENCODING  20109
SWIDTH  1000 0
DWIDTH  10 0
BBX  9 9 1 -1
BITMAP
A0E0E0E0E0E0E0E000
000000000000000000
000000000000000000
E0E0E0E0F0E0E0E0A0
00000000E000000000
00000000E000000000
00000000E000000000
00000010E000000000
00C0C0C06000000000
ENDCHAR
STARTCHAR  4E8E
ENCODING  20110
SWIDTH  1000 0
DWIDTH  10 0
BBX  9 9 1 -1
BITMAP
E0E0E0E0F0E0E0E010
00000000E000000000
00000000E000000000
E0E0E0E0F0E0E0E0A0
00000000E000000000
00000000E000000000
00000000E000000000
00000020C000000000
00A0E0C04000000000
ENDCHAR
STARTCHAR  4E8F
ENCODING  20111
SWIDTH  1000 0
DWIDTH  10 0
BBX  9 9 1 -1
BITMAP
80C0C0C0C0C0C0C000
000000000000000000
E0E0E0E0E0E0E0E080
0060A0000000000000
30FFC0C0C0C0C0A000
00000000000000E000
00000000000000E000
00000000000020C000
00A0C0C0C0C0C04000
ENDCHAR
STARTCHAR  4E91
ENCODING  20113
SWIDTH  1000 0
DWIDTH  10 0
BBX  9 9 1 -1
BITMAP
80C0C0C0C0C0C0C000
000000000000000000
000000000000000000
E0E0E0F0E0E0E0E080
0000A0600010000000
0040C0000060800000
00E020000000C03000
80800000000020C000
A0E0E0E0E0E0E0C030
ENDCHAR
STARTCHAR  4E92
ENCODING  20114
SWIDTH  1000 0
DWIDTH  10 0
BBX  10 9 0 -1
BITMAP
60E0F0E0E0E0E0E0E000
0000C010000000000000
0010F0E0E0E0E0E06000
00608000000000A04000
00A03000000000E01000
00E0E0E0E0E0E0E00000
00000000000040A00000
00000000000080600000
80C0C0C0C0C0C0C0C020
ENDCHAR
STARTCHAR  4E93
ENCODING  20115
SWIDTH  1000 0
DWIDTH  10 0
BBX  10 9 0 -1
BITMAP
0080E0E0E0E0E0E0E000
00000000000000000000
00E0E0E0E0E0E0E0E080
000000E0000000E00000
000000E0000000E00000
000000E0000000E00000
000000E0000000E00000
000010E0000000E00000
00E0C060000000A00000
ENDCHAR
STARTCHAR  4E94
ENCODING  20116
SWIDTH  1000 0
DWIDTH  10 0
BBX  9 9 1 -1
BITMAP
E0E0E0E0E0E0E0E040
000000806000000000
000000A03000000000
40E0E0F0E0E0E0E000
000010E0000000E000
000030A0000000E000
00006080000000E000
0000A040000000E000
E0E0E0E0E0E0E0E0A0
ENDCHAR
STARTCHAR  4E95
ENCODING  20117
SWIDTH  1000 0
DWIDTH  10 0
BBX  10 9 0 -1
BITMAP
000000E0000000E00000
00E0E0F0E0E0E0F0E040
000000E0000000E00000
000000E0000000E00000
00E0E0F0E0E0E0F0E080
000000E0000000E00000
000010E0000000E00000
00C0E060000000E00000
00000000000000800000
ENDCHAR
STARTCHAR  4E98
ENCODING  20120
SWIDTH  1000 0
DWIDTH  10 0
BBX  10 9 0 -1
BITMAP
00E0E0E0E0E0E0E0E060
00000000000000000000
00E0E0E0E0E0E0E0F000
00E0000000000000E000
00E0C0C0C0C0C0C0F000
00E0000000000010E000
00A0C0C0C0C0C0C06000
00000000000000000000
10E0E0E0E0E0E0E0E080
ENDCHAR
STARTCHAR  4E9A
ENCODING  20122
SWIDTH  1000 0
DWIDTH  10 0
BBX  9 8 1 0
BITMAP
C0C0C0F0C0F0C0C060
802000E000E0006030
804000E000E000A020
608000E000E000C000
40A000E000E000C000
10E000E000E020A000
008080E000E0A04000
C0C0C0F0C0F0C0C0A0
ENDCHAR
STARTCHAR  4E9B
ENCODING  20123
SWIDTH  1000 0
DWIDTH  10 0
BBX  9 10 1 -1
BITMAP
000030000030000000
6000E00000E0004080
E000E0E040F0C0E040
E000E00000E0000000
E000E00000E0000000
C0C0C0C06080C0C0A0
80C0C0C0C0C0C0C000
000000000000000000
000000000000000000
C0C0C0C0C0C0C0C0A0
ENDCHAR
STARTCHAR  4E9F
ENCODING  20127
SWIDTH  1000 0
DWIDTH  10 0
BBX  9 9 1 -1
BITMAP
40C0C0C0C0E0FFF000
0000000080A0601000
C0C0F000E0E0E0E030
E000E000E08030A000
E000E000E010E08000
E000E000E010E0C000
A0C0A0C0A0C04060A0
000000000000000000
C0C0C0C0C0C0C0C0A0
ENDCHAR
STARTCHAR  4EA0
ENCODING  20128
SWIDTH  1000 0
DWIDTH  10 0
BBX  9 3 1 6
BITMAP
000000004000000000
00000000E000000000
E0E0E0E0F0E0E0E0A0
ENDCHAR
STARTCHAR  4EA1
ENCODING  20129
SWIDTH  1000 0
DWIDTH  10 0
BBX  9 10 0 -1
BITMAP
000000004000000000
00000000E000000000
A0E0E0C0F0C0C0C0C0
00E000000000000000
00E000000000000000
00E000000000000000
00E000000000000000
00E000000000000000
00E020000000000000
0040C0C0C0C0C0C080
ENDCHAR
STARTCHAR  4EA2
ENCODING  20130
SWIDTH  1000 0
DWIDTH  10 0
BBX  9 9 1 -1
BITMAP
00000000E000000000
E0E0E0E0E0E0E0E0A0
0000E0E0E0E0E00000
0000E0000000E00000
0000E0000000E00000
0000E0000000E00000
0000E0000000E00000
0010E0000000E01000
E0C06000000060C0A0
ENDCHAR
STARTCHAR  4EA4
ENCODING  20132
SWIDTH  1000 0
DWIDTH  10 0
BBX  10 9 0 -1
BITMAP
0000000000C000000000
00E0E0E0E0E0E0E0E0A0
000010C0400060A00000
00C0E04000000080E0A0
000060C0200040C02000
00000040E080E0200000
00000000A0F080000000
000020C08010A0A01000
10E0C04000000060C0A0
ENDCHAR
STARTCHAR  4EA5
ENCODING  20133
SWIDTH  1000 0
DWIDTH  10 0
BBX  10 10 0 -1
BITMAP
00000000008000000000
00C0C0C0C0F0C0C0C080
00000080E02000000000
0020C0A0100020A06000
0060C0C0C0F0C0300000
00000040C06000408010
00C0E0A0100080801000
0000000020C0E0200000
00000060C02040E02000
00C0C08010000040C0A0
ENDCHAR
STARTCHAR  4EA6
ENCODING  20134
SWIDTH  1000 0
DWIDTH  10 0
BBX  10 10 0 -1
BITMAP
00000000002000000000
0000000020C000000000
30C0C0F0C0C0F0C0C030
001010E00000E0101000
006040E00000E0408000
00A020E00000E030A000
00E000E00000E000C000
80A000E00000E000C0A0
000000E00010E0000000
0000C08000C060000000
ENDCHAR
STARTCHAR  4EA7
ENCODING  20135
SWIDTH  1000 0
DWIDTH  10 0
BBX  10 9 0 -1
BITMAP
0000000000C000000000
00E0E0E0E0E0E0E0E080
0000C060000000C03000
000030E0100040A00000
00E0E0E0E0E0E0E0E060
00E00000000000000000
00E00000000000000000
00E00000000000000000
20A00000000000000000
ENDCHAR
STARTCHAR  4EA8
ENCODING  20136
SWIDTH  1000 0
DWIDTH  10 0
BBX  9 10 1 -1
BITMAP
000000006000000000
C0C0C0C0F0C0C0C080
000000000000000000
E0C0C0C0C0C0C0F000
E0C0C0C0C0C0C0C000
000000000000000000
C0C0C0C0C0C0F0FF30
0000000080A0601000
00000010E000000000
00A0C0C06000000000
ENDCHAR
STARTCHAR  4EA9
ENCODING  20137
SWIDTH  1000 0
DWIDTH  10 0
BBX  9 10 1 -1
BITMAP
000000001000000000
00000000E000000000
C0C0C0C0C0C0C0C080
A0C0C0C0C0C0C0C000
E0000000E00000E000
E0000000E00000E000
E0C0C0C0F0C0C0F000
E0000000E00000E000
E0000000E00010E000
A0E0E0E0E0E0C06000
ENDCHAR
STARTCHAR  4EAB
ENCODING  20139
SWIDTH  1000 0
DWIDTH  10 0
BBX  9 10 1 -1
BITMAP
000000004000000000
C0C0C0C0F0C0C0C080
A0C0C0C0C0C0C0C000
E0000000000000E000
A0C0C0C0C0C0C08000
40C0C0C0C0C0C0C000
0000000080A0802000
C0C0C0C0F0C0C0C0A0
00000010E000000000
0040C0C06000000000
ENDCHAR
STARTCHAR  4EAC
ENCODING  20140
SWIDTH  1000 0
DWIDTH  10 0
BBX  9 10 1 -1
BITMAP
000000006000000000
E0E0E0E0F0E0E0E0A0
000000000000000000
00F0C0C0C0C0C0F000
00E00000000000E000
00F0E0E0E0E0E0C000
00001000E000100000
0040A000E000A03000
C0C01010E00020C0E0
000040C06000000000
ENDCHAR
STARTCHAR  4EAD
ENCODING  20141
SWIDTH  1000 0
DWIDTH  10 0
BBX  9 9 1 0
BITMAP
000000006000000000
C0C0C0C0F0C0C0C080
00C0C0C0C0C0C0C000
00E00000000000E000
00C0C0C0C0C0C06000
E0C0C0C0C0C0C0C0E0
C0C0C0C0C0C0C010C0
00000000E000000000
0000C0E0A000000000
ENDCHAR
STARTCHAR  4EAE
ENCODING  20142
SWIDTH  1000 0
DWIDTH  10 0
BBX  10 9 0 0
BITMAP
00000000006000000000
00C0C0C0C0F0C0C0C0A0
00000000000000000000
0000F0C0C0C0C0C0F000
0000E0C0C0C0C0C0A000
00A0C0C0C0C0C0C0C0A0
00E000C0C0C0C0C000E0
000000E0000000E00000
10C0E08000000080E0A0
ENDCHAR
STARTCHAR  4EB2
ENCODING  20146
SWIDTH  1000 0
DWIDTH  10 0
BBX  10 10 0 -1
BITMAP
00000000006000000000
00C0C0C0C0F0C0C0C030
00001040000000400000
000000C0300040800000
00C0C0C0C0F0C0C0C080
0000000000E000000000
10C0C0C0C0F0C0C0C040
0000808000E000804000
10C0E01000E00020E0C0
00000030C06000000000
ENDCHAR
STARTCHAR  4EB3
ENCODING  20147
SWIDTH  1000 0
DWIDTH  10 0
BBX  10 10 0 -1
BITMAP
00000000400000000000
A0C0C0C0F0C0C0C0C000
00C0C0C0C0C0C0C00000
00F0C0C0C0C0C0C00000
A0C0C0C0C0C0C0C0A000
C000000000000060C000
0030C0C0F0C0C0800000
80C0C0C0F0C0C0C0C000
00000000E00000000000
0000000080C0C0C0A000
ENDCHAR
STARTCHAR  4EB5
ENCODING  20149
SWIDTH  1000 0
DWIDTH  10 0
BBX  10 10 0 -1
BITMAP
00000000004000000000
00C0C0C0C0F0C0C0C080
00008000000040400000
00C0F0C080C0F0C0F000
00A0E0806080E000E000
00A0C00060E0A0C0A0A0
00000030400000002010
10C0E0A030A0C0C0C020
0010E0100010E0600000
000060C0C08020A0C0A0
ENDCHAR
STARTCHAR  4EBA
ENCODING  20154
SWIDTH  1000 0
DWIDTH  10 0
BBX  9 9 1 -1
BITMAP
000000006080000000
00000000E010000000
00000060E030000000
000000C060C0000000
000040A000C0200000
0000C0300060A00000
0030C0000000E01000
00A040000000808000
C0800000000010A0A0
ENDCHAR
STARTCHAR  4EBB
ENCODING  20155
SWIDTH  1000 0
DWIDTH  10 0
BBX  5 10 0 -1
BITMAP
0000006000
000060A000
0000E03000
30E0C00000
0000E00000
0000E00000
0000E00000
0000E00000
0000E00000
0000800000
ENDCHAR
STARTCHAR  4EBF
ENCODING  20159
SWIDTH  1000 0
DWIDTH  10 0
BBX  10 10 0 -1
BITMAP
00000020000000000000
00004080E0E0E0E0FF40
0000E02000000060A000
10E0C000000030E01000
0000E0000010E0200000
0000E00000C060000000
0000E000808000000000
0000E040C00000000000
0000E0C0300000000000
00008060C0E0E0E0E0A0
ENDCHAR
STARTCHAR  4EC0
ENCODING  20160
SWIDTH  1000 0
DWIDTH  10 0
BBX  10 10 0 -1
BITMAP
00000000000000000000
000060600000E0000000
0000E0100000E0000000
20E0A0000000E0000000
0000E0E0E0E0F0E0E040
0000E0000000E0101000
0000E0000000E0000000
0000E0000000E0000000
0000E0000000E0000000
00008000000080000000
ENDCHAR
STARTCHAR  4EC1
ENCODING  20161
SWIDTH  1000 0
DWIDTH  10 0
BBX  9 10 0 -1
BITMAP
000030000000000000
0020C0000000000000
008060E0E0E0E0E080
A0F010000000000000
00E000000000000000
00E000000000000000
00E000000000000000
00E000000000000000
00E030E0E0E0E0E0E0
006000000000000000
ENDCHAR
STARTCHAR  4EC2
ENCODING  20162
SWIDTH  1000 0
DWIDTH  10 0
BBX  9 10 0 -1
BITMAP
000040000040000000
0020C00000E0000000
008080E0E0F0E0E0E0
80F0100010C00000E0
00E0000030A00000E0
00E0000040800000E0
00E0000060600000E0
00E0000080400000E0
00E040E0E040E0E080
008000000000000000
ENDCHAR
STARTCHAR  4EC3
ENCODING  20163
SWIDTH  1000 0
DWIDTH  10 0
BBX  10 10 0 -1
BITMAP
00001030000000000000
000080A0E0E0E0F0E0C0
0000E040000000E00000
20E0C000000000E00000
0000E000000000E00000
0000E000000000E00000
0000E000000000E00000
0000E000000000E00000
0000E000000000E00000
0000800000C0C0800000
ENDCHAR
STARTCHAR  4EC4
ENCODING  20164
SWIDTH  1000 0
DWIDTH  10 0
BBX  10 9 0 -1
BITMAP
00F0C0C0C0C0C0C0C030
00E00000006040000000
00E0000000E010000000
00E0000040E030000000
00E00000A060C0000000
00E00010E000C0300000
00E00080800060A00000
00E010E0100000E01000
8080C06000000040C040
ENDCHAR
STARTCHAR  4EC5
ENCODING  20165
SWIDTH  1000 0
DWIDTH  10 0
BBX  9 9 0 -1
BITMAP
0020C0E0E0E0E0E0A0
00A06030200000A040
A0F01020C00040A000
00E000008080E01000
00E0000000E0600000
00E0000020E0A00000
00E00000A040C02000
00E00040C00040A000
0080A0A020000080C0
ENDCHAR
STARTCHAR  4EC6
ENCODING  20166
SWIDTH  1000 0
DWIDTH  10 0
BBX  10 10 0 -1
BITMAP
00000000000000000000
000020C000E000000000
0000C04000E020A00000
10E0C00000E000E00000
0000E00000E000E01000
0000E00000E000A04000
0000E00000E000806000
0000E00000E00020E060
0000E00000E000000000
00008000008000000000
ENDCHAR
STARTCHAR  4EC7
ENCODING  20167
SWIDTH  1000 0
DWIDTH  10 0
BBX  10 10 0 -1
BITMAP
00001020002010000000
0000806000A040000000
0000E080E0F0E0E0E000
10E0A00000C01000E000
0000E00000E00000E000
0000E00000E00000E000
0000E00010C00000E000
0000E00020A00000E000
0000E00040800000E010
00008080C020000060C0
ENDCHAR
STARTCHAR  4EC9
ENCODING  20169
SWIDTH  1000 0
DWIDTH  10 0
BBX  10 9 0 -1
BITMAP
0010E000F0E0E0F00000
00808000E00000E00000
A0F01000E00000E00000
00E00000E00000E00000
00E00000E00000E00000
00E00000E00000E00000
00E00000E00000E00000
00E00010E00000E01000
006080C060000060C000
ENDCHAR
STARTCHAR  4ECA
ENCODING  20170
SWIDTH  1000 0
DWIDTH  10 0
BBX  10 9 0 -1
BITMAP
000080E0E0E0E0E00000
0000E010001000806000
0030C00000E00020E000
00C0300000E0000080A0
00E0E0E0E0E0E0E0F010
0000000000000040A000
00000000000010C01000
000000000010C0400000
0020C0C0C0C060000000
ENDCHAR
STARTCHAR  4ECB
ENCODING  20171
SWIDTH  1000 0
DWIDTH  10 0
BBX  9 9 0 -1
BITMAP
0020F0C0C0C0E04000
00806000000040A000
00C02000000000E010
8080E0000000E060A0
0000E0000000E00000
0000E0000000E00000
0000E0000000E00000
0010E0000000E00000
80C060000000800000
ENDCHAR
STARTCHAR  4ECD
ENCODING  20173
SWIDTH  1000 0
DWIDTH  10 0
BBX  9 10 1 -1
BITMAP
000000000000000000
0080A0F0E0C0C0E000
00C000C02000008000
E0A000C01000606000
00E000E01000C0E0A0
00E000E000000000E0
00E000E000000000E0
00E000E000000000E0
00E010E000000020C0
0080C06000A0E0C040
ENDCHAR
STARTCHAR  4ECE
ENCODING  20174
SWIDTH  1000 0
DWIDTH  10 0
BBX  10 10 0 -1
BITMAP
00004010000040100000
0000E0000000E0000000
0000E0000000E0000000
0020E0300020E0300000
0040C0A00060C0A00000
008060E0008060E00000
00A040C020A020E01000
00C01060A0E000A04000
00E0000010C000608000
60600000C0400010A030
ENDCHAR
STARTCHAR  4ED1
ENCODING  20177
SWIDTH  1000 0
DWIDTH  10 0
BBX  10 8 0 0
BITMAP
0010E0C0C0C0E0600000
00A06000000010E02000
A0E0000000000040E020
00E00000000000408000
00E00000000000C03000
00E0C0C0C0C0C0800000
00E00000000000000000
0080C0C0C0C0C0C0C030
ENDCHAR
STARTCHAR  4ED3
ENCODING  20179
SWIDTH  1000 0
DWIDTH  10 0
BBX  10 9 0 -1
BITMAP
000030E0C0C0C0E04000
0000C03000000030E010
00C060000000000060C0
0000C0C0C0C0C0C0E000
0000E00000000000E000
0000E00000000000E000
0000E00000A0C0C06000
0000C020000000000000
000040C0C0C0C0C0C0A0
ENDCHAR
STARTCHAR  4ED4
ENCODING  20180
SWIDTH  1000 0
DWIDTH  10 0
BBX  10 10 0 -1
BITMAP
00000020000000000000
000060A0E0E0E0E0F080
0000C03000000080A000
10E0C000000080800000
0000E040C0C0F0C0C0C0
0000E0000000E0000000
0000E0000000E0000000
0000E0000000E0000000
0000E0000000E0000000
0000600060C080000000
ENDCHAR
STARTCHAR  4ED5
ENCODING  20181
SWIDTH  1000 0
DWIDTH  10 0
BBX  9 10 0 -1
BITMAP
000030000030000000
0040C00000E0000000
00A0600000E0000000
A0E040E0E0F0E0E0E0
00E0000000E0000000
00E0000000E0000000
00E0000000E0000000
00E0000000E0000000
00E0000000E0000000
008000C0C0C0C0C0A0
ENDCHAR
STARTCHAR  4ED6
ENCODING  20182
SWIDTH  1000 0
DWIDTH  10 0
BBX  9 10 1 -1
BITMAP
000010000020000000
0080608000E0000000
00E010E000E080A0C0
C0A010E0E0FF6010E0
00E060E010E00000E0
00E000E000E00000E0
00E000E000E00010E0
00E000E000E010C060
00E000E01010000000
00600040C0E0E0E0A0
ENDCHAR
STARTCHAR  4ED7
ENCODING  20183
SWIDTH  1000 0
DWIDTH  10 0
BBX  10 10 0 -1
BITMAP
00003000000000300000
0040A000000000E00000
00C080C0C0C0C0FFC000
C0E00060600020E00000
00E00010E030A0600000
00E0000040E0E0000000
00E0000000C0A0000000
00E0000040E0C0200000
00E00010C06030C00000
008080C080000080C000
ENDCHAR
STARTCHAR  4ED8
ENCODING  20184
SWIDTH  1000 0
DWIDTH  10 0
BBX  9 10 0 -1
BITMAP
000040000000003000
0030C000000000E000
00A080E0E0E0E0F0E0
A0E00040100000E000
00E00060600000E000
00E00010A00000E000
00E00000C01000E000
00E0000040C060E000
00E00000000010E000
0060000060E0C06000
ENDCHAR
STARTCHAR  4ED9
ENCODING  20185
SWIDTH  1000 0
DWIDTH  10 0
BBX  9 9 0 -1
BITMAP
0010A0000000C00000
008060C00000E000C0
80F010E00000E000E0
00E000E00000E000E0
00E000E00000E000E0
00E000E00000E000E0
00E000E00000E000E0
00E000E00000E000E0
004000A0C0C0C0C060
ENDCHAR
STARTCHAR  4EDD
ENCODING  20189
SWIDTH  1000 0
DWIDTH  10 0
BBX  9 9 1 -1
BITMAP
0010E0E0E0E0E06000
00806000000030C000
E0C00000000000A0C0
00E0E0E0E0E0E0E0A0
00000000E000000000
00000000E000000000
00000000E000000000
00000000E000000000
80E0E0E0E0E0E0E0E0
ENDCHAR
STARTCHAR  4EDE
ENCODING  20190
SWIDTH  1000 0
DWIDTH  10 0
BBX  9 10 1 -1
BITMAP
000010000000000000
0060A0E0E0E0E0E0E0
00E0302020806000E0
E0C0008060A02000E0
00E000C020E00000E0
00E010E000E00000E0
00E0806030A00000E0
00E0000060800000E0
00E00000A0400010E0
008040C0A010C0C060
ENDCHAR
STARTCHAR  4EDF
ENCODING  20191
SWIDTH  1000 0
DWIDTH  10 0
BBX  9 10 0 -1
BITMAP
000040000000000040
0040C0A0E0E0E0E0A0
00A0600000E0000000
A0E0100000E0000000
00E0000000E0000000
00E060C0C0F0C0C0C0
00E0000000E0000000
00E0000000E0000000
00E0000000E0000000
008000000080000000
ENDCHAR
STARTCHAR  4EE1
ENCODING  20193
SWIDTH  1000 0
DWIDTH  10 0
BBX  10 10 0 -1
BITMAP
00001000100000000000
0020C020E00000000000
00A06080E0E0E0E0E020
A0F060A0000000000000
00E000E0E0E0E0FFA000
00E000000000A0A00000
00E0000020C060000000
00E00040E04000000000
00E020E0200000000000
008010C0C0C0C0C0C020
ENDCHAR
STARTCHAR  4EE3
ENCODING  20195
SWIDTH  1000 0
DWIDTH  10 0
BBX  10 10 0 -1
BITMAP
00003010602030200000
0000A000606030A00000
0010C00030A000A08000
30E080C0E0F0E0E0E000
0000E00000C010000000
0000E000008040000000
0000E000006080000000
0000E0000020C0000000
0000E0000000E0300000
00006000000040C0E010
ENDCHAR
STARTCHAR  4EE4
ENCODING  20196
SWIDTH  1000 0
DWIDTH  10 0
BBX  10 9 0 -1
BITMAP
000080E0E0E0E0E01000
0020E01000400080A000
10E0600000E00000C0C0
0000000000E000000000
00C0C0C0C0C0C0E0F010
00206010000000A04000
000060E04000C0400000
00000040E0E060000000
0000000010A0C0E0A000
ENDCHAR
STARTCHAR  4EE5
ENCODING  20197
SWIDTH  1000 0
DWIDTH  10 0
BBX  9 10 1 -1
BITMAP
200040200000202000
E00080600000A06000
E00060800000E01000
E00060800020C00000
E00040A00080600000
E00010C080C0A00000
E000000010C0C02000
A0E0E0306060806000
00000000C02040A000
000000C080000080A0
ENDCHAR
STARTCHAR  4EE8
ENCODING  20200
SWIDTH  1000 0
DWIDTH  10 0
BBX  10 9 0 -1
BITMAP
000040A0E0E0E0E0E080
0000C040000000000000
10E0C000000000000000
0000E000000000000000
0000E000A0E0E0E0E080
0000E000000000000000
0000E000000000000000
0000E000000000000000
00004040E0E0E0E0E0E0
ENDCHAR
STARTCHAR  4EEA
ENCODING  20202
SWIDTH  1000 0
DWIDTH  10 0
BBX  9 9 0 -1
BITMAP
0020A06020A0104040
00A040C04060E0E010
A0E00020E010A08000
00E0000080A0E00000
00E0000000E0600000
00E0000020E0A00000
00E00000A040A04000
00E00030C00030C010
008080A020000060C0
ENDCHAR
STARTCHAR  4EEB
ENCODING  20203
SWIDTH  1000 0
DWIDTH  10 0
BBX  10 10 0 -1
BITMAP
00001060000040300000
000060800020E0100000
0000E02000A040000000
10E0A00040A00010C010
0000E080E01000C04000
0000E000000080800000
0000E0000040C0401000
0000E00020E01040A000
0000E010E0300000A030
00006030C0C0C0C0C060
ENDCHAR
STARTCHAR  4EEC
ENCODING  20204
SWIDTH  1000 0
DWIDTH  10 0
BBX  9 10 0 -1
BITMAP
000010100000000000
004080A06040E0E0F0
00C03020C0800000E0
A0E000E000000000E0
00E000E000000000E0
00E000E000000000E0
00E000E000000000E0
00E000E000000000E0
00E000E000000000E0
008000800010E0C060
ENDCHAR
STARTCHAR  4EF0
ENCODING  20208
SWIDTH  1000 0
DWIDTH  10 0
BBX  9 10 0 -1
BITMAP
000030000040000000
004080E0E080F0E0F0
00C030E00000E000E0
80E000E00000E000E0
00E000E00000E000E0
00E000E00000E000E0
00E000E00000E000E0
00E000A0E0A0F0C0C0
00E000000000E00000
008000000000800000
ENDCHAR
STARTCHAR  4EF2
ENCODING  20210
SWIDTH  1000 0
DWIDTH  10 0
BBX  9 9 0 -1
BITMAP
0030C0000000E00000
00A060C0E0E0F0E0E0
A0E000E00000E000E0
00E000E00000E000E0
00E000E00000E000E0
00E000F0E0E0F0E0C0
00E000000000E00000
00E000000000E00000
008000000000800000
ENDCHAR
STARTCHAR  4EF3
ENCODING  20211
SWIDTH  1000 0
DWIDTH  10 0
BBX  10 9 0 -1
BITMAP
0030A0C00000C0000000
00C040E00000E000C010
80E000E0C080F0E0A000
00E000E00000E0000000
00E000E00000E0000000
00E000E00000E0000000
00E000E00000E0000000
00E000E01000E0000000
00800060C08080C0C030
ENDCHAR
STARTCHAR  4EF5
ENCODING  20213
SWIDTH  1000 0
DWIDTH  10 0
BBX  9 10 0 -1
BITMAP
000040104000000000
0030A0608000000000
00A040E0E0F0E0E080
80E080A000E0000000
10E0000000E0000000
00E080E0E0F0E0E0E0
00E0000000E0000000
00E0000000E0000000
00E0000000E0000000
008000000080000000
ENDCHAR
STARTCHAR  4EF6
ENCODING  20214
SWIDTH  1000 0
DWIDTH  10 0
BBX  10 9 0 -1
BITMAP
0020C02020E000000000
00A060A030E000000000
A0E000E0E0F0E0E0A000
00E0608000E000000000
00E0000000E000000000
00E040C0C0F0C0C0C020
00E0000000E000000000
00E0000000E000000000
00800000008000000000
ENDCHAR
STARTCHAR  4EF7
ENCODING  20215
SWIDTH  1000 0
DWIDTH  10 0
BBX  10 10 0 -1
BITMAP
00008020000000000000
0030E010E0C0C0E00000
00A06060A00000A04000
A0F040E020000030E030
00E00000E00000E00000
00E00000E00000E00000
00E00000E00000E00000
00E00000E00000E00000
00E00010E00000E00000
008000C0600000400000
ENDCHAR
STARTCHAR  4EFB
ENCODING  20219
SWIDTH  1000 0
DWIDTH  10 0
BBX  9 10 0 -1
BITMAP
000060000000000040
0040C0C0C0C0C0C0C0
00C0400000E0000000
A0E0000000E0000000
00E0000000E0000000
00E080C0C0F0C0C0C0
00E0000000E0000000
00E0000000E0000000
00E0000000E0000000
008000C0C0C0C0C0C0
ENDCHAR
STARTCHAR  4EFD
ENCODING  20221
SWIDTH  1000 0
DWIDTH  10 0
BBX  10 10 0 -1
BITMAP
00006000302020200000
0040C000C02030A00000
00C04020C00000C01000
80E040E040000060E030
10E000C0E0E0E0E0A000
00E0000000E00000E000
00E0000030A00000E000
00E0000080600000E000
00E00010E0100020C000
008030C06000C0C04000
ENDCHAR
STARTCHAR  4EFF
ENCODING  20223
SWIDTH  1000 0
DWIDTH  10 0
BBX  10 10 0 -1
BITMAP
00003000003000000000
0020E00000E000000000
00A0A0C0F0C0C0C0C020
80F01000E00000000000
00E00000F0C0C0C0E000
00E00000E0000000E000
00E00000E0000000E000
00E00000E0000000E000
00E00010E0000020E000
008060C040A0C0C04000
ENDCHAR
STARTCHAR  4F01
ENCODING  20225
SWIDTH  1000 0
DWIDTH  10 0
BBX  9 9 1 -1
BITMAP
0060E0E0E0E0E03000
00C02000000040A000
20C00000A00000E010
C0400000E0000040A0
00C00000E0E0E0E020
00E00000E000000000
00E00000E000000000
00E00000E000000000
A0E0E0E0E0E0E0E0A0
ENDCHAR
STARTCHAR  4F09
ENCODING  20233
SWIDTH  1000 0
DWIDTH  10 0
BBX  10 9 0 -1
BITMAP
0010E00000E000000000
008080C0C0C0C0C0C000
80E01000C0C0C0C00000
00E00000E00000E00000
00E00000E00000E00000
00E00000E00000E00000
00E00000E00000E00000
00E00010E00000E01000
008000A060000060C020
ENDCHAR
STARTCHAR  4F0A
ENCODING  20234
SWIDTH  1000 0
DWIDTH  10 0
BBX  10 10 0 -1
BITMAP
00002000000000000000
0040C080F0C0C0C0E000
00A06000E0000000E000
A0E060C0F0C0C0C0F010
00E00000E0000010E000
00E00080F0E0E0E06000
00E00000E00000000000
00E00000E00000000000
00E00000E00000000000
008020C0800000000000
ENDCHAR
STARTCHAR  4F0D
ENCODING  20237
SWIDTH  1000 0
DWIDTH  10 0
BBX  9 10 0 -1
BITMAP
000010000000000000
0040E0C0E0F0C0C0C0
00C0600030C0000000
80E000006080000000
00E000A0E0E0C0C0E0
00E00000A0400000E0
00E00000E0200000E0
00E00000E0000000E0
00E00020E0000000E0
008080C0C0C0C0C0C0
ENDCHAR
STARTCHAR  4F0E
ENCODING  20238
SWIDTH  1000 0
DWIDTH  10 0
BBX  10 10 0 -1
BITMAP
00004000004000000000
0040C00000E000000000
00A0A0E0E0F0E0E0E010
A0E0000000E000000000
00E000C0C0F0C0C0A000
00E00010100010C08000
00E00020C010A0800000
00E0000040F080000000
00E0000080A0E0200000
008080C0800040C0C000
ENDCHAR
STARTCHAR  4F0F
ENCODING  20239
SWIDTH  1000 0
DWIDTH  10 0
BBX  10 10 0 -1
BITMAP
00004000004000100000
0040C00000E020C00000
00A0600000E000A08000
80F040E0E0F0E0E0E010
10E0000020E020000000
00E000008080C0000000
00E00000E010C0200000
00E00030C00060800000
00E000A0600010E01000
0080A0A000000060C000
ENDCHAR
STARTCHAR  4F10
ENCODING  20240
SWIDTH  1000 0
DWIDTH  10 0
BBX  10 10 0 -1
BITMAP
00004000301010000000
0030C000804060A00000
00A0600060800080A000
80E030C0E0F0C0C0C010
00E0000000E000006000
00E0000000C01040A000
00E0000000A060C03000
00E030C0C0E0E0600000
00E000000010E0100000
00800000000060C0C030
ENDCHAR
STARTCHAR  4F11
ENCODING  20241
SWIDTH  1000 0
DWIDTH  10 0
BBX  10 9 0 -1
BITMAP
0030E00000E000000000
00A080E0E0F0E0E0E020
A0F0103020E000600000
00E0008030E000E01000
00E000A010E000A03000
00E000C000E000806000
00E000C000E000608000
00E0A08000E00020E030
00800000008000000000
ENDCHAR
STARTCHAR  4F17
ENCODING  20247
SWIDTH  1000 0
DWIDTH  10 0
BBX  10 9 0 -1
BITMAP
000080E0E0E0E0E04000
0010E01000000020E000
00E060800000008080A0
000010C0000030A00000
000040C0100080A00000
0000A0A06000C0A04000
0000E030A000E030A000
0030A000E040A000C010
10C0300060C0300040A0
ENDCHAR
STARTCHAR  4F18
ENCODING  20248
SWIDTH  1000 0
DWIDTH  10 0
BBX  11 10 0 -1
BITMAP
0000002020200000000000
000010E020A040C0100000
0000A06000C00060C04000
20E0C030E0F0E0F0E0E000
0000E00000C000E0000000
0000E00010A000E0000000
0000E00020A000E0000000
0000E000408000E0000000
0000E000806000E0000000
000080A0A0100060C0C000
ENDCHAR
STARTCHAR  4F19
ENCODING  20249
SWIDTH  1000 0
DWIDTH  10 0
BBX  9 9 0 -1
BITMAP
0020A01000C0000020
00A080A000E0004080
A0E000E010E000A040
00E00080E0E060C000
00E0000000E0100000
00E0000060E0A00000
00E00000E020C03000
00E00060A00030C010
008080A010000060C0
ENDCHAR
STARTCHAR  4F1A
ENCODING  20250
SWIDTH  1000 0
DWIDTH  10 0
BBX  9 9 1 -1
BITMAP
00C0C0C0C0C0E00000
10C000000000A06000
60E0C0C0C0C0E0E010
A010000000000080C0
A0C0C0C0C0C0C0C0A0
0030C0000000000000
10E020000030E01000
A0600000000060A000
E0E0E0E0E0E0E0C000
ENDCHAR
STARTCHAR  4F1B
ENCODING  20251
SWIDTH  1000 0
DWIDTH  10 0
BBX  10 10 0 -1
BITMAP
00002000000000000000
0030A0E0E0E0E0E0C000
00A040E0306000404000
A0E000E000C010C00000
00E000E00040E0600000
00E000E00000F0200000
00E000E00060A0A00000
00E000E080C00080C000
00E000E0000000000000
008000A0C0C0C0C0C020
ENDCHAR
STARTCHAR  4F1E
ENCODING  20254
SWIDTH  1000 0
DWIDTH  10 0
BBX  9 9 1 -1
BITMAP
0080E0C0C0C0E06000
10E01000E00010E010
C0400000E0000060C0
00A03000E00030A000
0020E060E060E03000
00000000E000000000
A0C0C0C0F0C0C0C0A0
00000000E000000000
000000002000000000
ENDCHAR
STARTCHAR  4F1F
ENCODING  20255
SWIDTH  1000 0
DWIDTH  10 0
BBX  9 9 0 -1
BITMAP
0020C00000E0000000
00A060C0C0F0C0C0C0
A0E000C0C0F0C0C080
00E0000000E0000000
00E040C0C0F0C0C0A0
00E0000000E00000E0
00E0000000E00010E0
00E0000000E040C060
0080000000A0000000
ENDCHAR
STARTCHAR  4F20
ENCODING  20256
SWIDTH  1000 0
DWIDTH  10 0
BBX  9 10 0 -1
BITMAP
000000000000000000
0030C0006080000000
00A060C0FFC0C0C0A0
A0E060E0F0E0E0E0E0
00E000C03000000000
00E000FFE0E0E0E040
00E00040000030E010
00E00060A020E02000
00E0000080E0400000
008000000080C0C060
ENDCHAR
STARTCHAR  4F22
ENCODING  20258
SWIDTH  1000 0
DWIDTH  10 0
BBX  10 10 0 -1
BITMAP
00002000000000000000
0040A0A0C0C0C0F0C000
00A04060600000E00000
A0E000E0100000E00000
00E010E0C0C0C0F0C010
00E00000203000E00000
00E00000A03000E00000
00E00020C00000E00000
00E080E0400000E00000
008000000080C0800000
ENDCHAR
STARTCHAR  4F24
ENCODING  20260
SWIDTH  1000 0
DWIDTH  10 0
BBX  10 9 0 -1
BITMAP
0040A020C00000000000
00A04080E0C0C0C0C010
A0E040C010A030000000
00E000C0C0F0C0C0A000
00E0000010C00000E000
00E0000040800000E000
00E0000080600000E000
00E00000C0200010E000
008030C08040C0C06000
ENDCHAR
STARTCHAR  4F25
ENCODING  20261
SWIDTH  1000 0
DWIDTH  10 0
BBX  10 10 0 -1
BITMAP
00008000800000104000
0040C000E00000A04000
00C04000E00030C00000
A0E00000E0A0C0200000
00E060E0F0E0E0E0E000
00E00000E00000000000
00E00000E000C0000000
00E00000E000A0300000
00E00000E00030A00000
0080000080C04080C010
ENDCHAR
STARTCHAR  4F26
ENCODING  20262
SWIDTH  1000 0
DWIDTH  10 0
BBX  9 10 0 -1
BITMAP
000010000000000000
0030A040E0E0E0A000
00C040A0400000E000
A0E080C000000060E0
00E000800000000010
00E000E0000010A040
00E000E0E0E0C06000
00E000E00000000000
00E000E02000000000
00800040C0C0C0C0A0
ENDCHAR
STARTCHAR  4F27
ENCODING  20263
SWIDTH  1000 0
DWIDTH  10 0
BBX  9 10 0 -1
BITMAP
000010000000000000
0030A040E0C0E0A000
00C030A0300000E010
C0E0608000000060E0
00E000C0C0C0C0E000
00E000E0000000E000
00E000E0000000E000
00E000E000A0C08000
00E000C02000000000
00800040C0C0C0C0A0
ENDCHAR
STARTCHAR  4F2A
ENCODING  20266
SWIDTH  1000 0
DWIDTH  10 0
BBX  9 10 0 -1
BITMAP
001080601060400000
00608060E0C0200000
00C060C0C0F0C0C0C0
A0E0000020C00000E0
00E0000040806000E0
00E000008060C000E0
00E00000A020A030E0
00E00000E00040A0E0
00E00020C0000010E0
008060C04020C0C060
ENDCHAR
STARTCHAR  4F2B
ENCODING  20267
SWIDTH  1000 0
DWIDTH  10 0
BBX  10 10 0 -1
BITMAP
00003000003000000000
0040A00000E000000000
00A040F0E0E0E0E0F000
80E000E000000000E000
00E00080000000008000
00E00000000000000000
00E00000000000000000
00E00000000000000000
00E030E0E0E0E0E0E020
00800000000000000000
ENDCHAR
STARTCHAR  4F2F
ENCODING  20271
SWIDTH  1000 0
DWIDTH  10 0
BBX  10 9 0 -1
BITMAP
0000604030C000000000
0010E000A0E0C0C0C0E0
10E080A0F000000000E0
0000E000E000000000E0
0000E000E0C0C0C0C0E0
0000E000E000000000E0
0000E000E000000000E0
0000E000E000000020E0
00008000A0C0C0C0C040
ENDCHAR
STARTCHAR  4F30
ENCODING  20272
SWIDTH  1000 0
DWIDTH  10 0
BBX  10 10 0 -1
BITMAP
00006010006000000000
0020E00000E000000000
00C060E0E0F0E0E0E000
A0E0000000E000000000
00E0000000E000000000
00E000A0E0F0E0E0A000
00E000E000000000E000
00E000E000000000E000
00E000E000000010E000
008000A0E0E0E0C06000
ENDCHAR
STARTCHAR  4F32
ENCODING  20274
SWIDTH  1000 0
DWIDTH  10 0
BBX  10 10 0 -1
BITMAP
00001000000000000000
0030A0E0E0E0E0E0F000
00A040E000000000E000
80E000E0E0E0E0E0A000
00E000E0001000000000
00E000E000E00000C010
00E000E000E0C0E08000
00E000E000E000000000
00E000E000E010000000
004080800060C0C0C020
ENDCHAR
STARTCHAR  4F34
ENCODING  20276
SWIDTH  1000 0
DWIDTH  10 0
BBX  10 9 0 -1
BITMAP
0020C0E000E00010E000
00A060A040E00060A000
80E00040E0F060E04000
00E000C0C0F0C0C0A000
00E0000000E000000000
00E030C0C0F0C0C0C020
00E0000000E000000000
00E0000000E000000000
00800000008000000000
ENDCHAR
STARTCHAR  4F36
ENCODING  20278
SWIDTH  1000 0
DWIDTH  10 0
BBX  9 10 0 -1
BITMAP
000010000000000000
0040A020E0C0E08000
00C04080600010E000
80E000E010E000C030
00E0A06000E00040C0
00E000C0C0C0C0E0E0
00E00060200010E040
00E00020A010E06000
00E0000040E0A00000
008000000040C0C020
ENDCHAR
STARTCHAR  4F38
ENCODING  20280
SWIDTH  1000 0
DWIDTH  10 0
BBX  9 9 0 -1
BITMAP
0020E0000000E00000
00A060F0C0C0F0C0F0
80E010E00000E000E0
00E000F0E0E0F0E0F0
00E000E00000E000E0
00E000E00000E000E0
00E000E0C0C0F0E080
00E000000000E00000
008000000000800000
ENDCHAR
STARTCHAR  4F3A
ENCODING  20282
SWIDTH  1000 0
DWIDTH  10 0
BBX  9 10 0 -1
BITMAP
000010000000000000
0030C0C0C0C0C0C0E0
00A060C0C0C0C080E0
A0E0100000000000E0
00E000E0C0C0F000E0
00E000E00000E000E0
00E000E00000E000E0
00E000E0C0C0A000E0
00E0000000000010E0
008000000000C0C060
ENDCHAR
STARTCHAR  4F3C
ENCODING  20284
SWIDTH  1000 0
DWIDTH  10 0
BBX  10 10 0 -1
BITMAP
00006000106000401000
004080A010C000C01000
00A040E000E000E00000
80E000E000E030C00000
00E000E000E080800000
00E000E00080E0E00000
00E000E00000F0A02000
00E000C0A030C0606000
00E00000C0E04010E010
00600000000000000000
ENDCHAR
STARTCHAR  4F3D
ENCODING  20285
SWIDTH  1000 0
DWIDTH  10 0
BBX  9 10 0 -1
BITMAP
000040400000000000
004080E0000000F0F0
00A0A0F0E0C000E0E0
80E000A020E000E0E0
00E000C010E000E0E0
00E000C000E000E0E0
00E000E000E000E0E0
00E000E000E000E0E0
00E000E000E000E0E0
0080A080808000C080
ENDCHAR
STARTCHAR  4F43
ENCODING  20291
SWIDTH  1000 0
DWIDTH  10 0
BBX  9 10 0 -1
BITMAP
000020000000000000
0020C0E0E0E0F0E0E0
00A060E00000E000E0
A0E000E00000E000E0
00E000E0C0C0F0C0E0
00E000E00000E000E0
00E000E00000E000E0
00E000E00000E000E0
00E000E00000E000E0
008000A0E0E0E0C060
ENDCHAR
STARTCHAR  4F46
ENCODING  20294
SWIDTH  1000 0
DWIDTH  10 0
BBX  10 10 0 -1
BITMAP
00001000000000000000
0010A0E0E0E0E0E0E000
00A060E000000000E000
A0E000E000000000E000
00E000E0C0C0C0C0E000
00E000E000000000E000
00E000E000000010E000
00E000A0C0C0C0C04000
00E00000000000000000
008030C0C0C0C0C0C020
ENDCHAR
STARTCHAR  4F4D
ENCODING  20301
SWIDTH  1000 0
DWIDTH  10 0
BBX  10 10 0 -1
BITMAP
00003000003000000000
0020E00000E000000000
00A060C0C0E0C0C0A000
80E01000000000000000
00E00080200000C02000
00E00040800010E00000
00E00000C00040800000
00E0000080E0A0400000
00E000000000C0000000
008030E0E0E0E0E0E020
ENDCHAR
STARTCHAR  4F4E
ENCODING  20302
SWIDTH  1000 0
DWIDTH  10 0
BBX  10 10 0 -1
BITMAP
00004000000000004000
0040A0C0C0C0C0C0C000
00A040E00000E0000000
80E000E00000E0000000
00E000E0C0C0F0E0C010
00E000E0000080600000
00E000E0006060800000
00E000E000C030A00000
00E000E000C010E00000
00800060C0608060C020
ENDCHAR
STARTCHAR  4F4F
ENCODING  20303
SWIDTH  1000 0
DWIDTH  10 0
BBX  10 10 0 -1
BITMAP
00004000004000000000
0020A00000E000000000
00A040E0E0F0E0E0E000
80E0000000E000000000
00E0000000E000000000
00E000E0E0F0E0E08000
00E0000000E000000000
00E0000000E000000000
00E0000000E000000000
008020C0C0C0C0C0C020
ENDCHAR
STARTCHAR  4F50
ENCODING  20304
SWIDTH  1000 0
DWIDTH  10 0
BBX  10 10 0 -1
BITMAP
00003000004000000000
0010C00040C000000000
0080A0C0E0E0C0C0C000
80E01000E01000000000
00E00040A00000000000
00E00080E0C0F0C0A000
00E040C00000E0000000
00E000000000E0000000
00E000000000E0000000
008030C0C0C0C0C0C020
ENDCHAR
STARTCHAR  4F51
ENCODING  20305
SWIDTH  1000 0
DWIDTH  10 0
BBX  10 10 0 -1
BITMAP
00004000002020000000
0060C00000E020000000
00E040C0E0F0C0C0C000
A0E00000E02000000000
00E00060A00000000000
00E000E0C0C0C0C0E000
00E0C0F000000000E000
00E000E000000000E000
00E000E000000020E000
008000A0C0C0C0C04000
ENDCHAR
STARTCHAR  4F53
ENCODING  20307
SWIDTH  1000 0
DWIDTH  10 0
BBX  9 9 0 -1
BITMAP
0060400000E0000000
00A0C0E0E0F0E0E0A0
80C0008040E000A000
00E000C020E000C000
00E000E000E000A020
00E010E000E0008040
00E040A0E0F0E0A060
00E0E04000E00020E0
008000000080000000
ENDCHAR
STARTCHAR  4F55
ENCODING  20309
SWIDTH  1000 0
DWIDTH  10 0
BBX  9 10 0 -1
BITMAP
000060100000000000
0020C0C0C0C0C0C0C0
00A0600000000000E0
A0E000A0E0E0A000E0
00E000E00010C000E0
00E000E00010C000E0
00E000E00010C000E0
00E000E0C0E08000E0
00E0000000000010E0
008000000000E0C040
ENDCHAR
STARTCHAR  4F57
ENCODING  20311
SWIDTH  1000 0
DWIDTH  10 0
BBX  9 9 0 -1
BITMAP
0020C0000000E00000
00A060F0C0C0C0C0F0
80F010E000000000E0
00E000E00000000020
00E000E000000060A0
00E000E0C0C0C0A010
00E000E00000000000
00E000C02000000000
00800040C0C0C0C0C0
ENDCHAR
STARTCHAR  4F58
ENCODING  20312
SWIDTH  1000 0
DWIDTH  10 0
BBX  9 9 1 -1
BITMAP
0020F0C0C0C0E01000
008040000000608000
10E0C0C0C0C0C0E010
C030000000000040C0
C0C0C0C0E0C0C0C060
00306000E000601000
00C04000E00040A000
C0A00000E00000A0C0
000010C06000000000
ENDCHAR
STARTCHAR  4F59
ENCODING  20313
SWIDTH  1000 0
DWIDTH  10 0
BBX  10 9 0 -1
BITMAP
000040E0C0C0C0E01000
0010E02000000060A000
10E060C0C0F0C0A0A0C0
0000000000E000000000
00C0C0C0C0F0C0C0C060
0000103000E000300000
0000A04000E000808000
00E0800010E00000C0C0
00000040C06000000000
ENDCHAR
STARTCHAR  4F5A
ENCODING  20314
SWIDTH  1000 0
DWIDTH  10 0
BBX  10 10 0 -1
BITMAP
00106000008000000000
0060608040E000000000
00C020E0E0F0C0C06000
80E080A000E000000000
00E0000000E000000000
00E080C0C0F0C0C0C000
00E0000040E060000000
00E00000C030E0100000
00E00040A00060A00000
0080A0A020000080C010
ENDCHAR
STARTCHAR  4F5B
ENCODING  20315
SWIDTH  1000 0
DWIDTH  10 0
BBX  9 9 0 -1
BITMAP
0020E000C000E00000
00A060C0F0C0F0C0E0
80E01000C000E000E0
00E000F0F0C0F0C060
00E000F0F0C0F0C0C0
00E00000C000E000E0
00E00000C000E000E0
00E00000E000E08080
008000C08000800000
ENDCHAR
STARTCHAR  4F5C
ENCODING  20316
SWIDTH  1000 0
DWIDTH  10 0
BBX  9 10 0 -1
BITMAP
000060203000000000
0040A0A04000000000
00A040E0F0C0C0C080
A0E0A080E000000000
00E00000E0C0C0C040
00E00000E000000000
00E00000E0E0E0E040
00E00000E000000000
00E00000E000000000
008000008000000000
ENDCHAR
STARTCHAR  4F5D
ENCODING  20317
SWIDTH  1000 0
DWIDTH  10 0
BBX  9 10 0 -1
BITMAP
000010001000000000
0020C020C000000000
00A040A0E0C0C0C0F0
A0E060A000000000E0
00E000E0C0C0F000E0
00E000E00000E000E0
00E000E00000E000E0
00E000E0C0C0A000E0
00E0000000000010E0
008000000040E0C060
ENDCHAR
STARTCHAR  4F5E
ENCODING  20318
SWIDTH  1000 0
DWIDTH  10 0
BBX  10 10 0 -1
BITMAP
00001000000000000000
0020A0E0E0E0E0E06000
00A06000000000000000
80E030E0E0E0E0E0E010
00E00080000000800000
00E040F0E0E0E0F0E020
00E000E0100000E00000
00E00060E060C0800000
00E0000060FFC0100000
008040C0A02060C0C030
ENDCHAR
STARTCHAR  4F5F
ENCODING  20319
SWIDTH  1000 0
DWIDTH  10 0
BBX  9 10 0 -1
BITMAP
000060008010000000
00408040FFC0C0C0A0
00A0A0F0400000A060
80E00020E040A06000
00E0000030F0C01000
00E080E0E03060E0C0
00E00020A080200000
00E000000060A0C080
00E01080E080200000
008000001060C0C080
ENDCHAR
STARTCHAR  4F60
ENCODING  20320
SWIDTH  1000 0
DWIDTH  10 0
BBX  9 10 0 -1
BITMAP
000000001000000000
003060608000000000
00A020E0C0C0C0C0F0
60E0A0A000C00000E0
10E0002010E0003010
00E000C020E000E000
00E000E000E000C030
00E040A000E0008060
00E0A04000E00020C0
00800030C080000000
ENDCHAR
STARTCHAR  4F63
ENCODING  20323
SWIDTH  1000 0
DWIDTH  10 0
BBX  9 10 0 -1
BITMAP
000010000000000000
0040A0E0C0C0F0C0F0
00A040E00000E000E0
80E000E0C0C0F0C0F0
00E000E01010E010E0
00E000E00000E000E0
00E000E0C0C0F0C0F0
00E000E00000E000E0
00E080C00000C0A0C0
008000000000000000
ENDCHAR
STARTCHAR  4F64
ENCODING  20324
SWIDTH  1000 0
DWIDTH  10 0
BBX  10 10 0 -1
BITMAP
00001000000000000000
0030C0E0E0C0C0C0C000
00A060A0300000000000
A0E010C0E0C0C0E00000
00E000C0204000E00000
00E000E010C000E00000
00E000E000C010E00000
00E000E0006080E00000
00E000E0000000E00000
00600080C0C03060C020
ENDCHAR
STARTCHAR  4F65
ENCODING  20325
SWIDTH  1000 0
DWIDTH  10 0
BBX  9 9 1 -1
BITMAP
0060E0C0C0C0E06000
00E02000000030C000
40F0C0C0C0C0C0F030
C030000000000040C0
306000208000008020
10C00000E00000E000
00A0E000A0E0608000
000000000000A03000
C0C0C0C0C0C0C0C0A0
ENDCHAR
STARTCHAR  4F67
ENCODING  20327
SWIDTH  1000 0
DWIDTH  10 0
BBX  10 10 0 -1
BITMAP
00000000000000000000
0010E00000E000000000
0080600000F0C0C0A000
A0E0100000E000000000
00E060C0C0F0C0C0C000
00E0000000E030300000
00E0000000E020C00000
00E0000000E000C02000
00E0000000E00040E010
00800000008000000000
ENDCHAR
STARTCHAR  4F69
ENCODING  20329
SWIDTH  1000 0
DWIDTH  10 0
BBX  10 9 0 -1
BITMAP
004080F0C0C0C0C0E000
00A040E0C0C0C080E000
60E000E000C00000E000
00E000E0C0F0C0C0E000
00E000E0C0C000C0E000
00E000E0C0C000C0E000
00E000E0C0C010C0E000
00E010C080C06060E000
0080806000A000008060
ENDCHAR
STARTCHAR  4F6C
ENCODING  20332
SWIDTH  1000 0
DWIDTH  10 0
BBX  9 10 0 -1
BITMAP
000030000020000000
0030C00000E0000080
00C060C0C0F0C0A060
80E0000000E010C000
00E080E0FFE0E0E0E0
00E00080A000000030
00E080FFC0C0C0E060
00E000E00000000000
00E000C02000000000
00800040C0C0C0C0A0
ENDCHAR
STARTCHAR  4F6F
ENCODING  20335
SWIDTH  1000 0
DWIDTH  10 0
BBX  9 10 0 -1
BITMAP
001030201000004000
00606030A00060A000
00C060C0F0E0E0E0C0
80E0000000E0000000
00E000C0C0F0C0C0A0
00E0000000E0000000
00E0A0C0C0F0C0C0C0
00E0000000E0000000
00E0000000E0000000
008000000080000000
ENDCHAR
STARTCHAR  4F70
ENCODING  20336
SWIDTH  1000 0
DWIDTH  10 0
BBX  10 10 0 -1
BITMAP
00002000000000000000
0040A0C0C0E0E0C0C010
00E0200000A040000000
C0A000C0E0E0E0E0C000
00E000E000000000E000
00E000E000000000E000
00E000E0C0C0C0C0E000
00E000E000000000E000
00E000E000000010C000
008000A0E0E0E0C04000
ENDCHAR
STARTCHAR  4F73
ENCODING  20339
SWIDTH  1000 0
DWIDTH  10 0
BBX  10 10 0 -1
BITMAP
00004000003000000000
0030C00000E000000000
00A060C0C0F0C0C0A000
80E0100000E000000000
00E060C0C0C0C0C0C000
00E00000008000000000
00E000C0C0F0C0C0A000
00E0000000E000000000
00E0000000E000000000
008060C0C0C0C0C0C020
ENDCHAR
STARTCHAR  4F74
ENCODING  20340
SWIDTH  1000 0
DWIDTH  10 0
BBX  11 10 0 -1
BITMAP
0000001000000000000000
000080A0F0E0E0E0F0E000
0000E030E0000000E00000
10E0C000E0C0C0C0F00000
0000E000E0000000E00000
0000E000E0C0C0C0F00000
0000E000E0000000E00000
0000E020F0C0C0C0F0C020
0000E00000000000E00000
0000800000000000800000
ENDCHAR
STARTCHAR  4F76
ENCODING  20342
SWIDTH  1000 0
DWIDTH  10 0
BBX  10 10 0 -1
BITMAP
00004010000040000000
0010E0000000E0000000
0060A0E0E0E0F0E0E020
80F020000000E0000000
00E00080E0E0F0E0E000
00E00000000000000000
00E000E0E0E0E0E0E000
00E000E000000000E000
00E000E0E0E0E0E08000
00800000000000000000
ENDCHAR
STARTCHAR  4F7B
ENCODING  20347
SWIDTH  1000 0
DWIDTH  10 0
BBX  10 10 0 -1
BITMAP
00104000004040000000
0060C06000E0E0008010
00C060A000E0E000C000
60E0008030E0E080A000
00E0000000E0E0000000
00E0008010E0E0606000
00E000A000E0E030A000
00E020A000E0E000C040
00E0000010E0E0100000
008020E0C06060C0E040
ENDCHAR
STARTCHAR  4F7C
ENCODING  20348
SWIDTH  1000 0
DWIDTH  10 0
BBX  10 10 0 -1
BITMAP
0020800000A000000000
0080A0E0E0F0E0E0E000
00C02000600060300000
A0E00060800030C01000
00E060A010000060C020
00E00020A00080800000
00E0000080C0C0000000
00E0000030FF60000000
00E00020E030E0400000
0080A0C0300020A0C000
ENDCHAR
STARTCHAR  4F7E
ENCODING  20350
SWIDTH  1000 0
DWIDTH  10 0
BBX  9 10 0 -1
BITMAP
000040004020303000
00608030E00020E000
00C0C0E0300000A0E0
80E000A0C0C0C0C0A0
00E000E000000000E0
00E000E0C0C0C0C0E0
00E000E000000000E0
00E000E0C0C0C0C0E0
00E000E000000010C0
008000A00020C0C040
ENDCHAR
STARTCHAR  4F7F
ENCODING  20351
SWIDTH  1000 0
DWIDTH  10 0
BBX  10 10 0 -1
BITMAP
00204000006000000000
0080E0C0C0F0C0C0C000
00E0100000E000000000
80C010F0C0F0C0C0E000
00E010E000E00000E000
00E000E0C0F0C0C06000
00E000C0E0F0C0100000
00E00000A01080600000
00E00030800020E01000
0080A0A010000060C010
ENDCHAR
STARTCHAR  4F83
ENCODING  20355
SWIDTH  1000 0
DWIDTH  10 0
BBX  10 9 0 -1
BITMAP
0030A0E0E0E0E0E0E000
00A060E000000000E000
80E000E000000010E000
00E000A0E0E0E0C06000
00E000E00000E000E000
00E000E00000E000E000
00E000E00000E000E000
00E000E00000E000E000
00808080000010008060
ENDCHAR
STARTCHAR  4F84
ENCODING  20356
SWIDTH  1000 0
DWIDTH  10 0
BBX  10 10 0 -1
BITMAP
00002000000000000000
0040C0E0E0E0E0E0E010
00C04010C01060800000
A0E00080400000A04000
00E000C0E0F0E0E08000
00E0000000E000000000
00E000C0C0F0C0C0C000
00E0000000E000000000
00E0000000E000000000
008060E0E0E0E0E0E000
ENDCHAR
STARTCHAR  4F88
ENCODING  20360
SWIDTH  1000 0
DWIDTH  10 0
BBX  9 10 0 -1
BITMAP
000040002030000000
0030C010E0E0C0C0C0
00A080E0C0200060A0
80E0000030C0E0C000
00E040C0C0E0C01000
00E00000C0E0C0C0C0
00E030E0A0000080A0
00E0000080C0C0E010
00E000000020E04000
008060C0C0C0600000
ENDCHAR
STARTCHAR  4F89
ENCODING  20361
SWIDTH  1000 0
DWIDTH  10 0
BBX  10 9 0 -1
BITMAP
0030A000008040000000
00A080C0E0E0E0F0C000
A0E00010E0E0C0E01000
00E080C030000010C000
00E020C0E0E0C0C0C000
00E00030E01000000000
00E00060E0E0E0E0E000
00E0000000000020E000
00800020C0C0C0C04000
ENDCHAR
STARTCHAR  4F8B
ENCODING  20363
SWIDTH  1000 0
DWIDTH  10 0
BBX  9 9 0 -1
BITMAP
0060C0C0E0C08000E0
00C04030A00000E0E0
60E00080E0E040E0E0
00E030A010A020E0E0
00E0008010E000E0E0
00E00060E0A000E0E0
00E00000606000C0E0
00E00000C0200000E0
008030C080000060A0
ENDCHAR
STARTCHAR  4F8D
ENCODING  20365
SWIDTH  1000 0
DWIDTH  10 0
BBX  10 9 0 -1
BITMAP
0030A0C0C0F0C0C0C000
00A0400000E000000000
80E0000000E000000000
00E080C0C0C0C0E0C000
00E080C0C0C0C0F0C000
00E00060100000E00000
00E00060800000E00000
00E0000080C010E00000
008000000040C0800000
ENDCHAR
STARTCHAR  4F8F
ENCODING  20367
SWIDTH  1000 0
DWIDTH  10 0
BBX  10 9 0 -1
BITMAP
0030808040E000000000
00A030E0C0F0C0C08000
60E0808000E000000000
00E060C0C0F0C0C0C000
00E0003020E010600000
00E000A030E000E00000
00E000C000E000C02000
00E060A000E00060E000
00800000008000000000
ENDCHAR
STARTCHAR  4F91
ENCODING  20369
SWIDTH  1000 0
DWIDTH  10 0
BBX  9 9 0 -1
BITMAP
00406000C030000000
00C0A0E0E0C0C0C0C0
80C000A0E0C0C0C0A0
00E0A0FF20202020E0
00E000E0C0C0C0C0E0
00E000E000000000E0
00E000E0C0C0C0C0E0
00E000E000000010C0
008000A00010C0C040
ENDCHAR
STARTCHAR  4F94
ENCODING  20372
SWIDTH  1000 0
DWIDTH  10 0
BBX  9 9 0 -1
BITMAP
0010A010C030303000
008060A0600020C030
A0F030C0C0C0C0C080
00E000A000E0000000
00E000E0C0F0C0C0A0
00E0606000E0000000
00E080E0E0F0E0E0E0
00E0000000E0000000
00A0000000A0000000
ENDCHAR
STARTCHAR  4F97
ENCODING  20375
SWIDTH  1000 0
DWIDTH  10 0
BBX  9 10 0 -1
BITMAP
000010000000000000
0030A0F0E0E0E0E0F0
00A040E080C0C0C0E0
60E000E000000000E0
00E000E0A0E0E0C0E0
00E000E0E00000E0E0
00E000E0E00010E0E0
00E000E0A0E0E060E0
00E000E000000000E0
008000A00000E0C060
ENDCHAR
STARTCHAR  4F9B
ENCODING  20379
SWIDTH  1000 0
DWIDTH  10 0
BBX  10 10 0 -1
BITMAP
00106000600000600000
0060A000E00000E00000
00C060C0F0C0C0F0C000
80E00000E00000E00000
00E00000E00000E00000
00E00000E00000E00000
00E080C0C0C0C0C0C000
00E00000A01030800000
00E00040A00000E01000
008080A010000040C020
ENDCHAR
STARTCHAR  4F9D
ENCODING  20381
SWIDTH  1000 0
DWIDTH  10 0
BBX  10 10 0 -1
BITMAP
00001000002000000000
0060600000E000000000
00C0A0E0E0F0E0E0E000
80C00000A0A010008000
00E0006080608010A000
00E0C0FF0010F0E06000
00E000E00000A0800000
00E000E0000040C00000
00E000E0100000E02000
00800060C0C08040C010
ENDCHAR
STARTCHAR  4FA0
ENCODING  20384
SWIDTH  1000 0
DWIDTH  10 0
BBX  10 10 0 -1
BITMAP
00002000002000000000
0030C00000E000000000
00A060FFE0F0E0E0FF10
80F010A030E00060A000
00E00030E0F060E03000
00E000E0E0F0E0E0E060
00E0000020E040000000
00E00000A030E0100000
00E00060800060A00000
0080A0A010000080C000
ENDCHAR
STARTCHAR  4FA3
ENCODING  20387
SWIDTH  1000 0
DWIDTH  10 0
BBX  9 10 0 -1
BITMAP
000020000000000000
0020C0E0C0C0C0C0E0
00A060E000000000E0
80F010E000000010E0
00E000A0E0E0E0C060
00E000C0C0C0C0C0C0
00E000E000000000E0
00E000E000000000E0
00E000E000000010E0
008000C0C0C0C0C060
ENDCHAR
STARTCHAR  4FA5
ENCODING  20389
SWIDTH  1000 0
DWIDTH  10 0
BBX  10 10 0 -1
BITMAP
00000000000000000000
0010E010A04000000000
008080C0C0FFC0FFFF00
80E010000080A0300000
00E010C0C0A0A0C0C020
00E00000000000000000
00E030C0E0F0C0F0C020
00E00000806000E00000
00E00000E02000E00000
008040C080000080C030
ENDCHAR
STARTCHAR  4FA6
ENCODING  20390
SWIDTH  1000 0
DWIDTH  10 0
BBX  10 10 1 -1
BITMAP
0010A000008000000000
0060A00000E000000000
00E0300000E0E0E0E000
E0C000C0C0F0C0C0A000
00E000E000600000E000
00E000E000E00000E000
00E000E000E02000E000
00E0001040C0C0001000
00E00010C01080800000
008060C040000080C020
ENDCHAR
STARTCHAR  4FA7
ENCODING  20391
SWIDTH  1000 0
DWIDTH  10 0
BBX  9 9 0 -1
BITMAP
004080E0C0E000E0E0
00C020C0A0C000E0E0
80E000C0C0C000E0E0
00E000C0C0C000E0E0
00E000C0C0C000E0E0
00E000C0E0C000E0E0
00E000A0C0800040E0
00E0C0A010C030C0C0
008000000000000000
ENDCHAR
STARTCHAR  4FA8
ENCODING  20392
SWIDTH  1000 0
DWIDTH  10 0
BBX  10 10 0 -1
BITMAP
00004000000000004000
0030A0A0C0E0E0C0A000
00A0600010E010000000
80E020E0E0E0E0E0E020
00E00020E00020E01000
00E040E060000080E030
00E00000E00000E00000
00E00000E00000E00000
00E00010E00000E00000
008030C0600000A00000
ENDCHAR
STARTCHAR  4FA9
ENCODING  20393
SWIDTH  1000 0
DWIDTH  10 0
BBX  10 10 0 -1
BITMAP
00001000000000000000
0030A030E0E0E0C00000
00A04080600000A01000
80E010E0E0E0E0F06000
10E0A08000000010C000
00E040C0C0C0C0C0C000
00E00010C03020A00000
00E000A0600000806000
00E030F0C0C0C0E0C000
00800000000000000000
ENDCHAR
STARTCHAR  4FAA
ENCODING  20394
SWIDTH  1000 0
DWIDTH  10 0
BBX  10 10 0 -1
BITMAP
00303000008000000000
00A0A0C0C0F0C0C0C000
00C00020200080800000
A0A00020A0A0A0000000
00E0000080C0C0200000
00E080C0600030A0C010
00E00000E00000E00000
00E00000E00000E00000
00E00010E00000E00000
008060C0400000800000
ENDCHAR
STARTCHAR  4FAC
ENCODING  20396
SWIDTH  1000 0
DWIDTH  10 0
BBX  10 10 0 -1
BITMAP
00001000000010000000
0010E000003080000000
008060F0E0E0E0E0F000
80E010E000C01000E000
00E0000030A0A0006000
00E00000A030A0E0A000
00E010C0E00060800000
00E00000E00010C00000
00E00000E00000A03000
0080000080C08030C030
ENDCHAR
STARTCHAR  4FAE
ENCODING  20398
SWIDTH  1000 0
DWIDTH  10 0
BBX  9 10 0 -1
BITMAP
001040108000000000
00604080F0C0C0C0C0
00A0C0A00000000000
80E000E0E0E0E0E0E0
00E000E000606000E0
00E0A0F0E0E0E0E0E0
00E020C000806000A0
00E040F0C0E0F0C0E0
00E000000000003080
008000000080C0A010
ENDCHAR
STARTCHAR  4FAF
ENCODING  20399
SWIDTH  1000 0
DWIDTH  10 0
BBX  10 10 0 -1
BITMAP
00001000000000000000
0020A0E0E0E0E0F04000
00A04000000010E01000
80E060E0E0E0E0E0E000
00E000A0E0C0C0C0C000
00E0808000E000000000
00E060C0C0F0C0C0C000
00E0000060E060000000
00E00020E010C0600000
008080C0300010A0C020
ENDCHAR
STARTCHAR  4FB5
ENCODING  20405
SWIDTH  1000 0
DWIDTH  10 0
BBX  9 10 0 -1
BITMAP
000020000000000000
0040C080C0C0C0C0E0
00A06040C0C0C0C0E0
60F01080C0C0C0C080
00E000C0C0C0C0C0C0
00E000600000000060
00E000C0C0C0C0E0E0
00E00030C080A0A010
00E0000060E0E03000
0080A0C0A02030A0C0
ENDCHAR
STARTCHAR  4FBF
ENCODING  20415
SWIDTH  1000 0
DWIDTH  10 0
BBX  10 10 0 -1
BITMAP
00001000000000000000
0040A0C0C0F0C0C0C020
00C040C0C0F0C0C0C000
80E000E000E00000E000
00E000F0C0F0C0C0E000
00E000F0C0F0C0C08000
00E0000010C000000000
00E000C0E0E0C0000000
00E00020A000A0600000
0080C0C0300010A0C000
ENDCHAR
STARTCHAR  4FC3
ENCODING  20419
SWIDTH  1000 0
DWIDTH  10 0
BBX  9 10 0 -1
BITMAP
001080000000000000
006080F0C0C0C0C0E0
00A030E000000000E0
A0E000E000000010E0
00E000E0E0E0F0C060
00E000404000E00000
00E000A04000F0E0C0
00E000E08010E00000
00E080A060E0F0E0E0
008000000000000000
ENDCHAR
STARTCHAR  4FC4
ENCODING  20420
SWIDTH  1000 0
DWIDTH  10 0
BBX  10 10 0 -1
BITMAP
00102000004030303000
006080C0E0C0A0608000
00C02000E0008040E030
60E0A0C0F0C0E0E0C000
00E00000E00040806000
00E00000E0E080A08000
00E00060F01020C0A000
00E0A080E060E0FF6000
00E010C0A00000A0C040
00800000000000000000
ENDCHAR
STARTCHAR  4FC5
ENCODING  20421
SWIDTH  1000 0
DWIDTH  10 0
BBX  10 10 0 -1
BITMAP
00003000003000000000
0040800000E000C02000
00C080E0E0F0E0E0E010
A0E0108000E00020A000
00E000C010E000806000
00E00040C0E060A01000
00E0004040E000800000
00E000C020E000C02000
00E060A000E00060E000
00800000C08000000000
ENDCHAR
STARTCHAR  4FCA
ENCODING  20426
SWIDTH  1000 0
DWIDTH  10 0
BBX  10 10 0 -1
BITMAP
00003000304000100000
00208080C02010C06000
0080A0FFC0C0C0E0FF20
80E00010A02060800000
00E0A0E0608010A0E000
00E00000C0E0C0C0C000
00E040E0A02060C06000
00E0000060FFE0100000
00E0A0C0E04060E0C020
00800000000000000000
ENDCHAR
STARTCHAR  4FCE
ENCODING  20430
SWIDTH  1000 0
DWIDTH  10 0
BBX  9 10 0 -1
BITMAP
000010000000000000
00606000E0E0E0E0E0
00C0A000E0000000E0
10C0A040E0C0C0C0E0
A06020C0E0000000E0
00606000E0000000E0
00A0A000E0C0C0C0E0
00E0C020E0000000E0
40A06060E0000000E0
C03010A0E0E0E0E0E0
ENDCHAR
STARTCHAR  4FCF
ENCODING  20431
SWIDTH  1000 0
DWIDTH  10 0
BBX  10 10 0 -1
BITMAP
00108040000080003010
006080C03000E000E010
00C02030E080E0C08000
80E000A0C0C0F0C0C000
00E000E000000000E000
00E000E0E0E0E0E0F000
00E000E000000000E000
00E000E0C0C0C0C0F000
00E000E0000060C0A000
00800000000000000000
ENDCHAR
STARTCHAR  4FD0
ENCODING  20432
SWIDTH  1000 0
DWIDTH  10 0
BBX  9 10 0 -1
BITMAP
001040000000400040
0080A0C0F0C08010E0
00C04000E00010C0E0
60E0C0C0F0C030C0E0
00E00080E08060C0E0
00E00080E08060C0E0
00E01080E06060C0E0
00E03060E06060C0E0
00E0E030E04040C0C0
008000000000000000
ENDCHAR
STARTCHAR  4FD1
ENCODING  20433
SWIDTH  1000 0
DWIDTH  10 0
BBX  9 10 0 -1
BITMAP
000020000000000000
0030A0E0F0C0C0E0F0
00A0600060A0A08010
60F010E0C0C0F0C0E0
00E000E00000E000E0
00E000F0C0C0F0C0F0
00E000E00000E000E0
00E000F0C0C0F0C0F0
00E000E00000E080C0
008000000000000000
ENDCHAR
STARTCHAR  4FD7
ENCODING  20439
SWIDTH  1000 0
DWIDTH  10 0
BBX  10 10 0 -1
BITMAP
00004000203040100000
0030E010E02060A00000
00A0E0E0400000A0E000
80F01000C0C0E0800000
00E00080A00000E02000
00E080A010000030C020
00E000E0E0E0E0E0E000
00E000E000000000E000
00E000E000000020E000
008000C0E0E0E0C04000
ENDCHAR
ENDFONT
